  0
SECTION
  2
HEADER
  9
$ANGBASE
  50
0.0
  9
$ANGDIR
  70
1
  9
$MEASUREMENT
  70
1
  0
ENDSEC
  0
SECTION
  2
TABLES
  0
TABLE
  2
LTYPE
  70
4
  0
LTYPE
  5
40F
  2
CONTINUOUS
  70
0
  3
Solid line
  72
65
  73
0
  40
0.0
  0
LTYPE
  5
410
  2
DASHDOT
 70
0
  3
Dash Dot ____ _ ____ _
 72
65
 73
4
 40
2.0
 49
1.25
 49
-0.25
 49
0.25
 49
-0.25
  0
LTYPE
  5
411
  2
DASHED
 70
0
  3
Dashed __ __ __ __ __
 72
65
 73
2
 40
0.75
 49
0.5
 49
-0.25
  0
LTYPE
  5
43B
  2
DOTTED
 70
0
  3
Dotted .  .  .  .
 72
65
 73
2
 40
0.2
 49
0.0
 49
-0.2
  0
ENDTAB
  0
TABLE
  2
STYLE
  70
4
  0
STYLE
  2
KICAD
  70
0
  40
0
  41
1
  42
1
  50
0
  71
0
  3
isocp.shx
  0
STYLE
  2
KICADB
  70
0
  40
0
  41
1
  42
1
  50
0
  71
0
  3
isocp.shx
  0
STYLE
  2
KICADI
  70
0
  40
0
  41
1
  42
1
  50
15
  71
0
  3
isocp.shx
  0
STYLE
  2
KICADBI
  70
0
  40
0
  41
1
  42
1
  50
15
  71
0
  3
isocp.shx
  0
ENDTAB
  0
TABLE
  2
LAYER
  70
35
  0
LAYER
  2
BLACK
  70
0
  62
7
  6
CONTINUOUS
  0
LAYER
  2
GRAY1
  70
0
  62
251
  6
CONTINUOUS
  0
LAYER
  2
GRAY2
  70
0
  62
8
  6
CONTINUOUS
  0
LAYER
  2
GRAY3
  70
0
  62
9
  6
CONTINUOUS
  0
LAYER
  2
WHITE
  70
0
  62
7
  6
CONTINUOUS
  0
LAYER
  2
LYELLOW
  70
0
  62
51
  6
CONTINUOUS
  0
LAYER
  2
LORANGE
  70
0
  62
41
  6
CONTINUOUS
  0
LAYER
  2
BLUE1
  70
0
  62
178
  6
CONTINUOUS
  0
LAYER
  2
GREEN1
  70
0
  62
98
  6
CONTINUOUS
  0
LAYER
  2
CYAN1
  70
0
  62
138
  6
CONTINUOUS
  0
LAYER
  2
RED1
  70
0
  62
18
  6
CONTINUOUS
  0
LAYER
  2
MAGENTA1
  70
0
  62
228
  6
CONTINUOUS
  0
LAYER
  2
BROWN1
  70
0
  62
58
  6
CONTINUOUS
  0
LAYER
  2
ORANGE1
  70
0
  62
34
  6
CONTINUOUS
  0
LAYER
  2
BLUE2
  70
0
  62
5
  6
CONTINUOUS
  0
LAYER
  2
GREEN2
  70
0
  62
3
  6
CONTINUOUS
  0
LAYER
  2
CYAN2
  70
0
  62
4
  6
CONTINUOUS
  0
LAYER
  2
RED2
  70
0
  62
1
  6
CONTINUOUS
  0
LAYER
  2
MAGENTA2
  70
0
  62
6
  6
CONTINUOUS
  0
LAYER
  2
BROWN2
  70
0
  62
54
  6
CONTINUOUS
  0
LAYER
  2
ORANGE2
  70
0
  62
42
  6
CONTINUOUS
  0
LAYER
  2
BLUE3
  70
0
  62
171
  6
CONTINUOUS
  0
LAYER
  2
GREEN3
  70
0
  62
91
  6
CONTINUOUS
  0
LAYER
  2
CYAN3
  70
0
  62
131
  6
CONTINUOUS
  0
LAYER
  2
RED3
  70
0
  62
11
  6
CONTINUOUS
  0
LAYER
  2
MAGENTA3
  70
0
  62
221
  6
CONTINUOUS
  0
LAYER
  2
YELLOW3
  70
0
  62
2
  6
CONTINUOUS
  0
LAYER
  2
ORANGE3
  70
0
  62
32
  6
CONTINUOUS
  0
LAYER
  2
BLUE4
  70
0
  62
5
  6
CONTINUOUS
  0
LAYER
  2
GREEN4
  70
0
  62
3
  6
CONTINUOUS
  0
LAYER
  2
CYAN4
  70
0
  62
4
  6
CONTINUOUS
  0
LAYER
  2
RED4
  70
0
  62
1
  6
CONTINUOUS
  0
LAYER
  2
MAGENTA4
  70
0
  62
6
  6
CONTINUOUS
  0
LAYER
  2
YELLOW4
  70
0
  62
2
  6
CONTINUOUS
  0
LAYER
  2
ORANGE4
  70
0
  62
40
  6
CONTINUOUS
  0
ENDTAB
  0
ENDSEC
  0
SECTION
  2
ENTITIES
0
LINE
8
BLACK
6
CONTINUOUS
10
112.5336709999999982
20
-103.60902999999999
11
112.6147769999999895
21
-103.6632230000000021
0
LINE
8
BLACK
6
CONTINUOUS
10
112.6147769999999895
20
-103.6632230000000021
11
112.6689700000000016
21
-103.7443289999999934
0
LINE
8
BLACK
6
CONTINUOUS
10
112.6689700000000016
20
-103.7443289999999934
11
112.6879999999999882
21
-103.8399999999999892
0
LINE
8
BLACK
6
CONTINUOUS
10
112.6879999999999882
20
-103.8399999999999892
11
112.6879999999999882
21
-104.4399999999999977
0
LINE
8
BLACK
6
CONTINUOUS
10
112.6879999999999882
20
-104.4399999999999977
11
112.6689700000000016
21
-104.5356709999999936
0
LINE
8
BLACK
6
CONTINUOUS
10
112.6689700000000016
20
-104.5356709999999936
11
112.6147769999999895
21
-104.616776999999999
0
LINE
8
BLACK
6
CONTINUOUS
10
112.6147769999999895
20
-104.616776999999999
11
112.5336709999999982
21
-104.670969999999997
0
LINE
8
BLACK
6
CONTINUOUS
10
112.5336709999999982
20
-104.670969999999997
11
112.4379999999999882
21
-104.6899999999999977
0
LINE
8
BLACK
6
CONTINUOUS
10
112.4379999999999882
20
-104.6899999999999977
11
111.8379999999999939
21
-104.6899999999999977
0
LINE
8
BLACK
6
CONTINUOUS
10
111.8379999999999939
20
-104.6899999999999977
11
111.742328999999998
21
-104.670969999999997
0
LINE
8
BLACK
6
CONTINUOUS
10
111.742328999999998
20
-104.670969999999997
11
111.6612229999999926
21
-104.616776999999999
0
LINE
8
BLACK
6
CONTINUOUS
10
111.6612229999999926
20
-104.616776999999999
11
111.6070299999999946
21
-104.5356709999999936
0
LINE
8
BLACK
6
CONTINUOUS
10
111.6070299999999946
20
-104.5356709999999936
11
111.5879999999999939
21
-104.4399999999999977
0
LINE
8
BLACK
6
CONTINUOUS
10
111.5879999999999939
20
-104.4399999999999977
11
111.5879999999999939
21
-103.8399999999999892
0
LINE
8
BLACK
6
CONTINUOUS
10
111.5879999999999939
20
-103.8399999999999892
11
111.6070299999999946
21
-103.7443289999999934
0
LINE
8
BLACK
6
CONTINUOUS
10
111.6070299999999946
20
-103.7443289999999934
11
111.6612229999999926
21
-103.6632230000000021
0
LINE
8
BLACK
6
CONTINUOUS
10
111.6612229999999926
20
-103.6632230000000021
11
111.742328999999998
21
-103.60902999999999
0
LINE
8
BLACK
6
CONTINUOUS
10
111.742328999999998
20
-103.60902999999999
11
111.8379999999999939
21
-103.5899999999999892
0
LINE
8
BLACK
6
CONTINUOUS
10
111.8379999999999939
20
-103.5899999999999892
11
112.4379999999999882
21
-103.5899999999999892
0
LINE
8
BLACK
6
CONTINUOUS
10
112.4379999999999882
20
-103.5899999999999892
11
112.5336709999999982
21
-103.60902999999999
0
LINE
8
BLACK
6
CONTINUOUS
10
115.3336709999999954
20
-103.60902999999999
11
115.4147770000000008
21
-103.6632230000000021
0
LINE
8
BLACK
6
CONTINUOUS
10
115.4147770000000008
20
-103.6632230000000021
11
115.4689699999999988
21
-103.7443289999999934
0
LINE
8
BLACK
6
CONTINUOUS
10
115.4689699999999988
20
-103.7443289999999934
11
115.4879999999999995
21
-103.8399999999999892
0
LINE
8
BLACK
6
CONTINUOUS
10
115.4879999999999995
20
-103.8399999999999892
11
115.4879999999999995
21
-104.4399999999999977
0
LINE
8
BLACK
6
CONTINUOUS
10
115.4879999999999995
20
-104.4399999999999977
11
115.4689699999999988
21
-104.5356709999999936
0
LINE
8
BLACK
6
CONTINUOUS
10
115.4689699999999988
20
-104.5356709999999936
11
115.4147770000000008
21
-104.616776999999999
0
LINE
8
BLACK
6
CONTINUOUS
10
115.4147770000000008
20
-104.616776999999999
11
115.3336709999999954
21
-104.670969999999997
0
LINE
8
BLACK
6
CONTINUOUS
10
115.3336709999999954
20
-104.670969999999997
11
115.2379999999999995
21
-104.6899999999999977
0
LINE
8
BLACK
6
CONTINUOUS
10
115.2379999999999995
20
-104.6899999999999977
11
114.637999999999991
21
-104.6899999999999977
0
LINE
8
BLACK
6
CONTINUOUS
10
114.637999999999991
20
-104.6899999999999977
11
114.5423289999999952
21
-104.670969999999997
0
LINE
8
BLACK
6
CONTINUOUS
10
114.5423289999999952
20
-104.670969999999997
11
114.4612229999999897
21
-104.616776999999999
0
LINE
8
BLACK
6
CONTINUOUS
10
114.4612229999999897
20
-104.616776999999999
11
114.4070299999999918
21
-104.5356709999999936
0
LINE
8
BLACK
6
CONTINUOUS
10
114.4070299999999918
20
-104.5356709999999936
11
114.387999999999991
21
-104.4399999999999977
0
LINE
8
BLACK
6
CONTINUOUS
10
114.387999999999991
20
-104.4399999999999977
11
114.387999999999991
21
-103.8399999999999892
0
LINE
8
BLACK
6
CONTINUOUS
10
114.387999999999991
20
-103.8399999999999892
11
114.4070299999999918
21
-103.7443289999999934
0
LINE
8
BLACK
6
CONTINUOUS
10
114.4070299999999918
20
-103.7443289999999934
11
114.4612229999999897
21
-103.6632230000000021
0
LINE
8
BLACK
6
CONTINUOUS
10
114.4612229999999897
20
-103.6632230000000021
11
114.5423289999999952
21
-103.60902999999999
0
LINE
8
BLACK
6
CONTINUOUS
10
114.5423289999999952
20
-103.60902999999999
11
114.637999999999991
21
-103.5899999999999892
0
LINE
8
BLACK
6
CONTINUOUS
10
114.637999999999991
20
-103.5899999999999892
11
115.2379999999999995
21
-103.5899999999999892
0
LINE
8
BLACK
6
CONTINUOUS
10
115.2379999999999995
20
-103.5899999999999892
11
115.3336709999999954
21
-103.60902999999999
0
LINE
8
BLACK
6
CONTINUOUS
10
137.2784709999999961
20
-103.1184299999999894
11
137.3595770000000016
21
-103.1726230000000015
0
LINE
8
BLACK
6
CONTINUOUS
10
137.3595770000000016
20
-103.1726230000000015
11
137.4137699999999995
21
-103.2537289999999928
0
LINE
8
BLACK
6
CONTINUOUS
10
137.4137699999999995
20
-103.2537289999999928
11
137.4327999999999861
21
-103.3493999999999886
0
LINE
8
BLACK
6
CONTINUOUS
10
137.4327999999999861
20
-103.3493999999999886
11
137.4327999999999861
21
-104.1494
0
LINE
8
BLACK
6
CONTINUOUS
10
137.4327999999999861
20
-104.1494
11
137.4137699999999995
21
-104.2450709999999958
0
LINE
8
BLACK
6
CONTINUOUS
10
137.4137699999999995
20
-104.2450709999999958
11
137.3595770000000016
21
-104.3261770000000013
0
LINE
8
BLACK
6
CONTINUOUS
10
137.3595770000000016
20
-104.3261770000000013
11
137.2784709999999961
21
-104.3803699999999992
0
LINE
8
BLACK
6
CONTINUOUS
10
137.2784709999999961
20
-104.3803699999999992
11
137.1827999999999861
21
-104.3994
0
LINE
8
BLACK
6
CONTINUOUS
10
137.1827999999999861
20
-104.3994
11
135.9327999999999861
21
-104.3994
0
LINE
8
BLACK
6
CONTINUOUS
10
135.9327999999999861
20
-104.3994
11
135.8371290000000045
21
-104.3803699999999992
0
LINE
8
BLACK
6
CONTINUOUS
10
135.8371290000000045
20
-104.3803699999999992
11
135.756022999999999
21
-104.3261770000000013
0
LINE
8
BLACK
6
CONTINUOUS
10
135.756022999999999
20
-104.3261770000000013
11
135.7018300000000011
21
-104.2450709999999958
0
LINE
8
BLACK
6
CONTINUOUS
10
135.7018300000000011
20
-104.2450709999999958
11
135.6827999999999861
21
-104.1494
0
LINE
8
BLACK
6
CONTINUOUS
10
135.6827999999999861
20
-104.1494
11
135.6827999999999861
21
-103.3493999999999886
0
LINE
8
BLACK
6
CONTINUOUS
10
135.6827999999999861
20
-103.3493999999999886
11
135.7018300000000011
21
-103.2537289999999928
0
LINE
8
BLACK
6
CONTINUOUS
10
135.7018300000000011
20
-103.2537289999999928
11
135.756022999999999
21
-103.1726230000000015
0
LINE
8
BLACK
6
CONTINUOUS
10
135.756022999999999
20
-103.1726230000000015
11
135.8371290000000045
21
-103.1184299999999894
0
LINE
8
BLACK
6
CONTINUOUS
10
135.8371290000000045
20
-103.1184299999999894
11
135.9327999999999861
21
-103.0993999999999886
0
LINE
8
BLACK
6
CONTINUOUS
10
135.9327999999999861
20
-103.0993999999999886
11
137.1827999999999861
21
-103.0993999999999886
0
LINE
8
BLACK
6
CONTINUOUS
10
137.1827999999999861
20
-103.0993999999999886
11
137.2784709999999961
21
-103.1184299999999894
0
LINE
8
BLACK
6
CONTINUOUS
10
126.99147099999999
20
-102.910429999999991
11
127.0725769999999955
21
-102.9646229999999889
0
LINE
8
BLACK
6
CONTINUOUS
10
127.0725769999999955
20
-102.9646229999999889
11
127.1267699999999934
21
-103.0457289999999944
0
LINE
8
BLACK
6
CONTINUOUS
10
127.1267699999999934
20
-103.0457289999999944
11
127.1457999999999942
21
-103.1413999999999902
0
LINE
8
BLACK
6
CONTINUOUS
10
127.1457999999999942
20
-103.1413999999999902
11
127.1457999999999942
21
-103.9414000000000016
0
LINE
8
BLACK
6
CONTINUOUS
10
127.1457999999999942
20
-103.9414000000000016
11
127.1267699999999934
21
-104.0370709999999974
0
LINE
8
BLACK
6
CONTINUOUS
10
127.1267699999999934
20
-104.0370709999999974
11
127.0725769999999955
21
-104.1181769999999887
0
LINE
8
BLACK
6
CONTINUOUS
10
127.0725769999999955
20
-104.1181769999999887
11
126.99147099999999
21
-104.1723700000000008
0
LINE
8
BLACK
6
CONTINUOUS
10
126.99147099999999
20
-104.1723700000000008
11
126.8957999999999942
21
-104.1914000000000016
0
LINE
8
BLACK
6
CONTINUOUS
10
126.8957999999999942
20
-104.1914000000000016
11
125.6457999999999942
21
-104.1914000000000016
0
LINE
8
BLACK
6
CONTINUOUS
10
125.6457999999999942
20
-104.1914000000000016
11
125.5501289999999983
21
-104.1723700000000008
0
LINE
8
BLACK
6
CONTINUOUS
10
125.5501289999999983
20
-104.1723700000000008
11
125.4690229999999929
21
-104.1181769999999887
0
LINE
8
BLACK
6
CONTINUOUS
10
125.4690229999999929
20
-104.1181769999999887
11
125.4148299999999949
21
-104.0370709999999974
0
LINE
8
BLACK
6
CONTINUOUS
10
125.4148299999999949
20
-104.0370709999999974
11
125.3957999999999942
21
-103.9414000000000016
0
LINE
8
BLACK
6
CONTINUOUS
10
125.3957999999999942
20
-103.9414000000000016
11
125.3957999999999942
21
-103.1413999999999902
0
LINE
8
BLACK
6
CONTINUOUS
10
125.3957999999999942
20
-103.1413999999999902
11
125.4148299999999949
21
-103.0457289999999944
0
LINE
8
BLACK
6
CONTINUOUS
10
125.4148299999999949
20
-103.0457289999999944
11
125.4690229999999929
21
-102.9646229999999889
0
LINE
8
BLACK
6
CONTINUOUS
10
125.4690229999999929
20
-102.9646229999999889
11
125.5501289999999983
21
-102.910429999999991
0
LINE
8
BLACK
6
CONTINUOUS
10
125.5501289999999983
20
-102.910429999999991
11
125.6457999999999942
21
-102.8913999999999902
0
LINE
8
BLACK
6
CONTINUOUS
10
125.6457999999999942
20
-102.8913999999999902
11
126.8957999999999942
21
-102.8913999999999902
0
LINE
8
BLACK
6
CONTINUOUS
10
126.8957999999999942
20
-102.8913999999999902
11
126.99147099999999
21
-102.910429999999991
0
LINE
8
BLACK
6
CONTINUOUS
10
114.1566709999999887
20
-100.4745300000000015
11
114.2377769999999941
21
-100.5287229999999994
0
LINE
8
BLACK
6
CONTINUOUS
10
114.2377769999999941
20
-100.5287229999999994
11
114.2919699999999921
21
-100.6098289999999906
0
LINE
8
BLACK
6
CONTINUOUS
10
114.2919699999999921
20
-100.6098289999999906
11
114.3109999999999928
21
-100.7055000000000007
0
LINE
8
BLACK
6
CONTINUOUS
10
114.3109999999999928
20
-100.7055000000000007
11
114.3109999999999928
21
-101.5304999999999893
0
LINE
8
BLACK
6
CONTINUOUS
10
114.3109999999999928
20
-101.5304999999999893
11
114.2919699999999921
21
-101.6261709999999994
0
LINE
8
BLACK
6
CONTINUOUS
10
114.2919699999999921
20
-101.6261709999999994
11
114.2377769999999941
21
-101.7072769999999906
0
LINE
8
BLACK
6
CONTINUOUS
10
114.2377769999999941
20
-101.7072769999999906
11
114.1566709999999887
21
-101.7614699999999885
0
LINE
8
BLACK
6
CONTINUOUS
10
114.1566709999999887
20
-101.7614699999999885
11
114.0609999999999928
21
-101.7804999999999893
0
LINE
8
BLACK
6
CONTINUOUS
10
114.0609999999999928
20
-101.7804999999999893
11
112.7609999999999957
21
-101.7804999999999893
0
LINE
8
BLACK
6
CONTINUOUS
10
112.7609999999999957
20
-101.7804999999999893
11
112.6653289999999998
21
-101.7614699999999885
0
LINE
8
BLACK
6
CONTINUOUS
10
112.6653289999999998
20
-101.7614699999999885
11
112.5842229999999944
21
-101.7072769999999906
0
LINE
8
BLACK
6
CONTINUOUS
10
112.5842229999999944
20
-101.7072769999999906
11
112.5300299999999964
21
-101.6261709999999994
0
LINE
8
BLACK
6
CONTINUOUS
10
112.5300299999999964
20
-101.6261709999999994
11
112.5109999999999957
21
-101.5304999999999893
0
LINE
8
BLACK
6
CONTINUOUS
10
112.5109999999999957
20
-101.5304999999999893
11
112.5109999999999957
21
-100.7055000000000007
0
LINE
8
BLACK
6
CONTINUOUS
10
112.5109999999999957
20
-100.7055000000000007
11
112.5300299999999964
21
-100.6098289999999906
0
LINE
8
BLACK
6
CONTINUOUS
10
112.5300299999999964
20
-100.6098289999999906
11
112.5842229999999944
21
-100.5287229999999994
0
LINE
8
BLACK
6
CONTINUOUS
10
112.5842229999999944
20
-100.5287229999999994
11
112.6653289999999998
21
-100.4745300000000015
0
LINE
8
BLACK
6
CONTINUOUS
10
112.6653289999999998
20
-100.4745300000000015
11
112.7609999999999957
21
-100.4555000000000007
0
LINE
8
BLACK
6
CONTINUOUS
10
112.7609999999999957
20
-100.4555000000000007
11
114.0609999999999928
21
-100.4555000000000007
0
LINE
8
BLACK
6
CONTINUOUS
10
114.0609999999999928
20
-100.4555000000000007
11
114.1566709999999887
21
-100.4745300000000015
0
LINE
8
BLACK
6
CONTINUOUS
10
137.2784709999999961
20
-100.0184299999999951
11
137.3595770000000016
21
-100.072622999999993
0
LINE
8
BLACK
6
CONTINUOUS
10
137.3595770000000016
20
-100.072622999999993
11
137.4137699999999995
21
-100.1537289999999985
0
LINE
8
BLACK
6
CONTINUOUS
10
137.4137699999999995
20
-100.1537289999999985
11
137.4327999999999861
21
-100.2493999999999943
0
LINE
8
BLACK
6
CONTINUOUS
10
137.4327999999999861
20
-100.2493999999999943
11
137.4327999999999861
21
-101.0493999999999915
0
LINE
8
BLACK
6
CONTINUOUS
10
137.4327999999999861
20
-101.0493999999999915
11
137.4137699999999995
21
-101.1450710000000015
0
LINE
8
BLACK
6
CONTINUOUS
10
137.4137699999999995
20
-101.1450710000000015
11
137.3595770000000016
21
-101.2261769999999927
0
LINE
8
BLACK
6
CONTINUOUS
10
137.3595770000000016
20
-101.2261769999999927
11
137.2784709999999961
21
-101.2803699999999907
0
LINE
8
BLACK
6
CONTINUOUS
10
137.2784709999999961
20
-101.2803699999999907
11
137.1827999999999861
21
-101.2993999999999915
0
LINE
8
BLACK
6
CONTINUOUS
10
137.1827999999999861
20
-101.2993999999999915
11
135.9327999999999861
21
-101.2993999999999915
0
LINE
8
BLACK
6
CONTINUOUS
10
135.9327999999999861
20
-101.2993999999999915
11
135.8371290000000045
21
-101.2803699999999907
0
LINE
8
BLACK
6
CONTINUOUS
10
135.8371290000000045
20
-101.2803699999999907
11
135.756022999999999
21
-101.2261769999999927
0
LINE
8
BLACK
6
CONTINUOUS
10
135.756022999999999
20
-101.2261769999999927
11
135.7018300000000011
21
-101.1450710000000015
0
LINE
8
BLACK
6
CONTINUOUS
10
135.7018300000000011
20
-101.1450710000000015
11
135.6827999999999861
21
-101.0493999999999915
0
LINE
8
BLACK
6
CONTINUOUS
10
135.6827999999999861
20
-101.0493999999999915
11
135.6827999999999861
21
-100.2493999999999943
0
LINE
8
BLACK
6
CONTINUOUS
10
135.6827999999999861
20
-100.2493999999999943
11
135.7018300000000011
21
-100.1537289999999985
0
LINE
8
BLACK
6
CONTINUOUS
10
135.7018300000000011
20
-100.1537289999999985
11
135.756022999999999
21
-100.072622999999993
0
LINE
8
BLACK
6
CONTINUOUS
10
135.756022999999999
20
-100.072622999999993
11
135.8371290000000045
21
-100.0184299999999951
0
LINE
8
BLACK
6
CONTINUOUS
10
135.8371290000000045
20
-100.0184299999999951
11
135.9327999999999861
21
-99.9993999999999943
0
LINE
8
BLACK
6
CONTINUOUS
10
135.9327999999999861
20
-99.9993999999999943
11
137.1827999999999861
21
-99.9993999999999943
0
LINE
8
BLACK
6
CONTINUOUS
10
137.1827999999999861
20
-99.9993999999999943
11
137.2784709999999961
21
-100.0184299999999951
0
LINE
8
BLACK
6
CONTINUOUS
10
126.99147099999999
20
-99.8104299999999967
11
127.0725769999999955
21
-99.8646229999999946
0
LINE
8
BLACK
6
CONTINUOUS
10
127.0725769999999955
20
-99.8646229999999946
11
127.1267699999999934
21
-99.945729
0
LINE
8
BLACK
6
CONTINUOUS
10
127.1267699999999934
20
-99.945729
11
127.1457999999999942
21
-100.0413999999999959
0
LINE
8
BLACK
6
CONTINUOUS
10
127.1457999999999942
20
-100.0413999999999959
11
127.1457999999999942
21
-100.841399999999993
0
LINE
8
BLACK
6
CONTINUOUS
10
127.1457999999999942
20
-100.841399999999993
11
127.1267699999999934
21
-100.9370709999999889
0
LINE
8
BLACK
6
CONTINUOUS
10
127.1267699999999934
20
-100.9370709999999889
11
127.0725769999999955
21
-101.0181769999999943
0
LINE
8
BLACK
6
CONTINUOUS
10
127.0725769999999955
20
-101.0181769999999943
11
126.99147099999999
21
-101.0723699999999923
0
LINE
8
BLACK
6
CONTINUOUS
10
126.99147099999999
20
-101.0723699999999923
11
126.8957999999999942
21
-101.091399999999993
0
LINE
8
BLACK
6
CONTINUOUS
10
126.8957999999999942
20
-101.091399999999993
11
125.6457999999999942
21
-101.091399999999993
0
LINE
8
BLACK
6
CONTINUOUS
10
125.6457999999999942
20
-101.091399999999993
11
125.5501289999999983
21
-101.0723699999999923
0
LINE
8
BLACK
6
CONTINUOUS
10
125.5501289999999983
20
-101.0723699999999923
11
125.4690229999999929
21
-101.0181769999999943
0
LINE
8
BLACK
6
CONTINUOUS
10
125.4690229999999929
20
-101.0181769999999943
11
125.4148299999999949
21
-100.9370709999999889
0
LINE
8
BLACK
6
CONTINUOUS
10
125.4148299999999949
20
-100.9370709999999889
11
125.3957999999999942
21
-100.841399999999993
0
LINE
8
BLACK
6
CONTINUOUS
10
125.3957999999999942
20
-100.841399999999993
11
125.3957999999999942
21
-100.0413999999999959
0
LINE
8
BLACK
6
CONTINUOUS
10
125.3957999999999942
20
-100.0413999999999959
11
125.4148299999999949
21
-99.945729
0
LINE
8
BLACK
6
CONTINUOUS
10
125.4148299999999949
20
-99.945729
11
125.4690229999999929
21
-99.8646229999999946
0
LINE
8
BLACK
6
CONTINUOUS
10
125.4690229999999929
20
-99.8646229999999946
11
125.5501289999999983
21
-99.8104299999999967
0
LINE
8
BLACK
6
CONTINUOUS
10
125.5501289999999983
20
-99.8104299999999967
11
125.6457999999999942
21
-99.7913999999999959
0
LINE
8
BLACK
6
CONTINUOUS
10
125.6457999999999942
20
-99.7913999999999959
11
126.8957999999999942
21
-99.7913999999999959
0
LINE
8
BLACK
6
CONTINUOUS
10
126.8957999999999942
20
-99.7913999999999959
11
126.99147099999999
21
-99.8104299999999967
0
LINE
8
BLACK
6
CONTINUOUS
10
114.1566709999999887
20
-97.3495300000000015
11
114.2377769999999941
21
-97.4037229999999994
0
LINE
8
BLACK
6
CONTINUOUS
10
114.2377769999999941
20
-97.4037229999999994
11
114.2919699999999921
21
-97.4848289999999906
0
LINE
8
BLACK
6
CONTINUOUS
10
114.2919699999999921
20
-97.4848289999999906
11
114.3109999999999928
21
-97.5805000000000007
0
LINE
8
BLACK
6
CONTINUOUS
10
114.3109999999999928
20
-97.5805000000000007
11
114.3109999999999928
21
-98.4054999999999893
0
LINE
8
BLACK
6
CONTINUOUS
10
114.3109999999999928
20
-98.4054999999999893
11
114.2919699999999921
21
-98.5011709999999994
0
LINE
8
BLACK
6
CONTINUOUS
10
114.2919699999999921
20
-98.5011709999999994
11
114.2377769999999941
21
-98.5822769999999906
0
LINE
8
BLACK
6
CONTINUOUS
10
114.2377769999999941
20
-98.5822769999999906
11
114.1566709999999887
21
-98.6364699999999885
0
LINE
8
BLACK
6
CONTINUOUS
10
114.1566709999999887
20
-98.6364699999999885
11
114.0609999999999928
21
-98.6554999999999893
0
LINE
8
BLACK
6
CONTINUOUS
10
114.0609999999999928
20
-98.6554999999999893
11
112.7609999999999957
21
-98.6554999999999893
0
LINE
8
BLACK
6
CONTINUOUS
10
112.7609999999999957
20
-98.6554999999999893
11
112.6653289999999998
21
-98.6364699999999885
0
LINE
8
BLACK
6
CONTINUOUS
10
112.6653289999999998
20
-98.6364699999999885
11
112.5842229999999944
21
-98.5822769999999906
0
LINE
8
BLACK
6
CONTINUOUS
10
112.5842229999999944
20
-98.5822769999999906
11
112.5300299999999964
21
-98.5011709999999994
0
LINE
8
BLACK
6
CONTINUOUS
10
112.5300299999999964
20
-98.5011709999999994
11
112.5109999999999957
21
-98.4054999999999893
0
LINE
8
BLACK
6
CONTINUOUS
10
112.5109999999999957
20
-98.4054999999999893
11
112.5109999999999957
21
-97.5805000000000007
0
LINE
8
BLACK
6
CONTINUOUS
10
112.5109999999999957
20
-97.5805000000000007
11
112.5300299999999964
21
-97.4848289999999906
0
LINE
8
BLACK
6
CONTINUOUS
10
112.5300299999999964
20
-97.4848289999999906
11
112.5842229999999944
21
-97.4037229999999994
0
LINE
8
BLACK
6
CONTINUOUS
10
112.5842229999999944
20
-97.4037229999999994
11
112.6653289999999998
21
-97.3495300000000015
0
LINE
8
BLACK
6
CONTINUOUS
10
112.6653289999999998
20
-97.3495300000000015
11
112.7609999999999957
21
-97.3305000000000007
0
LINE
8
BLACK
6
CONTINUOUS
10
112.7609999999999957
20
-97.3305000000000007
11
114.0609999999999928
21
-97.3305000000000007
0
LINE
8
BLACK
6
CONTINUOUS
10
114.0609999999999928
20
-97.3305000000000007
11
114.1566709999999887
21
-97.3495300000000015
0
LINE
8
BLACK
6
CONTINUOUS
10
127.1134709999999899
20
-96.0420299999999969
11
127.1945769999999953
21
-96.0962229999999948
0
LINE
8
BLACK
6
CONTINUOUS
10
127.1945769999999953
20
-96.0962229999999948
11
127.2487699999999933
21
-96.1773290000000003
0
LINE
8
BLACK
6
CONTINUOUS
10
127.2487699999999933
20
-96.1773290000000003
11
127.267799999999994
21
-96.2729999999999961
0
LINE
8
BLACK
6
CONTINUOUS
10
127.267799999999994
20
-96.2729999999999961
11
127.267799999999994
21
-97.0729999999999933
0
LINE
8
BLACK
6
CONTINUOUS
10
127.267799999999994
20
-97.0729999999999933
11
127.2487699999999933
21
-97.1686709999999891
0
LINE
8
BLACK
6
CONTINUOUS
10
127.2487699999999933
20
-97.1686709999999891
11
127.1945769999999953
21
-97.2497769999999946
0
LINE
8
BLACK
6
CONTINUOUS
10
127.1945769999999953
20
-97.2497769999999946
11
127.1134709999999899
21
-97.3039699999999925
0
LINE
8
BLACK
6
CONTINUOUS
10
127.1134709999999899
20
-97.3039699999999925
11
127.017799999999994
21
-97.3229999999999933
0
LINE
8
BLACK
6
CONTINUOUS
10
127.017799999999994
20
-97.3229999999999933
11
125.767799999999994
21
-97.3229999999999933
0
LINE
8
BLACK
6
CONTINUOUS
10
125.767799999999994
20
-97.3229999999999933
11
125.6721289999999982
21
-97.3039699999999925
0
LINE
8
BLACK
6
CONTINUOUS
10
125.6721289999999982
20
-97.3039699999999925
11
125.5910229999999927
21
-97.2497769999999946
0
LINE
8
BLACK
6
CONTINUOUS
10
125.5910229999999927
20
-97.2497769999999946
11
125.5368299999999948
21
-97.1686709999999891
0
LINE
8
BLACK
6
CONTINUOUS
10
125.5368299999999948
20
-97.1686709999999891
11
125.517799999999994
21
-97.0729999999999933
0
LINE
8
BLACK
6
CONTINUOUS
10
125.517799999999994
20
-97.0729999999999933
11
125.517799999999994
21
-96.2729999999999961
0
LINE
8
BLACK
6
CONTINUOUS
10
125.517799999999994
20
-96.2729999999999961
11
125.5368299999999948
21
-96.1773290000000003
0
LINE
8
BLACK
6
CONTINUOUS
10
125.5368299999999948
20
-96.1773290000000003
11
125.5910229999999927
21
-96.0962229999999948
0
LINE
8
BLACK
6
CONTINUOUS
10
125.5910229999999927
20
-96.0962229999999948
11
125.6721289999999982
21
-96.0420299999999969
0
LINE
8
BLACK
6
CONTINUOUS
10
125.6721289999999982
20
-96.0420299999999969
11
125.767799999999994
21
-96.0229999999999961
0
LINE
8
BLACK
6
CONTINUOUS
10
125.767799999999994
20
-96.0229999999999961
11
127.017799999999994
21
-96.0229999999999961
0
LINE
8
BLACK
6
CONTINUOUS
10
127.017799999999994
20
-96.0229999999999961
11
127.1134709999999899
21
-96.0420299999999969
0
LINE
8
BLACK
6
CONTINUOUS
10
137.2784709999999961
20
-96.0420299999999969
11
137.3595770000000016
21
-96.0962229999999948
0
LINE
8
BLACK
6
CONTINUOUS
10
137.3595770000000016
20
-96.0962229999999948
11
137.4137699999999995
21
-96.1773290000000003
0
LINE
8
BLACK
6
CONTINUOUS
10
137.4137699999999995
20
-96.1773290000000003
11
137.4327999999999861
21
-96.2729999999999961
0
LINE
8
BLACK
6
CONTINUOUS
10
137.4327999999999861
20
-96.2729999999999961
11
137.4327999999999861
21
-97.0729999999999933
0
LINE
8
BLACK
6
CONTINUOUS
10
137.4327999999999861
20
-97.0729999999999933
11
137.4137699999999995
21
-97.1686709999999891
0
LINE
8
BLACK
6
CONTINUOUS
10
137.4137699999999995
20
-97.1686709999999891
11
137.3595770000000016
21
-97.2497769999999946
0
LINE
8
BLACK
6
CONTINUOUS
10
137.3595770000000016
20
-97.2497769999999946
11
137.2784709999999961
21
-97.3039699999999925
0
LINE
8
BLACK
6
CONTINUOUS
10
137.2784709999999961
20
-97.3039699999999925
11
137.1827999999999861
21
-97.3229999999999933
0
LINE
8
BLACK
6
CONTINUOUS
10
137.1827999999999861
20
-97.3229999999999933
11
135.9327999999999861
21
-97.3229999999999933
0
LINE
8
BLACK
6
CONTINUOUS
10
135.9327999999999861
20
-97.3229999999999933
11
135.8371290000000045
21
-97.3039699999999925
0
LINE
8
BLACK
6
CONTINUOUS
10
135.8371290000000045
20
-97.3039699999999925
11
135.756022999999999
21
-97.2497769999999946
0
LINE
8
BLACK
6
CONTINUOUS
10
135.756022999999999
20
-97.2497769999999946
11
135.7018300000000011
21
-97.1686709999999891
0
LINE
8
BLACK
6
CONTINUOUS
10
135.7018300000000011
20
-97.1686709999999891
11
135.6827999999999861
21
-97.0729999999999933
0
LINE
8
BLACK
6
CONTINUOUS
10
135.6827999999999861
20
-97.0729999999999933
11
135.6827999999999861
21
-96.2729999999999961
0
LINE
8
BLACK
6
CONTINUOUS
10
135.6827999999999861
20
-96.2729999999999961
11
135.7018300000000011
21
-96.1773290000000003
0
LINE
8
BLACK
6
CONTINUOUS
10
135.7018300000000011
20
-96.1773290000000003
11
135.756022999999999
21
-96.0962229999999948
0
LINE
8
BLACK
6
CONTINUOUS
10
135.756022999999999
20
-96.0962229999999948
11
135.8371290000000045
21
-96.0420299999999969
0
LINE
8
BLACK
6
CONTINUOUS
10
135.8371290000000045
20
-96.0420299999999969
11
135.9327999999999861
21
-96.0229999999999961
0
LINE
8
BLACK
6
CONTINUOUS
10
135.9327999999999861
20
-96.0229999999999961
11
137.1827999999999861
21
-96.0229999999999961
0
LINE
8
BLACK
6
CONTINUOUS
10
137.1827999999999861
20
-96.0229999999999961
11
137.2784709999999961
21
-96.0420299999999969
0
LINE
8
BLACK
6
CONTINUOUS
10
114.1566709999999887
20
-94.7720300000000009
11
114.2377769999999941
21
-94.8262229999999988
0
LINE
8
BLACK
6
CONTINUOUS
10
114.2377769999999941
20
-94.8262229999999988
11
114.2919699999999921
21
-94.9073289999999901
0
LINE
8
BLACK
6
CONTINUOUS
10
114.2919699999999921
20
-94.9073289999999901
11
114.3109999999999928
21
-95.0030000000000001
0
LINE
8
BLACK
6
CONTINUOUS
10
114.3109999999999928
20
-95.0030000000000001
11
114.3109999999999928
21
-95.8279999999999887
0
LINE
8
BLACK
6
CONTINUOUS
10
114.3109999999999928
20
-95.8279999999999887
11
114.2919699999999921
21
-95.9236709999999988
0
LINE
8
BLACK
6
CONTINUOUS
10
114.2919699999999921
20
-95.9236709999999988
11
114.2377769999999941
21
-96.00477699999999
0
LINE
8
BLACK
6
CONTINUOUS
10
114.2377769999999941
20
-96.00477699999999
11
114.1566709999999887
21
-96.0589700000000022
0
LINE
8
BLACK
6
CONTINUOUS
10
114.1566709999999887
20
-96.0589700000000022
11
114.0609999999999928
21
-96.0779999999999887
0
LINE
8
BLACK
6
CONTINUOUS
10
114.0609999999999928
20
-96.0779999999999887
11
112.7609999999999957
21
-96.0779999999999887
0
LINE
8
BLACK
6
CONTINUOUS
10
112.7609999999999957
20
-96.0779999999999887
11
112.6653289999999998
21
-96.0589700000000022
0
LINE
8
BLACK
6
CONTINUOUS
10
112.6653289999999998
20
-96.0589700000000022
11
112.5842229999999944
21
-96.00477699999999
0
LINE
8
BLACK
6
CONTINUOUS
10
112.5842229999999944
20
-96.00477699999999
11
112.5300299999999964
21
-95.9236709999999988
0
LINE
8
BLACK
6
CONTINUOUS
10
112.5300299999999964
20
-95.9236709999999988
11
112.5109999999999957
21
-95.8279999999999887
0
LINE
8
BLACK
6
CONTINUOUS
10
112.5109999999999957
20
-95.8279999999999887
11
112.5109999999999957
21
-95.0030000000000001
0
LINE
8
BLACK
6
CONTINUOUS
10
112.5109999999999957
20
-95.0030000000000001
11
112.5300299999999964
21
-94.9073289999999901
0
LINE
8
BLACK
6
CONTINUOUS
10
112.5300299999999964
20
-94.9073289999999901
11
112.5842229999999944
21
-94.8262229999999988
0
LINE
8
BLACK
6
CONTINUOUS
10
112.5842229999999944
20
-94.8262229999999988
11
112.6653289999999998
21
-94.7720300000000009
0
LINE
8
BLACK
6
CONTINUOUS
10
112.6653289999999998
20
-94.7720300000000009
11
112.7609999999999957
21
-94.7530000000000001
0
LINE
8
BLACK
6
CONTINUOUS
10
112.7609999999999957
20
-94.7530000000000001
11
114.0609999999999928
21
-94.7530000000000001
0
LINE
8
BLACK
6
CONTINUOUS
10
114.0609999999999928
20
-94.7530000000000001
11
114.1566709999999887
21
-94.7720300000000009
0
LINE
8
BLACK
6
CONTINUOUS
10
127.1134709999999899
20
-92.9420300000000026
11
127.1945769999999953
21
-92.9962230000000005
0
LINE
8
BLACK
6
CONTINUOUS
10
127.1945769999999953
20
-92.9962230000000005
11
127.2487699999999933
21
-93.0773289999999918
0
LINE
8
BLACK
6
CONTINUOUS
10
127.2487699999999933
20
-93.0773289999999918
11
127.267799999999994
21
-93.1730000000000018
0
LINE
8
BLACK
6
CONTINUOUS
10
127.267799999999994
20
-93.1730000000000018
11
127.267799999999994
21
-93.972999999999999
0
LINE
8
BLACK
6
CONTINUOUS
10
127.267799999999994
20
-93.972999999999999
11
127.2487699999999933
21
-94.0686709999999948
0
LINE
8
BLACK
6
CONTINUOUS
10
127.2487699999999933
20
-94.0686709999999948
11
127.1945769999999953
21
-94.1497770000000003
0
LINE
8
BLACK
6
CONTINUOUS
10
127.1945769999999953
20
-94.1497770000000003
11
127.1134709999999899
21
-94.2039699999999982
0
LINE
8
BLACK
6
CONTINUOUS
10
127.1134709999999899
20
-94.2039699999999982
11
127.017799999999994
21
-94.222999999999999
0
LINE
8
BLACK
6
CONTINUOUS
10
127.017799999999994
20
-94.222999999999999
11
125.767799999999994
21
-94.222999999999999
0
LINE
8
BLACK
6
CONTINUOUS
10
125.767799999999994
20
-94.222999999999999
11
125.6721289999999982
21
-94.2039699999999982
0
LINE
8
BLACK
6
CONTINUOUS
10
125.6721289999999982
20
-94.2039699999999982
11
125.5910229999999927
21
-94.1497770000000003
0
LINE
8
BLACK
6
CONTINUOUS
10
125.5910229999999927
20
-94.1497770000000003
11
125.5368299999999948
21
-94.0686709999999948
0
LINE
8
BLACK
6
CONTINUOUS
10
125.5368299999999948
20
-94.0686709999999948
11
125.517799999999994
21
-93.972999999999999
0
LINE
8
BLACK
6
CONTINUOUS
10
125.517799999999994
20
-93.972999999999999
11
125.517799999999994
21
-93.1730000000000018
0
LINE
8
BLACK
6
CONTINUOUS
10
125.517799999999994
20
-93.1730000000000018
11
125.5368299999999948
21
-93.0773289999999918
0
LINE
8
BLACK
6
CONTINUOUS
10
125.5368299999999948
20
-93.0773289999999918
11
125.5910229999999927
21
-92.9962230000000005
0
LINE
8
BLACK
6
CONTINUOUS
10
125.5910229999999927
20
-92.9962230000000005
11
125.6721289999999982
21
-92.9420300000000026
0
LINE
8
BLACK
6
CONTINUOUS
10
125.6721289999999982
20
-92.9420300000000026
11
125.767799999999994
21
-92.9230000000000018
0
LINE
8
BLACK
6
CONTINUOUS
10
125.767799999999994
20
-92.9230000000000018
11
127.017799999999994
21
-92.9230000000000018
0
LINE
8
BLACK
6
CONTINUOUS
10
127.017799999999994
20
-92.9230000000000018
11
127.1134709999999899
21
-92.9420300000000026
0
LINE
8
BLACK
6
CONTINUOUS
10
137.2784709999999961
20
-92.9420300000000026
11
137.3595770000000016
21
-92.9962230000000005
0
LINE
8
BLACK
6
CONTINUOUS
10
137.3595770000000016
20
-92.9962230000000005
11
137.4137699999999995
21
-93.0773289999999918
0
LINE
8
BLACK
6
CONTINUOUS
10
137.4137699999999995
20
-93.0773289999999918
11
137.4327999999999861
21
-93.1730000000000018
0
LINE
8
BLACK
6
CONTINUOUS
10
137.4327999999999861
20
-93.1730000000000018
11
137.4327999999999861
21
-93.972999999999999
0
LINE
8
BLACK
6
CONTINUOUS
10
137.4327999999999861
20
-93.972999999999999
11
137.4137699999999995
21
-94.0686709999999948
0
LINE
8
BLACK
6
CONTINUOUS
10
137.4137699999999995
20
-94.0686709999999948
11
137.3595770000000016
21
-94.1497770000000003
0
LINE
8
BLACK
6
CONTINUOUS
10
137.3595770000000016
20
-94.1497770000000003
11
137.2784709999999961
21
-94.2039699999999982
0
LINE
8
BLACK
6
CONTINUOUS
10
137.2784709999999961
20
-94.2039699999999982
11
137.1827999999999861
21
-94.222999999999999
0
LINE
8
BLACK
6
CONTINUOUS
10
137.1827999999999861
20
-94.222999999999999
11
135.9327999999999861
21
-94.222999999999999
0
LINE
8
BLACK
6
CONTINUOUS
10
135.9327999999999861
20
-94.222999999999999
11
135.8371290000000045
21
-94.2039699999999982
0
LINE
8
BLACK
6
CONTINUOUS
10
135.8371290000000045
20
-94.2039699999999982
11
135.756022999999999
21
-94.1497770000000003
0
LINE
8
BLACK
6
CONTINUOUS
10
135.756022999999999
20
-94.1497770000000003
11
135.7018300000000011
21
-94.0686709999999948
0
LINE
8
BLACK
6
CONTINUOUS
10
135.7018300000000011
20
-94.0686709999999948
11
135.6827999999999861
21
-93.972999999999999
0
LINE
8
BLACK
6
CONTINUOUS
10
135.6827999999999861
20
-93.972999999999999
11
135.6827999999999861
21
-93.1730000000000018
0
LINE
8
BLACK
6
CONTINUOUS
10
135.6827999999999861
20
-93.1730000000000018
11
135.7018300000000011
21
-93.0773289999999918
0
LINE
8
BLACK
6
CONTINUOUS
10
135.7018300000000011
20
-93.0773289999999918
11
135.756022999999999
21
-92.9962230000000005
0
LINE
8
BLACK
6
CONTINUOUS
10
135.756022999999999
20
-92.9962230000000005
11
135.8371290000000045
21
-92.9420300000000026
0
LINE
8
BLACK
6
CONTINUOUS
10
135.8371290000000045
20
-92.9420300000000026
11
135.9327999999999861
21
-92.9230000000000018
0
LINE
8
BLACK
6
CONTINUOUS
10
135.9327999999999861
20
-92.9230000000000018
11
137.1827999999999861
21
-92.9230000000000018
0
LINE
8
BLACK
6
CONTINUOUS
10
137.1827999999999861
20
-92.9230000000000018
11
137.2784709999999961
21
-92.9420300000000026
0
LINE
8
BLACK
6
CONTINUOUS
10
114.1566709999999887
20
-91.6470300000000009
11
114.2377769999999941
21
-91.7012229999999988
0
LINE
8
BLACK
6
CONTINUOUS
10
114.2377769999999941
20
-91.7012229999999988
11
114.2919699999999921
21
-91.7823289999999901
0
LINE
8
BLACK
6
CONTINUOUS
10
114.2919699999999921
20
-91.7823289999999901
11
114.3109999999999928
21
-91.8780000000000001
0
LINE
8
BLACK
6
CONTINUOUS
10
114.3109999999999928
20
-91.8780000000000001
11
114.3109999999999928
21
-92.7029999999999887
0
LINE
8
BLACK
6
CONTINUOUS
10
114.3109999999999928
20
-92.7029999999999887
11
114.2919699999999921
21
-92.7986709999999988
0
LINE
8
BLACK
6
CONTINUOUS
10
114.2919699999999921
20
-92.7986709999999988
11
114.2377769999999941
21
-92.87977699999999
0
LINE
8
BLACK
6
CONTINUOUS
10
114.2377769999999941
20
-92.87977699999999
11
114.1566709999999887
21
-92.9339700000000022
0
LINE
8
BLACK
6
CONTINUOUS
10
114.1566709999999887
20
-92.9339700000000022
11
114.0609999999999928
21
-92.9529999999999887
0
LINE
8
BLACK
6
CONTINUOUS
10
114.0609999999999928
20
-92.9529999999999887
11
112.7609999999999957
21
-92.9529999999999887
0
LINE
8
BLACK
6
CONTINUOUS
10
112.7609999999999957
20
-92.9529999999999887
11
112.6653289999999998
21
-92.9339700000000022
0
LINE
8
BLACK
6
CONTINUOUS
10
112.6653289999999998
20
-92.9339700000000022
11
112.5842229999999944
21
-92.87977699999999
0
LINE
8
BLACK
6
CONTINUOUS
10
112.5842229999999944
20
-92.87977699999999
11
112.5300299999999964
21
-92.7986709999999988
0
LINE
8
BLACK
6
CONTINUOUS
10
112.5300299999999964
20
-92.7986709999999988
11
112.5109999999999957
21
-92.7029999999999887
0
LINE
8
BLACK
6
CONTINUOUS
10
112.5109999999999957
20
-92.7029999999999887
11
112.5109999999999957
21
-91.8780000000000001
0
LINE
8
BLACK
6
CONTINUOUS
10
112.5109999999999957
20
-91.8780000000000001
11
112.5300299999999964
21
-91.7823289999999901
0
LINE
8
BLACK
6
CONTINUOUS
10
112.5300299999999964
20
-91.7823289999999901
11
112.5842229999999944
21
-91.7012229999999988
0
LINE
8
BLACK
6
CONTINUOUS
10
112.5842229999999944
20
-91.7012229999999988
11
112.6653289999999998
21
-91.6470300000000009
0
LINE
8
BLACK
6
CONTINUOUS
10
112.6653289999999998
20
-91.6470300000000009
11
112.7609999999999957
21
-91.6280000000000001
0
LINE
8
BLACK
6
CONTINUOUS
10
112.7609999999999957
20
-91.6280000000000001
11
114.0609999999999928
21
-91.6280000000000001
0
LINE
8
BLACK
6
CONTINUOUS
10
114.0609999999999928
20
-91.6280000000000001
11
114.1566709999999887
21
-91.6470300000000009
0
LINE
8
BLACK
6
CONTINUOUS
10
69.0496710000000036
20
-76.3350300000000033
11
69.1307769999999948
21
-76.3892230000000012
0
LINE
8
BLACK
6
CONTINUOUS
10
69.1307769999999948
20
-76.3892230000000012
11
69.1849699999999928
21
-76.4703289999999924
0
LINE
8
BLACK
6
CONTINUOUS
10
69.1849699999999928
20
-76.4703289999999924
11
69.2039999999999935
21
-76.5660000000000025
0
LINE
8
BLACK
6
CONTINUOUS
10
69.2039999999999935
20
-76.5660000000000025
11
69.2039999999999935
21
-77.8659999999999997
0
LINE
8
BLACK
6
CONTINUOUS
10
69.2039999999999935
20
-77.8659999999999997
11
69.1849699999999928
21
-77.9616709999999955
0
LINE
8
BLACK
6
CONTINUOUS
10
69.1849699999999928
20
-77.9616709999999955
11
69.1307769999999948
21
-78.042777000000001
0
LINE
8
BLACK
6
CONTINUOUS
10
69.1307769999999948
20
-78.042777000000001
11
69.0496710000000036
21
-78.0969699999999989
0
LINE
8
BLACK
6
CONTINUOUS
10
69.0496710000000036
20
-78.0969699999999989
11
68.9539999999999935
21
-78.1159999999999997
0
LINE
8
BLACK
6
CONTINUOUS
10
68.9539999999999935
20
-78.1159999999999997
11
68.1289999999999907
21
-78.1159999999999997
0
LINE
8
BLACK
6
CONTINUOUS
10
68.1289999999999907
20
-78.1159999999999997
11
68.0333289999999948
21
-78.0969699999999989
0
LINE
8
BLACK
6
CONTINUOUS
10
68.0333289999999948
20
-78.0969699999999989
11
67.9522230000000036
21
-78.042777000000001
0
LINE
8
BLACK
6
CONTINUOUS
10
67.9522230000000036
20
-78.042777000000001
11
67.8980299999999914
21
-77.9616709999999955
0
LINE
8
BLACK
6
CONTINUOUS
10
67.8980299999999914
20
-77.9616709999999955
11
67.8789999999999907
21
-77.8659999999999997
0
LINE
8
BLACK
6
CONTINUOUS
10
67.8789999999999907
20
-77.8659999999999997
11
67.8789999999999907
21
-76.5660000000000025
0
LINE
8
BLACK
6
CONTINUOUS
10
67.8789999999999907
20
-76.5660000000000025
11
67.8980299999999914
21
-76.4703289999999924
0
LINE
8
BLACK
6
CONTINUOUS
10
67.8980299999999914
20
-76.4703289999999924
11
67.9522230000000036
21
-76.3892230000000012
0
LINE
8
BLACK
6
CONTINUOUS
10
67.9522230000000036
20
-76.3892230000000012
11
68.0333289999999948
21
-76.3350300000000033
0
LINE
8
BLACK
6
CONTINUOUS
10
68.0333289999999948
20
-76.3350300000000033
11
68.1289999999999907
21
-76.3160000000000025
0
LINE
8
BLACK
6
CONTINUOUS
10
68.1289999999999907
20
-76.3160000000000025
11
68.9539999999999935
21
-76.3160000000000025
0
LINE
8
BLACK
6
CONTINUOUS
10
68.9539999999999935
20
-76.3160000000000025
11
69.0496710000000036
21
-76.3350300000000033
0
LINE
8
BLACK
6
CONTINUOUS
10
72.1746710000000036
20
-76.3350300000000033
11
72.2557769999999948
21
-76.3892230000000012
0
LINE
8
BLACK
6
CONTINUOUS
10
72.2557769999999948
20
-76.3892230000000012
11
72.3099699999999928
21
-76.4703289999999924
0
LINE
8
BLACK
6
CONTINUOUS
10
72.3099699999999928
20
-76.4703289999999924
11
72.3289999999999935
21
-76.5660000000000025
0
LINE
8
BLACK
6
CONTINUOUS
10
72.3289999999999935
20
-76.5660000000000025
11
72.3289999999999935
21
-77.8659999999999997
0
LINE
8
BLACK
6
CONTINUOUS
10
72.3289999999999935
20
-77.8659999999999997
11
72.3099699999999928
21
-77.9616709999999955
0
LINE
8
BLACK
6
CONTINUOUS
10
72.3099699999999928
20
-77.9616709999999955
11
72.2557769999999948
21
-78.042777000000001
0
LINE
8
BLACK
6
CONTINUOUS
10
72.2557769999999948
20
-78.042777000000001
11
72.1746710000000036
21
-78.0969699999999989
0
LINE
8
BLACK
6
CONTINUOUS
10
72.1746710000000036
20
-78.0969699999999989
11
72.0789999999999935
21
-78.1159999999999997
0
LINE
8
BLACK
6
CONTINUOUS
10
72.0789999999999935
20
-78.1159999999999997
11
71.2539999999999907
21
-78.1159999999999997
0
LINE
8
BLACK
6
CONTINUOUS
10
71.2539999999999907
20
-78.1159999999999997
11
71.1583289999999948
21
-78.0969699999999989
0
LINE
8
BLACK
6
CONTINUOUS
10
71.1583289999999948
20
-78.0969699999999989
11
71.0772230000000036
21
-78.042777000000001
0
LINE
8
BLACK
6
CONTINUOUS
10
71.0772230000000036
20
-78.042777000000001
11
71.0230299999999914
21
-77.9616709999999955
0
LINE
8
BLACK
6
CONTINUOUS
10
71.0230299999999914
20
-77.9616709999999955
11
71.0039999999999907
21
-77.8659999999999997
0
LINE
8
BLACK
6
CONTINUOUS
10
71.0039999999999907
20
-77.8659999999999997
11
71.0039999999999907
21
-76.5660000000000025
0
LINE
8
BLACK
6
CONTINUOUS
10
71.0039999999999907
20
-76.5660000000000025
11
71.0230299999999914
21
-76.4703289999999924
0
LINE
8
BLACK
6
CONTINUOUS
10
71.0230299999999914
20
-76.4703289999999924
11
71.0772230000000036
21
-76.3892230000000012
0
LINE
8
BLACK
6
CONTINUOUS
10
71.0772230000000036
20
-76.3892230000000012
11
71.1583289999999948
21
-76.3350300000000033
0
LINE
8
BLACK
6
CONTINUOUS
10
71.1583289999999948
20
-76.3350300000000033
11
71.2539999999999907
21
-76.3160000000000025
0
LINE
8
BLACK
6
CONTINUOUS
10
71.2539999999999907
20
-76.3160000000000025
11
72.0789999999999935
21
-76.3160000000000025
0
LINE
8
BLACK
6
CONTINUOUS
10
72.0789999999999935
20
-76.3160000000000025
11
72.1746710000000036
21
-76.3350300000000033
0
LINE
8
BLACK
6
CONTINUOUS
10
83.6546709999999933
20
-76.3350300000000033
11
83.7357769999999988
21
-76.3892230000000012
0
LINE
8
BLACK
6
CONTINUOUS
10
83.7357769999999988
20
-76.3892230000000012
11
83.7899699999999967
21
-76.4703289999999924
0
LINE
8
BLACK
6
CONTINUOUS
10
83.7899699999999967
20
-76.4703289999999924
11
83.8089999999999975
21
-76.5660000000000025
0
LINE
8
BLACK
6
CONTINUOUS
10
83.8089999999999975
20
-76.5660000000000025
11
83.8089999999999975
21
-77.8659999999999997
0
LINE
8
BLACK
6
CONTINUOUS
10
83.8089999999999975
20
-77.8659999999999997
11
83.7899699999999967
21
-77.9616709999999955
0
LINE
8
BLACK
6
CONTINUOUS
10
83.7899699999999967
20
-77.9616709999999955
11
83.7357769999999988
21
-78.042777000000001
0
LINE
8
BLACK
6
CONTINUOUS
10
83.7357769999999988
20
-78.042777000000001
11
83.6546709999999933
21
-78.0969699999999989
0
LINE
8
BLACK
6
CONTINUOUS
10
83.6546709999999933
20
-78.0969699999999989
11
83.5589999999999975
21
-78.1159999999999997
0
LINE
8
BLACK
6
CONTINUOUS
10
83.5589999999999975
20
-78.1159999999999997
11
82.7339999999999947
21
-78.1159999999999997
0
LINE
8
BLACK
6
CONTINUOUS
10
82.7339999999999947
20
-78.1159999999999997
11
82.6383289999999988
21
-78.0969699999999989
0
LINE
8
BLACK
6
CONTINUOUS
10
82.6383289999999988
20
-78.0969699999999989
11
82.5572229999999934
21
-78.042777000000001
0
LINE
8
BLACK
6
CONTINUOUS
10
82.5572229999999934
20
-78.042777000000001
11
82.5030299999999954
21
-77.9616709999999955
0
LINE
8
BLACK
6
CONTINUOUS
10
82.5030299999999954
20
-77.9616709999999955
11
82.4839999999999947
21
-77.8659999999999997
0
LINE
8
BLACK
6
CONTINUOUS
10
82.4839999999999947
20
-77.8659999999999997
11
82.4839999999999947
21
-76.5660000000000025
0
LINE
8
BLACK
6
CONTINUOUS
10
82.4839999999999947
20
-76.5660000000000025
11
82.5030299999999954
21
-76.4703289999999924
0
LINE
8
BLACK
6
CONTINUOUS
10
82.5030299999999954
20
-76.4703289999999924
11
82.5572229999999934
21
-76.3892230000000012
0
LINE
8
BLACK
6
CONTINUOUS
10
82.5572229999999934
20
-76.3892230000000012
11
82.6383289999999988
21
-76.3350300000000033
0
LINE
8
BLACK
6
CONTINUOUS
10
82.6383289999999988
20
-76.3350300000000033
11
82.7339999999999947
21
-76.3160000000000025
0
LINE
8
BLACK
6
CONTINUOUS
10
82.7339999999999947
20
-76.3160000000000025
11
83.5589999999999975
21
-76.3160000000000025
0
LINE
8
BLACK
6
CONTINUOUS
10
83.5589999999999975
20
-76.3160000000000025
11
83.6546709999999933
21
-76.3350300000000033
0
LINE
8
BLACK
6
CONTINUOUS
10
86.7796709999999933
20
-76.3350300000000033
11
86.8607769999999988
21
-76.3892230000000012
0
LINE
8
BLACK
6
CONTINUOUS
10
86.8607769999999988
20
-76.3892230000000012
11
86.9149699999999967
21
-76.4703289999999924
0
LINE
8
BLACK
6
CONTINUOUS
10
86.9149699999999967
20
-76.4703289999999924
11
86.9339999999999975
21
-76.5660000000000025
0
LINE
8
BLACK
6
CONTINUOUS
10
86.9339999999999975
20
-76.5660000000000025
11
86.9339999999999975
21
-77.8659999999999997
0
LINE
8
BLACK
6
CONTINUOUS
10
86.9339999999999975
20
-77.8659999999999997
11
86.9149699999999967
21
-77.9616709999999955
0
LINE
8
BLACK
6
CONTINUOUS
10
86.9149699999999967
20
-77.9616709999999955
11
86.8607769999999988
21
-78.042777000000001
0
LINE
8
BLACK
6
CONTINUOUS
10
86.8607769999999988
20
-78.042777000000001
11
86.7796709999999933
21
-78.0969699999999989
0
LINE
8
BLACK
6
CONTINUOUS
10
86.7796709999999933
20
-78.0969699999999989
11
86.6839999999999975
21
-78.1159999999999997
0
LINE
8
BLACK
6
CONTINUOUS
10
86.6839999999999975
20
-78.1159999999999997
11
85.8589999999999947
21
-78.1159999999999997
0
LINE
8
BLACK
6
CONTINUOUS
10
85.8589999999999947
20
-78.1159999999999997
11
85.7633289999999988
21
-78.0969699999999989
0
LINE
8
BLACK
6
CONTINUOUS
10
85.7633289999999988
20
-78.0969699999999989
11
85.6822229999999934
21
-78.042777000000001
0
LINE
8
BLACK
6
CONTINUOUS
10
85.6822229999999934
20
-78.042777000000001
11
85.6280299999999954
21
-77.9616709999999955
0
LINE
8
BLACK
6
CONTINUOUS
10
85.6280299999999954
20
-77.9616709999999955
11
85.6089999999999947
21
-77.8659999999999997
0
LINE
8
BLACK
6
CONTINUOUS
10
85.6089999999999947
20
-77.8659999999999997
11
85.6089999999999947
21
-76.5660000000000025
0
LINE
8
BLACK
6
CONTINUOUS
10
85.6089999999999947
20
-76.5660000000000025
11
85.6280299999999954
21
-76.4703289999999924
0
LINE
8
BLACK
6
CONTINUOUS
10
85.6280299999999954
20
-76.4703289999999924
11
85.6822229999999934
21
-76.3892230000000012
0
LINE
8
BLACK
6
CONTINUOUS
10
85.6822229999999934
20
-76.3892230000000012
11
85.7633289999999988
21
-76.3350300000000033
0
LINE
8
BLACK
6
CONTINUOUS
10
85.7633289999999988
20
-76.3350300000000033
11
85.8589999999999947
21
-76.3160000000000025
0
LINE
8
BLACK
6
CONTINUOUS
10
85.8589999999999947
20
-76.3160000000000025
11
86.6839999999999975
21
-76.3160000000000025
0
LINE
8
BLACK
6
CONTINUOUS
10
86.6839999999999975
20
-76.3160000000000025
11
86.7796709999999933
21
-76.3350300000000033
0
LINE
8
BLACK
6
CONTINUOUS
10
129.7556710000000066
20
-76.3350300000000033
11
129.8367769999999837
21
-76.3892230000000012
0
LINE
8
BLACK
6
CONTINUOUS
10
129.8367769999999837
20
-76.3892230000000012
11
129.8909699999999816
21
-76.4703289999999924
0
LINE
8
BLACK
6
CONTINUOUS
10
129.8909699999999816
20
-76.4703289999999924
11
129.9099999999999966
21
-76.5660000000000025
0
LINE
8
BLACK
6
CONTINUOUS
10
129.9099999999999966
20
-76.5660000000000025
11
129.9099999999999966
21
-77.8659999999999997
0
LINE
8
BLACK
6
CONTINUOUS
10
129.9099999999999966
20
-77.8659999999999997
11
129.8909699999999816
21
-77.9616709999999955
0
LINE
8
BLACK
6
CONTINUOUS
10
129.8909699999999816
20
-77.9616709999999955
11
129.8367769999999837
21
-78.042777000000001
0
LINE
8
BLACK
6
CONTINUOUS
10
129.8367769999999837
20
-78.042777000000001
11
129.7556710000000066
21
-78.0969699999999989
0
LINE
8
BLACK
6
CONTINUOUS
10
129.7556710000000066
20
-78.0969699999999989
11
129.6599999999999966
21
-78.1159999999999997
0
LINE
8
BLACK
6
CONTINUOUS
10
129.6599999999999966
20
-78.1159999999999997
11
128.835000000000008
21
-78.1159999999999997
0
LINE
8
BLACK
6
CONTINUOUS
10
128.835000000000008
20
-78.1159999999999997
11
128.7393289999999979
21
-78.0969699999999989
0
LINE
8
BLACK
6
CONTINUOUS
10
128.7393289999999979
20
-78.0969699999999989
11
128.6582229999999925
21
-78.042777000000001
0
LINE
8
BLACK
6
CONTINUOUS
10
128.6582229999999925
20
-78.042777000000001
11
128.6040299999999945
21
-77.9616709999999955
0
LINE
8
BLACK
6
CONTINUOUS
10
128.6040299999999945
20
-77.9616709999999955
11
128.585000000000008
21
-77.8659999999999997
0
LINE
8
BLACK
6
CONTINUOUS
10
128.585000000000008
20
-77.8659999999999997
11
128.585000000000008
21
-76.5660000000000025
0
LINE
8
BLACK
6
CONTINUOUS
10
128.585000000000008
20
-76.5660000000000025
11
128.6040299999999945
21
-76.4703289999999924
0
LINE
8
BLACK
6
CONTINUOUS
10
128.6040299999999945
20
-76.4703289999999924
11
128.6582229999999925
21
-76.3892230000000012
0
LINE
8
BLACK
6
CONTINUOUS
10
128.6582229999999925
20
-76.3892230000000012
11
128.7393289999999979
21
-76.3350300000000033
0
LINE
8
BLACK
6
CONTINUOUS
10
128.7393289999999979
20
-76.3350300000000033
11
128.835000000000008
21
-76.3160000000000025
0
LINE
8
BLACK
6
CONTINUOUS
10
128.835000000000008
20
-76.3160000000000025
11
129.6599999999999966
21
-76.3160000000000025
0
LINE
8
BLACK
6
CONTINUOUS
10
129.6599999999999966
20
-76.3160000000000025
11
129.7556710000000066
21
-76.3350300000000033
0
LINE
8
BLACK
6
CONTINUOUS
10
132.8806710000000066
20
-76.3350300000000033
11
132.9617769999999837
21
-76.3892230000000012
0
LINE
8
BLACK
6
CONTINUOUS
10
132.9617769999999837
20
-76.3892230000000012
11
133.0159699999999816
21
-76.4703289999999924
0
LINE
8
BLACK
6
CONTINUOUS
10
133.0159699999999816
20
-76.4703289999999924
11
133.0349999999999966
21
-76.5660000000000025
0
LINE
8
BLACK
6
CONTINUOUS
10
133.0349999999999966
20
-76.5660000000000025
11
133.0349999999999966
21
-77.8659999999999997
0
LINE
8
BLACK
6
CONTINUOUS
10
133.0349999999999966
20
-77.8659999999999997
11
133.0159699999999816
21
-77.9616709999999955
0
LINE
8
BLACK
6
CONTINUOUS
10
133.0159699999999816
20
-77.9616709999999955
11
132.9617769999999837
21
-78.042777000000001
0
LINE
8
BLACK
6
CONTINUOUS
10
132.9617769999999837
20
-78.042777000000001
11
132.8806710000000066
21
-78.0969699999999989
0
LINE
8
BLACK
6
CONTINUOUS
10
132.8806710000000066
20
-78.0969699999999989
11
132.7849999999999966
21
-78.1159999999999997
0
LINE
8
BLACK
6
CONTINUOUS
10
132.7849999999999966
20
-78.1159999999999997
11
131.960000000000008
21
-78.1159999999999997
0
LINE
8
BLACK
6
CONTINUOUS
10
131.960000000000008
20
-78.1159999999999997
11
131.8643289999999979
21
-78.0969699999999989
0
LINE
8
BLACK
6
CONTINUOUS
10
131.8643289999999979
20
-78.0969699999999989
11
131.7832229999999925
21
-78.042777000000001
0
LINE
8
BLACK
6
CONTINUOUS
10
131.7832229999999925
20
-78.042777000000001
11
131.7290299999999945
21
-77.9616709999999955
0
LINE
8
BLACK
6
CONTINUOUS
10
131.7290299999999945
20
-77.9616709999999955
11
131.710000000000008
21
-77.8659999999999997
0
LINE
8
BLACK
6
CONTINUOUS
10
131.710000000000008
20
-77.8659999999999997
11
131.710000000000008
21
-76.5660000000000025
0
LINE
8
BLACK
6
CONTINUOUS
10
131.710000000000008
20
-76.5660000000000025
11
131.7290299999999945
21
-76.4703289999999924
0
LINE
8
BLACK
6
CONTINUOUS
10
131.7290299999999945
20
-76.4703289999999924
11
131.7832229999999925
21
-76.3892230000000012
0
LINE
8
BLACK
6
CONTINUOUS
10
131.7832229999999925
20
-76.3892230000000012
11
131.8643289999999979
21
-76.3350300000000033
0
LINE
8
BLACK
6
CONTINUOUS
10
131.8643289999999979
20
-76.3350300000000033
11
131.960000000000008
21
-76.3160000000000025
0
LINE
8
BLACK
6
CONTINUOUS
10
131.960000000000008
20
-76.3160000000000025
11
132.7849999999999966
21
-76.3160000000000025
0
LINE
8
BLACK
6
CONTINUOUS
10
132.7849999999999966
20
-76.3160000000000025
11
132.8806710000000066
21
-76.3350300000000033
0
LINE
8
BLACK
6
CONTINUOUS
10
144.3606709999999964
20
-76.3350300000000033
11
144.4417770000000019
21
-76.3892230000000012
0
LINE
8
BLACK
6
CONTINUOUS
10
144.4417770000000019
20
-76.3892230000000012
11
144.4959699999999998
21
-76.4703289999999924
0
LINE
8
BLACK
6
CONTINUOUS
10
144.4959699999999998
20
-76.4703289999999924
11
144.5149999999999864
21
-76.5660000000000025
0
LINE
8
BLACK
6
CONTINUOUS
10
144.5149999999999864
20
-76.5660000000000025
11
144.5149999999999864
21
-77.8659999999999997
0
LINE
8
BLACK
6
CONTINUOUS
10
144.5149999999999864
20
-77.8659999999999997
11
144.4959699999999998
21
-77.9616709999999955
0
LINE
8
BLACK
6
CONTINUOUS
10
144.4959699999999998
20
-77.9616709999999955
11
144.4417770000000019
21
-78.042777000000001
0
LINE
8
BLACK
6
CONTINUOUS
10
144.4417770000000019
20
-78.042777000000001
11
144.3606709999999964
21
-78.0969699999999989
0
LINE
8
BLACK
6
CONTINUOUS
10
144.3606709999999964
20
-78.0969699999999989
11
144.2649999999999864
21
-78.1159999999999997
0
LINE
8
BLACK
6
CONTINUOUS
10
144.2649999999999864
20
-78.1159999999999997
11
143.4399999999999977
21
-78.1159999999999997
0
LINE
8
BLACK
6
CONTINUOUS
10
143.4399999999999977
20
-78.1159999999999997
11
143.3443289999999877
21
-78.0969699999999989
0
LINE
8
BLACK
6
CONTINUOUS
10
143.3443289999999877
20
-78.0969699999999989
11
143.2632229999999822
21
-78.042777000000001
0
LINE
8
BLACK
6
CONTINUOUS
10
143.2632229999999822
20
-78.042777000000001
11
143.2090299999999843
21
-77.9616709999999955
0
LINE
8
BLACK
6
CONTINUOUS
10
143.2090299999999843
20
-77.9616709999999955
11
143.1899999999999977
21
-77.8659999999999997
0
LINE
8
BLACK
6
CONTINUOUS
10
143.1899999999999977
20
-77.8659999999999997
11
143.1899999999999977
21
-76.5660000000000025
0
LINE
8
BLACK
6
CONTINUOUS
10
143.1899999999999977
20
-76.5660000000000025
11
143.2090299999999843
21
-76.4703289999999924
0
LINE
8
BLACK
6
CONTINUOUS
10
143.2090299999999843
20
-76.4703289999999924
11
143.2632229999999822
21
-76.3892230000000012
0
LINE
8
BLACK
6
CONTINUOUS
10
143.2632229999999822
20
-76.3892230000000012
11
143.3443289999999877
21
-76.3350300000000033
0
LINE
8
BLACK
6
CONTINUOUS
10
143.3443289999999877
20
-76.3350300000000033
11
143.4399999999999977
21
-76.3160000000000025
0
LINE
8
BLACK
6
CONTINUOUS
10
143.4399999999999977
20
-76.3160000000000025
11
144.2649999999999864
21
-76.3160000000000025
0
LINE
8
BLACK
6
CONTINUOUS
10
144.2649999999999864
20
-76.3160000000000025
11
144.3606709999999964
21
-76.3350300000000033
0
LINE
8
BLACK
6
CONTINUOUS
10
147.4856709999999964
20
-76.3350300000000033
11
147.5667770000000019
21
-76.3892230000000012
0
LINE
8
BLACK
6
CONTINUOUS
10
147.5667770000000019
20
-76.3892230000000012
11
147.6209699999999998
21
-76.4703289999999924
0
LINE
8
BLACK
6
CONTINUOUS
10
147.6209699999999998
20
-76.4703289999999924
11
147.6399999999999864
21
-76.5660000000000025
0
LINE
8
BLACK
6
CONTINUOUS
10
147.6399999999999864
20
-76.5660000000000025
11
147.6399999999999864
21
-77.8659999999999997
0
LINE
8
BLACK
6
CONTINUOUS
10
147.6399999999999864
20
-77.8659999999999997
11
147.6209699999999998
21
-77.9616709999999955
0
LINE
8
BLACK
6
CONTINUOUS
10
147.6209699999999998
20
-77.9616709999999955
11
147.5667770000000019
21
-78.042777000000001
0
LINE
8
BLACK
6
CONTINUOUS
10
147.5667770000000019
20
-78.042777000000001
11
147.4856709999999964
21
-78.0969699999999989
0
LINE
8
BLACK
6
CONTINUOUS
10
147.4856709999999964
20
-78.0969699999999989
11
147.3899999999999864
21
-78.1159999999999997
0
LINE
8
BLACK
6
CONTINUOUS
10
147.3899999999999864
20
-78.1159999999999997
11
146.5649999999999977
21
-78.1159999999999997
0
LINE
8
BLACK
6
CONTINUOUS
10
146.5649999999999977
20
-78.1159999999999997
11
146.4693289999999877
21
-78.0969699999999989
0
LINE
8
BLACK
6
CONTINUOUS
10
146.4693289999999877
20
-78.0969699999999989
11
146.3882229999999822
21
-78.042777000000001
0
LINE
8
BLACK
6
CONTINUOUS
10
146.3882229999999822
20
-78.042777000000001
11
146.3340299999999843
21
-77.9616709999999955
0
LINE
8
BLACK
6
CONTINUOUS
10
146.3340299999999843
20
-77.9616709999999955
11
146.3149999999999977
21
-77.8659999999999997
0
LINE
8
BLACK
6
CONTINUOUS
10
146.3149999999999977
20
-77.8659999999999997
11
146.3149999999999977
21
-76.5660000000000025
0
LINE
8
BLACK
6
CONTINUOUS
10
146.3149999999999977
20
-76.5660000000000025
11
146.3340299999999843
21
-76.4703289999999924
0
LINE
8
BLACK
6
CONTINUOUS
10
146.3340299999999843
20
-76.4703289999999924
11
146.3882229999999822
21
-76.3892230000000012
0
LINE
8
BLACK
6
CONTINUOUS
10
146.3882229999999822
20
-76.3892230000000012
11
146.4693289999999877
21
-76.3350300000000033
0
LINE
8
BLACK
6
CONTINUOUS
10
146.4693289999999877
20
-76.3350300000000033
11
146.5649999999999977
21
-76.3160000000000025
0
LINE
8
BLACK
6
CONTINUOUS
10
146.5649999999999977
20
-76.3160000000000025
11
147.3899999999999864
21
-76.3160000000000025
0
LINE
8
BLACK
6
CONTINUOUS
10
147.3899999999999864
20
-76.3160000000000025
11
147.4856709999999964
21
-76.3350300000000033
0
LINE
8
BLACK
6
CONTINUOUS
10
65.6589999999999918
20
-75.7809000000000026
11
64.8969999999999914
21
-75.7809000000000026
0
LINE
8
BLACK
6
CONTINUOUS
10
64.8969999999999914
20
-75.7809000000000026
11
64.8969999999999914
21
-72.0724999999999909
0
LINE
8
BLACK
6
CONTINUOUS
10
64.8969999999999914
20
-72.0724999999999909
11
65.6589999999999918
21
-72.0724999999999909
0
LINE
8
BLACK
6
CONTINUOUS
10
65.6589999999999918
20
-72.0724999999999909
11
65.6589999999999918
21
-75.7809000000000026
0
LINE
8
BLACK
6
CONTINUOUS
10
66.929000000000002
20
-75.7809000000000026
11
66.1670000000000016
21
-75.7809000000000026
0
LINE
8
BLACK
6
CONTINUOUS
10
66.1670000000000016
20
-75.7809000000000026
11
66.1670000000000016
21
-72.0724999999999909
0
LINE
8
BLACK
6
CONTINUOUS
10
66.1670000000000016
20
-72.0724999999999909
11
66.929000000000002
21
-72.0724999999999909
0
LINE
8
BLACK
6
CONTINUOUS
10
66.929000000000002
20
-72.0724999999999909
11
66.929000000000002
21
-75.7809000000000026
0
LINE
8
BLACK
6
CONTINUOUS
10
68.1989999999999981
20
-75.7809000000000026
11
67.4369999999999976
21
-75.7809000000000026
0
LINE
8
BLACK
6
CONTINUOUS
10
67.4369999999999976
20
-75.7809000000000026
11
67.4369999999999976
21
-72.0724999999999909
0
LINE
8
BLACK
6
CONTINUOUS
10
67.4369999999999976
20
-72.0724999999999909
11
68.1989999999999981
21
-72.0724999999999909
0
LINE
8
BLACK
6
CONTINUOUS
10
68.1989999999999981
20
-72.0724999999999909
11
68.1989999999999981
21
-75.7809000000000026
0
LINE
8
BLACK
6
CONTINUOUS
10
69.4689999999999941
20
-75.7809000000000026
11
68.7069999999999936
21
-75.7809000000000026
0
LINE
8
BLACK
6
CONTINUOUS
10
68.7069999999999936
20
-75.7809000000000026
11
68.7069999999999936
21
-72.0724999999999909
0
LINE
8
BLACK
6
CONTINUOUS
10
68.7069999999999936
20
-72.0724999999999909
11
69.4689999999999941
21
-72.0724999999999909
0
LINE
8
BLACK
6
CONTINUOUS
10
69.4689999999999941
20
-72.0724999999999909
11
69.4689999999999941
21
-75.7809000000000026
0
LINE
8
BLACK
6
CONTINUOUS
10
70.7389999999999901
20
-75.7809000000000026
11
69.9770000000000039
21
-75.7809000000000026
0
LINE
8
BLACK
6
CONTINUOUS
10
69.9770000000000039
20
-75.7809000000000026
11
69.9770000000000039
21
-72.0724999999999909
0
LINE
8
BLACK
6
CONTINUOUS
10
69.9770000000000039
20
-72.0724999999999909
11
70.7389999999999901
21
-72.0724999999999909
0
LINE
8
BLACK
6
CONTINUOUS
10
70.7389999999999901
20
-72.0724999999999909
11
70.7389999999999901
21
-75.7809000000000026
0
LINE
8
BLACK
6
CONTINUOUS
10
72.0090000000000003
20
-75.7809000000000026
11
71.2469999999999999
21
-75.7809000000000026
0
LINE
8
BLACK
6
CONTINUOUS
10
71.2469999999999999
20
-75.7809000000000026
11
71.2469999999999999
21
-72.0724999999999909
0
LINE
8
BLACK
6
CONTINUOUS
10
71.2469999999999999
20
-72.0724999999999909
11
72.0090000000000003
21
-72.0724999999999909
0
LINE
8
BLACK
6
CONTINUOUS
10
72.0090000000000003
20
-72.0724999999999909
11
72.0090000000000003
21
-75.7809000000000026
0
LINE
8
BLACK
6
CONTINUOUS
10
73.2789999999999964
20
-75.7809000000000026
11
72.5169999999999959
21
-75.7809000000000026
0
LINE
8
BLACK
6
CONTINUOUS
10
72.5169999999999959
20
-75.7809000000000026
11
72.5169999999999959
21
-72.0724999999999909
0
LINE
8
BLACK
6
CONTINUOUS
10
72.5169999999999959
20
-72.0724999999999909
11
73.2789999999999964
21
-72.0724999999999909
0
LINE
8
BLACK
6
CONTINUOUS
10
73.2789999999999964
20
-72.0724999999999909
11
73.2789999999999964
21
-75.7809000000000026
0
LINE
8
BLACK
6
CONTINUOUS
10
80.2639999999999958
20
-75.7809000000000026
11
79.5019999999999953
21
-75.7809000000000026
0
LINE
8
BLACK
6
CONTINUOUS
10
79.5019999999999953
20
-75.7809000000000026
11
79.5019999999999953
21
-72.0724999999999909
0
LINE
8
BLACK
6
CONTINUOUS
10
79.5019999999999953
20
-72.0724999999999909
11
80.2639999999999958
21
-72.0724999999999909
0
LINE
8
BLACK
6
CONTINUOUS
10
80.2639999999999958
20
-72.0724999999999909
11
80.2639999999999958
21
-75.7809000000000026
0
LINE
8
BLACK
6
CONTINUOUS
10
81.5339999999999918
20
-75.7809000000000026
11
80.7719999999999914
21
-75.7809000000000026
0
LINE
8
BLACK
6
CONTINUOUS
10
80.7719999999999914
20
-75.7809000000000026
11
80.7719999999999914
21
-72.0724999999999909
0
LINE
8
BLACK
6
CONTINUOUS
10
80.7719999999999914
20
-72.0724999999999909
11
81.5339999999999918
21
-72.0724999999999909
0
LINE
8
BLACK
6
CONTINUOUS
10
81.5339999999999918
20
-72.0724999999999909
11
81.5339999999999918
21
-75.7809000000000026
0
LINE
8
BLACK
6
CONTINUOUS
10
82.804000000000002
20
-75.7809000000000026
11
82.0420000000000016
21
-75.7809000000000026
0
LINE
8
BLACK
6
CONTINUOUS
10
82.0420000000000016
20
-75.7809000000000026
11
82.0420000000000016
21
-72.0724999999999909
0
LINE
8
BLACK
6
CONTINUOUS
10
82.0420000000000016
20
-72.0724999999999909
11
82.804000000000002
21
-72.0724999999999909
0
LINE
8
BLACK
6
CONTINUOUS
10
82.804000000000002
20
-72.0724999999999909
11
82.804000000000002
21
-75.7809000000000026
0
LINE
8
BLACK
6
CONTINUOUS
10
84.0739999999999981
20
-75.7809000000000026
11
83.3119999999999976
21
-75.7809000000000026
0
LINE
8
BLACK
6
CONTINUOUS
10
83.3119999999999976
20
-75.7809000000000026
11
83.3119999999999976
21
-72.0724999999999909
0
LINE
8
BLACK
6
CONTINUOUS
10
83.3119999999999976
20
-72.0724999999999909
11
84.0739999999999981
21
-72.0724999999999909
0
LINE
8
BLACK
6
CONTINUOUS
10
84.0739999999999981
20
-72.0724999999999909
11
84.0739999999999981
21
-75.7809000000000026
0
LINE
8
BLACK
6
CONTINUOUS
10
85.3439999999999941
20
-75.7809000000000026
11
84.5819999999999936
21
-75.7809000000000026
0
LINE
8
BLACK
6
CONTINUOUS
10
84.5819999999999936
20
-75.7809000000000026
11
84.5819999999999936
21
-72.0724999999999909
0
LINE
8
BLACK
6
CONTINUOUS
10
84.5819999999999936
20
-72.0724999999999909
11
85.3439999999999941
21
-72.0724999999999909
0
LINE
8
BLACK
6
CONTINUOUS
10
85.3439999999999941
20
-72.0724999999999909
11
85.3439999999999941
21
-75.7809000000000026
0
LINE
8
BLACK
6
CONTINUOUS
10
86.6139999999999901
20
-75.7809000000000026
11
85.8519999999999897
21
-75.7809000000000026
0
LINE
8
BLACK
6
CONTINUOUS
10
85.8519999999999897
20
-75.7809000000000026
11
85.8519999999999897
21
-72.0724999999999909
0
LINE
8
BLACK
6
CONTINUOUS
10
85.8519999999999897
20
-72.0724999999999909
11
86.6139999999999901
21
-72.0724999999999909
0
LINE
8
BLACK
6
CONTINUOUS
10
86.6139999999999901
20
-72.0724999999999909
11
86.6139999999999901
21
-75.7809000000000026
0
LINE
8
BLACK
6
CONTINUOUS
10
87.8840000000000003
20
-75.7809000000000026
11
87.1219999999999999
21
-75.7809000000000026
0
LINE
8
BLACK
6
CONTINUOUS
10
87.1219999999999999
20
-75.7809000000000026
11
87.1219999999999999
21
-72.0724999999999909
0
LINE
8
BLACK
6
CONTINUOUS
10
87.1219999999999999
20
-72.0724999999999909
11
87.8840000000000003
21
-72.0724999999999909
0
LINE
8
BLACK
6
CONTINUOUS
10
87.8840000000000003
20
-72.0724999999999909
11
87.8840000000000003
21
-75.7809000000000026
0
LINE
8
BLACK
6
CONTINUOUS
10
126.3344999999999914
20
-75.7809000000000026
11
125.5724999999999909
21
-75.7809000000000026
0
LINE
8
BLACK
6
CONTINUOUS
10
125.5724999999999909
20
-75.7809000000000026
11
125.5724999999999909
21
-72.0724999999999909
0
LINE
8
BLACK
6
CONTINUOUS
10
125.5724999999999909
20
-72.0724999999999909
11
126.3344999999999914
21
-72.0724999999999909
0
LINE
8
BLACK
6
CONTINUOUS
10
126.3344999999999914
20
-72.0724999999999909
11
126.3344999999999914
21
-75.7809000000000026
0
LINE
8
BLACK
6
CONTINUOUS
10
127.6044999999999874
20
-75.7809000000000026
11
126.8425000000000011
21
-75.7809000000000026
0
LINE
8
BLACK
6
CONTINUOUS
10
126.8425000000000011
20
-75.7809000000000026
11
126.8425000000000011
21
-72.0724999999999909
0
LINE
8
BLACK
6
CONTINUOUS
10
126.8425000000000011
20
-72.0724999999999909
11
127.6044999999999874
21
-72.0724999999999909
0
LINE
8
BLACK
6
CONTINUOUS
10
127.6044999999999874
20
-72.0724999999999909
11
127.6044999999999874
21
-75.7809000000000026
0
LINE
8
BLACK
6
CONTINUOUS
10
128.8744999999999834
20
-75.7809000000000026
11
128.1124999999999829
21
-75.7809000000000026
0
LINE
8
BLACK
6
CONTINUOUS
10
128.1124999999999829
20
-75.7809000000000026
11
128.1124999999999829
21
-72.0724999999999909
0
LINE
8
BLACK
6
CONTINUOUS
10
128.1124999999999829
20
-72.0724999999999909
11
128.8744999999999834
21
-72.0724999999999909
0
LINE
8
BLACK
6
CONTINUOUS
10
128.8744999999999834
20
-72.0724999999999909
11
128.8744999999999834
21
-75.7809000000000026
0
LINE
8
BLACK
6
CONTINUOUS
10
130.1444999999999936
20
-75.7809000000000026
11
129.3824999999999932
21
-75.7809000000000026
0
LINE
8
BLACK
6
CONTINUOUS
10
129.3824999999999932
20
-75.7809000000000026
11
129.3824999999999932
21
-72.0724999999999909
0
LINE
8
BLACK
6
CONTINUOUS
10
129.3824999999999932
20
-72.0724999999999909
11
130.1444999999999936
21
-72.0724999999999909
0
LINE
8
BLACK
6
CONTINUOUS
10
130.1444999999999936
20
-72.0724999999999909
11
130.1444999999999936
21
-75.7809000000000026
0
LINE
8
BLACK
6
CONTINUOUS
10
131.4145000000000039
20
-75.7809000000000026
11
130.6525000000000034
21
-75.7809000000000026
0
LINE
8
BLACK
6
CONTINUOUS
10
130.6525000000000034
20
-75.7809000000000026
11
130.6525000000000034
21
-72.0724999999999909
0
LINE
8
BLACK
6
CONTINUOUS
10
130.6525000000000034
20
-72.0724999999999909
11
131.4145000000000039
21
-72.0724999999999909
0
LINE
8
BLACK
6
CONTINUOUS
10
131.4145000000000039
20
-72.0724999999999909
11
131.4145000000000039
21
-75.7809000000000026
0
LINE
8
BLACK
6
CONTINUOUS
10
132.6844999999999857
20
-75.7809000000000026
11
131.9224999999999852
21
-75.7809000000000026
0
LINE
8
BLACK
6
CONTINUOUS
10
131.9224999999999852
20
-75.7809000000000026
11
131.9224999999999852
21
-72.0724999999999909
0
LINE
8
BLACK
6
CONTINUOUS
10
131.9224999999999852
20
-72.0724999999999909
11
132.6844999999999857
21
-72.0724999999999909
0
LINE
8
BLACK
6
CONTINUOUS
10
132.6844999999999857
20
-72.0724999999999909
11
132.6844999999999857
21
-75.7809000000000026
0
LINE
8
BLACK
6
CONTINUOUS
10
133.9544999999999959
20
-75.7809000000000026
11
133.1924999999999955
21
-75.7809000000000026
0
LINE
8
BLACK
6
CONTINUOUS
10
133.1924999999999955
20
-75.7809000000000026
11
133.1924999999999955
21
-72.0724999999999909
0
LINE
8
BLACK
6
CONTINUOUS
10
133.1924999999999955
20
-72.0724999999999909
11
133.9544999999999959
21
-72.0724999999999909
0
LINE
8
BLACK
6
CONTINUOUS
10
133.9544999999999959
20
-72.0724999999999909
11
133.9544999999999959
21
-75.7809000000000026
0
LINE
8
BLACK
6
CONTINUOUS
10
140.9394999999999811
20
-75.7809000000000026
11
140.1774999999999807
21
-75.7809000000000026
0
LINE
8
BLACK
6
CONTINUOUS
10
140.1774999999999807
20
-75.7809000000000026
11
140.1774999999999807
21
-72.0724999999999909
0
LINE
8
BLACK
6
CONTINUOUS
10
140.1774999999999807
20
-72.0724999999999909
11
140.9394999999999811
21
-72.0724999999999909
0
LINE
8
BLACK
6
CONTINUOUS
10
140.9394999999999811
20
-72.0724999999999909
11
140.9394999999999811
21
-75.7809000000000026
0
LINE
8
BLACK
6
CONTINUOUS
10
142.2094999999999914
20
-75.7809000000000026
11
141.4474999999999909
21
-75.7809000000000026
0
LINE
8
BLACK
6
CONTINUOUS
10
141.4474999999999909
20
-75.7809000000000026
11
141.4474999999999909
21
-72.0724999999999909
0
LINE
8
BLACK
6
CONTINUOUS
10
141.4474999999999909
20
-72.0724999999999909
11
142.2094999999999914
21
-72.0724999999999909
0
LINE
8
BLACK
6
CONTINUOUS
10
142.2094999999999914
20
-72.0724999999999909
11
142.2094999999999914
21
-75.7809000000000026
0
LINE
8
BLACK
6
CONTINUOUS
10
143.4795000000000016
20
-75.7809000000000026
11
142.7175000000000011
21
-75.7809000000000026
0
LINE
8
BLACK
6
CONTINUOUS
10
142.7175000000000011
20
-75.7809000000000026
11
142.7175000000000011
21
-72.0724999999999909
0
LINE
8
BLACK
6
CONTINUOUS
10
142.7175000000000011
20
-72.0724999999999909
11
143.4795000000000016
21
-72.0724999999999909
0
LINE
8
BLACK
6
CONTINUOUS
10
143.4795000000000016
20
-72.0724999999999909
11
143.4795000000000016
21
-75.7809000000000026
0
LINE
8
BLACK
6
CONTINUOUS
10
144.7494999999999834
20
-75.7809000000000026
11
143.9874999999999829
21
-75.7809000000000026
0
LINE
8
BLACK
6
CONTINUOUS
10
143.9874999999999829
20
-75.7809000000000026
11
143.9874999999999829
21
-72.0724999999999909
0
LINE
8
BLACK
6
CONTINUOUS
10
143.9874999999999829
20
-72.0724999999999909
11
144.7494999999999834
21
-72.0724999999999909
0
LINE
8
BLACK
6
CONTINUOUS
10
144.7494999999999834
20
-72.0724999999999909
11
144.7494999999999834
21
-75.7809000000000026
0
LINE
8
BLACK
6
CONTINUOUS
10
146.0194999999999936
20
-75.7809000000000026
11
145.2574999999999932
21
-75.7809000000000026
0
LINE
8
BLACK
6
CONTINUOUS
10
145.2574999999999932
20
-75.7809000000000026
11
145.2574999999999932
21
-72.0724999999999909
0
LINE
8
BLACK
6
CONTINUOUS
10
145.2574999999999932
20
-72.0724999999999909
11
146.0194999999999936
21
-72.0724999999999909
0
LINE
8
BLACK
6
CONTINUOUS
10
146.0194999999999936
20
-72.0724999999999909
11
146.0194999999999936
21
-75.7809000000000026
0
LINE
8
BLACK
6
CONTINUOUS
10
147.2895000000000039
20
-75.7809000000000026
11
146.5275000000000034
21
-75.7809000000000026
0
LINE
8
BLACK
6
CONTINUOUS
10
146.5275000000000034
20
-75.7809000000000026
11
146.5275000000000034
21
-72.0724999999999909
0
LINE
8
BLACK
6
CONTINUOUS
10
146.5275000000000034
20
-72.0724999999999909
11
147.2895000000000039
21
-72.0724999999999909
0
LINE
8
BLACK
6
CONTINUOUS
10
147.2895000000000039
20
-72.0724999999999909
11
147.2895000000000039
21
-75.7809000000000026
0
LINE
8
BLACK
6
CONTINUOUS
10
148.5594999999999857
20
-75.7809000000000026
11
147.7974999999999852
21
-75.7809000000000026
0
LINE
8
BLACK
6
CONTINUOUS
10
147.7974999999999852
20
-75.7809000000000026
11
147.7974999999999852
21
-72.0724999999999909
0
LINE
8
BLACK
6
CONTINUOUS
10
147.7974999999999852
20
-72.0724999999999909
11
148.5594999999999857
21
-72.0724999999999909
0
LINE
8
BLACK
6
CONTINUOUS
10
148.5594999999999857
20
-72.0724999999999909
11
148.5594999999999857
21
-75.7809000000000026
0
LINE
8
BLACK
6
CONTINUOUS
10
95.1346860000000021
20
-71.0613699999999966
11
95.1874049999999983
21
-71.0965949999999935
0
LINE
8
BLACK
6
CONTINUOUS
10
95.1874049999999983
20
-71.0965949999999935
11
95.2226299999999952
21
-71.1493139999999897
0
LINE
8
BLACK
6
CONTINUOUS
10
95.2226299999999952
20
-71.1493139999999897
11
95.2349999999999994
21
-71.2115000000000009
0
LINE
8
BLACK
6
CONTINUOUS
10
95.2349999999999994
20
-71.2115000000000009
11
95.2349999999999994
21
-71.5365000000000038
0
LINE
8
BLACK
6
CONTINUOUS
10
95.2349999999999994
20
-71.5365000000000038
11
95.2226299999999952
21
-71.5986860000000007
0
LINE
8
BLACK
6
CONTINUOUS
10
95.2226299999999952
20
-71.5986860000000007
11
95.1874049999999983
21
-71.6514049999999969
0
LINE
8
BLACK
6
CONTINUOUS
10
95.1874049999999983
20
-71.6514049999999969
11
95.1346860000000021
21
-71.6866299999999939
0
LINE
8
BLACK
6
CONTINUOUS
10
95.1346860000000021
20
-71.6866299999999939
11
95.0724999999999909
21
-71.6989999999999981
0
LINE
8
BLACK
6
CONTINUOUS
10
95.0724999999999909
20
-71.6989999999999981
11
93.8374999999999915
21
-71.6989999999999981
0
LINE
8
BLACK
6
CONTINUOUS
10
93.8374999999999915
20
-71.6989999999999981
11
93.7753139999999945
21
-71.6866299999999939
0
LINE
8
BLACK
6
CONTINUOUS
10
93.7753139999999945
20
-71.6866299999999939
11
93.7225949999999983
21
-71.6514049999999969
0
LINE
8
BLACK
6
CONTINUOUS
10
93.7225949999999983
20
-71.6514049999999969
11
93.6873700000000014
21
-71.5986860000000007
0
LINE
8
BLACK
6
CONTINUOUS
10
93.6873700000000014
20
-71.5986860000000007
11
93.6749999999999972
21
-71.5365000000000038
0
LINE
8
BLACK
6
CONTINUOUS
10
93.6749999999999972
20
-71.5365000000000038
11
93.6749999999999972
21
-71.2115000000000009
0
LINE
8
BLACK
6
CONTINUOUS
10
93.6749999999999972
20
-71.2115000000000009
11
93.6873700000000014
21
-71.1493139999999897
0
LINE
8
BLACK
6
CONTINUOUS
10
93.6873700000000014
20
-71.1493139999999897
11
93.7225949999999983
21
-71.0965949999999935
0
LINE
8
BLACK
6
CONTINUOUS
10
93.7225949999999983
20
-71.0965949999999935
11
93.7753139999999945
21
-71.0613699999999966
0
LINE
8
BLACK
6
CONTINUOUS
10
93.7753139999999945
20
-71.0613699999999966
11
93.8374999999999915
21
-71.0489999999999924
0
LINE
8
BLACK
6
CONTINUOUS
10
93.8374999999999915
20
-71.0489999999999924
11
95.0724999999999909
21
-71.0489999999999924
0
LINE
8
BLACK
6
CONTINUOUS
10
95.0724999999999909
20
-71.0489999999999924
11
95.1346860000000021
21
-71.0613699999999966
0
LINE
8
BLACK
6
CONTINUOUS
10
97.8346859999999907
20
-71.0613699999999966
11
97.8874050000000011
21
-71.0965949999999935
0
LINE
8
BLACK
6
CONTINUOUS
10
97.8874050000000011
20
-71.0965949999999935
11
97.9226299999999981
21
-71.1493139999999897
0
LINE
8
BLACK
6
CONTINUOUS
10
97.9226299999999981
20
-71.1493139999999897
11
97.9350000000000023
21
-71.2115000000000009
0
LINE
8
BLACK
6
CONTINUOUS
10
97.9350000000000023
20
-71.2115000000000009
11
97.9350000000000023
21
-71.5365000000000038
0
LINE
8
BLACK
6
CONTINUOUS
10
97.9350000000000023
20
-71.5365000000000038
11
97.9226299999999981
21
-71.5986860000000007
0
LINE
8
BLACK
6
CONTINUOUS
10
97.9226299999999981
20
-71.5986860000000007
11
97.8874050000000011
21
-71.6514049999999969
0
LINE
8
BLACK
6
CONTINUOUS
10
97.8874050000000011
20
-71.6514049999999969
11
97.8346859999999907
21
-71.6866299999999939
0
LINE
8
BLACK
6
CONTINUOUS
10
97.8346859999999907
20
-71.6866299999999939
11
97.7724999999999937
21
-71.6989999999999981
0
LINE
8
BLACK
6
CONTINUOUS
10
97.7724999999999937
20
-71.6989999999999981
11
96.5374999999999943
21
-71.6989999999999981
0
LINE
8
BLACK
6
CONTINUOUS
10
96.5374999999999943
20
-71.6989999999999981
11
96.4753139999999973
21
-71.6866299999999939
0
LINE
8
BLACK
6
CONTINUOUS
10
96.4753139999999973
20
-71.6866299999999939
11
96.4225950000000012
21
-71.6514049999999969
0
LINE
8
BLACK
6
CONTINUOUS
10
96.4225950000000012
20
-71.6514049999999969
11
96.38736999999999
21
-71.5986860000000007
0
LINE
8
BLACK
6
CONTINUOUS
10
96.38736999999999
20
-71.5986860000000007
11
96.375
21
-71.5365000000000038
0
LINE
8
BLACK
6
CONTINUOUS
10
96.375
20
-71.5365000000000038
11
96.375
21
-71.2115000000000009
0
LINE
8
BLACK
6
CONTINUOUS
10
96.375
20
-71.2115000000000009
11
96.38736999999999
21
-71.1493139999999897
0
LINE
8
BLACK
6
CONTINUOUS
10
96.38736999999999
20
-71.1493139999999897
11
96.4225950000000012
21
-71.0965949999999935
0
LINE
8
BLACK
6
CONTINUOUS
10
96.4225950000000012
20
-71.0965949999999935
11
96.4753139999999973
21
-71.0613699999999966
0
LINE
8
BLACK
6
CONTINUOUS
10
96.4753139999999973
20
-71.0613699999999966
11
96.5374999999999943
21
-71.0489999999999924
0
LINE
8
BLACK
6
CONTINUOUS
10
96.5374999999999943
20
-71.0489999999999924
11
97.7724999999999937
21
-71.0489999999999924
0
LINE
8
BLACK
6
CONTINUOUS
10
97.7724999999999937
20
-71.0489999999999924
11
97.8346859999999907
21
-71.0613699999999966
0
LINE
8
BLACK
6
CONTINUOUS
10
115.0404029999999977
20
-70.1674179999999978
11
115.0890659999999883
21
-70.1999339999999989
0
LINE
8
BLACK
6
CONTINUOUS
10
115.0890659999999883
20
-70.1999339999999989
11
115.1215819999999894
21
-70.2485970000000037
0
LINE
8
BLACK
6
CONTINUOUS
10
115.1215819999999894
20
-70.2485970000000037
11
115.1329999999999956
21
-70.3059999999999974
0
LINE
8
BLACK
6
CONTINUOUS
10
115.1329999999999956
20
-70.3059999999999974
11
115.1329999999999956
21
-70.9059999999999917
0
LINE
8
BLACK
6
CONTINUOUS
10
115.1329999999999956
20
-70.9059999999999917
11
115.1215819999999894
21
-70.9634029999999996
0
LINE
8
BLACK
6
CONTINUOUS
10
115.1215819999999894
20
-70.9634029999999996
11
115.0890659999999883
21
-71.0120659999999901
0
LINE
8
BLACK
6
CONTINUOUS
10
115.0890659999999883
20
-71.0120659999999901
11
115.0404029999999977
21
-71.0445819999999912
0
LINE
8
BLACK
6
CONTINUOUS
10
115.0404029999999977
20
-71.0445819999999912
11
114.9829999999999899
21
-71.0559999999999974
0
LINE
8
BLACK
6
CONTINUOUS
10
114.9829999999999899
20
-71.0559999999999974
11
114.6829999999999927
21
-71.0559999999999974
0
LINE
8
BLACK
6
CONTINUOUS
10
114.6829999999999927
20
-71.0559999999999974
11
114.6255969999999991
21
-71.0445819999999912
0
LINE
8
BLACK
6
CONTINUOUS
10
114.6255969999999991
20
-71.0445819999999912
11
114.5769339999999943
21
-71.0120659999999901
0
LINE
8
BLACK
6
CONTINUOUS
10
114.5769339999999943
20
-71.0120659999999901
11
114.5444179999999932
21
-70.9634029999999996
0
LINE
8
BLACK
6
CONTINUOUS
10
114.5444179999999932
20
-70.9634029999999996
11
114.5330000000000013
21
-70.9059999999999917
0
LINE
8
BLACK
6
CONTINUOUS
10
114.5330000000000013
20
-70.9059999999999917
11
114.5330000000000013
21
-70.3059999999999974
0
LINE
8
BLACK
6
CONTINUOUS
10
114.5330000000000013
20
-70.3059999999999974
11
114.5444179999999932
21
-70.2485970000000037
0
LINE
8
BLACK
6
CONTINUOUS
10
114.5444179999999932
20
-70.2485970000000037
11
114.5769339999999943
21
-70.1999339999999989
0
LINE
8
BLACK
6
CONTINUOUS
10
114.5769339999999943
20
-70.1999339999999989
11
114.6255969999999991
21
-70.1674179999999978
0
LINE
8
BLACK
6
CONTINUOUS
10
114.6255969999999991
20
-70.1674179999999978
11
114.6829999999999927
21
-70.1559999999999917
0
LINE
8
BLACK
6
CONTINUOUS
10
114.6829999999999927
20
-70.1559999999999917
11
114.9829999999999899
21
-70.1559999999999917
0
LINE
8
BLACK
6
CONTINUOUS
10
114.9829999999999899
20
-70.1559999999999917
11
115.0404029999999977
21
-70.1674179999999978
0
LINE
8
BLACK
6
CONTINUOUS
10
116.3204029999999989
20
-70.1674179999999978
11
116.3690659999999895
21
-70.1999339999999989
0
LINE
8
BLACK
6
CONTINUOUS
10
116.3690659999999895
20
-70.1999339999999989
11
116.4015819999999906
21
-70.2485970000000037
0
LINE
8
BLACK
6
CONTINUOUS
10
116.4015819999999906
20
-70.2485970000000037
11
116.4129999999999967
21
-70.3059999999999974
0
LINE
8
BLACK
6
CONTINUOUS
10
116.4129999999999967
20
-70.3059999999999974
11
116.4129999999999967
21
-70.9059999999999917
0
LINE
8
BLACK
6
CONTINUOUS
10
116.4129999999999967
20
-70.9059999999999917
11
116.4015819999999906
21
-70.9634029999999996
0
LINE
8
BLACK
6
CONTINUOUS
10
116.4015819999999906
20
-70.9634029999999996
11
116.3690659999999895
21
-71.0120659999999901
0
LINE
8
BLACK
6
CONTINUOUS
10
116.3690659999999895
20
-71.0120659999999901
11
116.3204029999999989
21
-71.0445819999999912
0
LINE
8
BLACK
6
CONTINUOUS
10
116.3204029999999989
20
-71.0445819999999912
11
116.262999999999991
21
-71.0559999999999974
0
LINE
8
BLACK
6
CONTINUOUS
10
116.262999999999991
20
-71.0559999999999974
11
115.9629999999999939
21
-71.0559999999999974
0
LINE
8
BLACK
6
CONTINUOUS
10
115.9629999999999939
20
-71.0559999999999974
11
115.9055970000000002
21
-71.0445819999999912
0
LINE
8
BLACK
6
CONTINUOUS
10
115.9055970000000002
20
-71.0445819999999912
11
115.8569339999999954
21
-71.0120659999999901
0
LINE
8
BLACK
6
CONTINUOUS
10
115.8569339999999954
20
-71.0120659999999901
11
115.8244179999999943
21
-70.9634029999999996
0
LINE
8
BLACK
6
CONTINUOUS
10
115.8244179999999943
20
-70.9634029999999996
11
115.8129999999999882
21
-70.9059999999999917
0
LINE
8
BLACK
6
CONTINUOUS
10
115.8129999999999882
20
-70.9059999999999917
11
115.8129999999999882
21
-70.3059999999999974
0
LINE
8
BLACK
6
CONTINUOUS
10
115.8129999999999882
20
-70.3059999999999974
11
115.8244179999999943
21
-70.2485970000000037
0
LINE
8
BLACK
6
CONTINUOUS
10
115.8244179999999943
20
-70.2485970000000037
11
115.8569339999999954
21
-70.1999339999999989
0
LINE
8
BLACK
6
CONTINUOUS
10
115.8569339999999954
20
-70.1999339999999989
11
115.9055970000000002
21
-70.1674179999999978
0
LINE
8
BLACK
6
CONTINUOUS
10
115.9055970000000002
20
-70.1674179999999978
11
115.9629999999999939
21
-70.1559999999999917
0
LINE
8
BLACK
6
CONTINUOUS
10
115.9629999999999939
20
-70.1559999999999917
11
116.262999999999991
21
-70.1559999999999917
0
LINE
8
BLACK
6
CONTINUOUS
10
116.262999999999991
20
-70.1559999999999917
11
116.3204029999999989
21
-70.1674179999999978
0
LINE
8
BLACK
6
CONTINUOUS
10
117.5204030000000017
20
-70.1674179999999978
11
117.5690659999999923
21
-70.1999339999999989
0
LINE
8
BLACK
6
CONTINUOUS
10
117.5690659999999923
20
-70.1999339999999989
11
117.6015819999999934
21
-70.2485970000000037
0
LINE
8
BLACK
6
CONTINUOUS
10
117.6015819999999934
20
-70.2485970000000037
11
117.6129999999999995
21
-70.3059999999999974
0
LINE
8
BLACK
6
CONTINUOUS
10
117.6129999999999995
20
-70.3059999999999974
11
117.6129999999999995
21
-70.9059999999999917
0
LINE
8
BLACK
6
CONTINUOUS
10
117.6129999999999995
20
-70.9059999999999917
11
117.6015819999999934
21
-70.9634029999999996
0
LINE
8
BLACK
6
CONTINUOUS
10
117.6015819999999934
20
-70.9634029999999996
11
117.5690659999999923
21
-71.0120659999999901
0
LINE
8
BLACK
6
CONTINUOUS
10
117.5690659999999923
20
-71.0120659999999901
11
117.5204030000000017
21
-71.0445819999999912
0
LINE
8
BLACK
6
CONTINUOUS
10
117.5204030000000017
20
-71.0445819999999912
11
117.4629999999999939
21
-71.0559999999999974
0
LINE
8
BLACK
6
CONTINUOUS
10
117.4629999999999939
20
-71.0559999999999974
11
117.1629999999999967
21
-71.0559999999999974
0
LINE
8
BLACK
6
CONTINUOUS
10
117.1629999999999967
20
-71.0559999999999974
11
117.1055969999999888
21
-71.0445819999999912
0
LINE
8
BLACK
6
CONTINUOUS
10
117.1055969999999888
20
-71.0445819999999912
11
117.0569339999999983
21
-71.0120659999999901
0
LINE
8
BLACK
6
CONTINUOUS
10
117.0569339999999983
20
-71.0120659999999901
11
117.0244179999999972
21
-70.9634029999999996
0
LINE
8
BLACK
6
CONTINUOUS
10
117.0244179999999972
20
-70.9634029999999996
11
117.012999999999991
21
-70.9059999999999917
0
LINE
8
BLACK
6
CONTINUOUS
10
117.012999999999991
20
-70.9059999999999917
11
117.012999999999991
21
-70.3059999999999974
0
LINE
8
BLACK
6
CONTINUOUS
10
117.012999999999991
20
-70.3059999999999974
11
117.0244179999999972
21
-70.2485970000000037
0
LINE
8
BLACK
6
CONTINUOUS
10
117.0244179999999972
20
-70.2485970000000037
11
117.0569339999999983
21
-70.1999339999999989
0
LINE
8
BLACK
6
CONTINUOUS
10
117.0569339999999983
20
-70.1999339999999989
11
117.1055969999999888
21
-70.1674179999999978
0
LINE
8
BLACK
6
CONTINUOUS
10
117.1055969999999888
20
-70.1674179999999978
11
117.1629999999999967
21
-70.1559999999999917
0
LINE
8
BLACK
6
CONTINUOUS
10
117.1629999999999967
20
-70.1559999999999917
11
117.4629999999999939
21
-70.1559999999999917
0
LINE
8
BLACK
6
CONTINUOUS
10
117.4629999999999939
20
-70.1559999999999917
11
117.5204030000000017
21
-70.1674179999999978
0
LINE
8
BLACK
6
CONTINUOUS
10
118.8004029999999887
20
-70.1674179999999978
11
118.8490659999999934
21
-70.1999339999999989
0
LINE
8
BLACK
6
CONTINUOUS
10
118.8490659999999934
20
-70.1999339999999989
11
118.8815819999999945
21
-70.2485970000000037
0
LINE
8
BLACK
6
CONTINUOUS
10
118.8815819999999945
20
-70.2485970000000037
11
118.8930000000000007
21
-70.3059999999999974
0
LINE
8
BLACK
6
CONTINUOUS
10
118.8930000000000007
20
-70.3059999999999974
11
118.8930000000000007
21
-70.9059999999999917
0
LINE
8
BLACK
6
CONTINUOUS
10
118.8930000000000007
20
-70.9059999999999917
11
118.8815819999999945
21
-70.9634029999999996
0
LINE
8
BLACK
6
CONTINUOUS
10
118.8815819999999945
20
-70.9634029999999996
11
118.8490659999999934
21
-71.0120659999999901
0
LINE
8
BLACK
6
CONTINUOUS
10
118.8490659999999934
20
-71.0120659999999901
11
118.8004029999999887
21
-71.0445819999999912
0
LINE
8
BLACK
6
CONTINUOUS
10
118.8004029999999887
20
-71.0445819999999912
11
118.742999999999995
21
-71.0559999999999974
0
LINE
8
BLACK
6
CONTINUOUS
10
118.742999999999995
20
-71.0559999999999974
11
118.4429999999999978
21
-71.0559999999999974
0
LINE
8
BLACK
6
CONTINUOUS
10
118.4429999999999978
20
-71.0559999999999974
11
118.38559699999999
21
-71.0445819999999912
0
LINE
8
BLACK
6
CONTINUOUS
10
118.38559699999999
20
-71.0445819999999912
11
118.3369339999999994
21
-71.0120659999999901
0
LINE
8
BLACK
6
CONTINUOUS
10
118.3369339999999994
20
-71.0120659999999901
11
118.3044179999999983
21
-70.9634029999999996
0
LINE
8
BLACK
6
CONTINUOUS
10
118.3044179999999983
20
-70.9634029999999996
11
118.2929999999999922
21
-70.9059999999999917
0
LINE
8
BLACK
6
CONTINUOUS
10
118.2929999999999922
20
-70.9059999999999917
11
118.2929999999999922
21
-70.3059999999999974
0
LINE
8
BLACK
6
CONTINUOUS
10
118.2929999999999922
20
-70.3059999999999974
11
118.3044179999999983
21
-70.2485970000000037
0
LINE
8
BLACK
6
CONTINUOUS
10
118.3044179999999983
20
-70.2485970000000037
11
118.3369339999999994
21
-70.1999339999999989
0
LINE
8
BLACK
6
CONTINUOUS
10
118.3369339999999994
20
-70.1999339999999989
11
118.38559699999999
21
-70.1674179999999978
0
LINE
8
BLACK
6
CONTINUOUS
10
118.38559699999999
20
-70.1674179999999978
11
118.4429999999999978
21
-70.1559999999999917
0
LINE
8
BLACK
6
CONTINUOUS
10
118.4429999999999978
20
-70.1559999999999917
11
118.742999999999995
21
-70.1559999999999917
0
LINE
8
BLACK
6
CONTINUOUS
10
118.742999999999995
20
-70.1559999999999917
11
118.8004029999999887
21
-70.1674179999999978
0
LINE
8
BLACK
6
CONTINUOUS
10
100.9364029999999985
20
-70.0134180000000015
11
100.9850659999999891
21
-70.0459340000000026
0
LINE
8
BLACK
6
CONTINUOUS
10
100.9850659999999891
20
-70.0459340000000026
11
101.0175819999999902
21
-70.0945969999999932
0
LINE
8
BLACK
6
CONTINUOUS
10
101.0175819999999902
20
-70.0945969999999932
11
101.0289999999999964
21
-70.152000000000001
0
LINE
8
BLACK
6
CONTINUOUS
10
101.0289999999999964
20
-70.152000000000001
11
101.0289999999999964
21
-70.7519999999999953
0
LINE
8
BLACK
6
CONTINUOUS
10
101.0289999999999964
20
-70.7519999999999953
11
101.0175819999999902
21
-70.8094030000000032
0
LINE
8
BLACK
6
CONTINUOUS
10
101.0175819999999902
20
-70.8094030000000032
11
100.9850659999999891
21
-70.8580659999999938
0
LINE
8
BLACK
6
CONTINUOUS
10
100.9850659999999891
20
-70.8580659999999938
11
100.9364029999999985
21
-70.8905819999999949
0
LINE
8
BLACK
6
CONTINUOUS
10
100.9364029999999985
20
-70.8905819999999949
11
100.8789999999999907
21
-70.902000000000001
0
LINE
8
BLACK
6
CONTINUOUS
10
100.8789999999999907
20
-70.902000000000001
11
100.5789999999999935
21
-70.902000000000001
0
LINE
8
BLACK
6
CONTINUOUS
10
100.5789999999999935
20
-70.902000000000001
11
100.5215969999999999
21
-70.8905819999999949
0
LINE
8
BLACK
6
CONTINUOUS
10
100.5215969999999999
20
-70.8905819999999949
11
100.4729339999999951
21
-70.8580659999999938
0
LINE
8
BLACK
6
CONTINUOUS
10
100.4729339999999951
20
-70.8580659999999938
11
100.440417999999994
21
-70.8094030000000032
0
LINE
8
BLACK
6
CONTINUOUS
10
100.440417999999994
20
-70.8094030000000032
11
100.429000000000002
21
-70.7519999999999953
0
LINE
8
BLACK
6
CONTINUOUS
10
100.429000000000002
20
-70.7519999999999953
11
100.429000000000002
21
-70.152000000000001
0
LINE
8
BLACK
6
CONTINUOUS
10
100.429000000000002
20
-70.152000000000001
11
100.440417999999994
21
-70.0945969999999932
0
LINE
8
BLACK
6
CONTINUOUS
10
100.440417999999994
20
-70.0945969999999932
11
100.4729339999999951
21
-70.0459340000000026
0
LINE
8
BLACK
6
CONTINUOUS
10
100.4729339999999951
20
-70.0459340000000026
11
100.5215969999999999
21
-70.0134180000000015
0
LINE
8
BLACK
6
CONTINUOUS
10
100.5215969999999999
20
-70.0134180000000015
11
100.5789999999999935
21
-70.0019999999999953
0
LINE
8
BLACK
6
CONTINUOUS
10
100.5789999999999935
20
-70.0019999999999953
11
100.8789999999999907
21
-70.0019999999999953
0
LINE
8
BLACK
6
CONTINUOUS
10
100.8789999999999907
20
-70.0019999999999953
11
100.9364029999999985
21
-70.0134180000000015
0
LINE
8
BLACK
6
CONTINUOUS
10
102.2164029999999997
20
-70.0134180000000015
11
102.2650659999999903
21
-70.0459340000000026
0
LINE
8
BLACK
6
CONTINUOUS
10
102.2650659999999903
20
-70.0459340000000026
11
102.2975819999999914
21
-70.0945969999999932
0
LINE
8
BLACK
6
CONTINUOUS
10
102.2975819999999914
20
-70.0945969999999932
11
102.3089999999999975
21
-70.152000000000001
0
LINE
8
BLACK
6
CONTINUOUS
10
102.3089999999999975
20
-70.152000000000001
11
102.3089999999999975
21
-70.7519999999999953
0
LINE
8
BLACK
6
CONTINUOUS
10
102.3089999999999975
20
-70.7519999999999953
11
102.2975819999999914
21
-70.8094030000000032
0
LINE
8
BLACK
6
CONTINUOUS
10
102.2975819999999914
20
-70.8094030000000032
11
102.2650659999999903
21
-70.8580659999999938
0
LINE
8
BLACK
6
CONTINUOUS
10
102.2650659999999903
20
-70.8580659999999938
11
102.2164029999999997
21
-70.8905819999999949
0
LINE
8
BLACK
6
CONTINUOUS
10
102.2164029999999997
20
-70.8905819999999949
11
102.1589999999999918
21
-70.902000000000001
0
LINE
8
BLACK
6
CONTINUOUS
10
102.1589999999999918
20
-70.902000000000001
11
101.8589999999999947
21
-70.902000000000001
0
LINE
8
BLACK
6
CONTINUOUS
10
101.8589999999999947
20
-70.902000000000001
11
101.801597000000001
21
-70.8905819999999949
0
LINE
8
BLACK
6
CONTINUOUS
10
101.801597000000001
20
-70.8905819999999949
11
101.7529339999999962
21
-70.8580659999999938
0
LINE
8
BLACK
6
CONTINUOUS
10
101.7529339999999962
20
-70.8580659999999938
11
101.7204179999999951
21
-70.8094030000000032
0
LINE
8
BLACK
6
CONTINUOUS
10
101.7204179999999951
20
-70.8094030000000032
11
101.708999999999989
21
-70.7519999999999953
0
LINE
8
BLACK
6
CONTINUOUS
10
101.708999999999989
20
-70.7519999999999953
11
101.708999999999989
21
-70.152000000000001
0
LINE
8
BLACK
6
CONTINUOUS
10
101.708999999999989
20
-70.152000000000001
11
101.7204179999999951
21
-70.0945969999999932
0
LINE
8
BLACK
6
CONTINUOUS
10
101.7204179999999951
20
-70.0945969999999932
11
101.7529339999999962
21
-70.0459340000000026
0
LINE
8
BLACK
6
CONTINUOUS
10
101.7529339999999962
20
-70.0459340000000026
11
101.801597000000001
21
-70.0134180000000015
0
LINE
8
BLACK
6
CONTINUOUS
10
101.801597000000001
20
-70.0134180000000015
11
101.8589999999999947
21
-70.0019999999999953
0
LINE
8
BLACK
6
CONTINUOUS
10
101.8589999999999947
20
-70.0019999999999953
11
102.1589999999999918
21
-70.0019999999999953
0
LINE
8
BLACK
6
CONTINUOUS
10
102.1589999999999918
20
-70.0019999999999953
11
102.2164029999999997
21
-70.0134180000000015
0
LINE
8
BLACK
6
CONTINUOUS
10
103.4164029999999883
20
-70.0134180000000015
11
103.4650659999999931
21
-70.0459340000000026
0
LINE
8
BLACK
6
CONTINUOUS
10
103.4650659999999931
20
-70.0459340000000026
11
103.4975819999999942
21
-70.0945969999999932
0
LINE
8
BLACK
6
CONTINUOUS
10
103.4975819999999942
20
-70.0945969999999932
11
103.5090000000000003
21
-70.152000000000001
0
LINE
8
BLACK
6
CONTINUOUS
10
103.5090000000000003
20
-70.152000000000001
11
103.5090000000000003
21
-70.7519999999999953
0
LINE
8
BLACK
6
CONTINUOUS
10
103.5090000000000003
20
-70.7519999999999953
11
103.4975819999999942
21
-70.8094030000000032
0
LINE
8
BLACK
6
CONTINUOUS
10
103.4975819999999942
20
-70.8094030000000032
11
103.4650659999999931
21
-70.8580659999999938
0
LINE
8
BLACK
6
CONTINUOUS
10
103.4650659999999931
20
-70.8580659999999938
11
103.4164029999999883
21
-70.8905819999999949
0
LINE
8
BLACK
6
CONTINUOUS
10
103.4164029999999883
20
-70.8905819999999949
11
103.3589999999999947
21
-70.902000000000001
0
LINE
8
BLACK
6
CONTINUOUS
10
103.3589999999999947
20
-70.902000000000001
11
103.0589999999999975
21
-70.902000000000001
0
LINE
8
BLACK
6
CONTINUOUS
10
103.0589999999999975
20
-70.902000000000001
11
103.0015969999999896
21
-70.8905819999999949
0
LINE
8
BLACK
6
CONTINUOUS
10
103.0015969999999896
20
-70.8905819999999949
11
102.9529339999999991
21
-70.8580659999999938
0
LINE
8
BLACK
6
CONTINUOUS
10
102.9529339999999991
20
-70.8580659999999938
11
102.920417999999998
21
-70.8094030000000032
0
LINE
8
BLACK
6
CONTINUOUS
10
102.920417999999998
20
-70.8094030000000032
11
102.9089999999999918
21
-70.7519999999999953
0
LINE
8
BLACK
6
CONTINUOUS
10
102.9089999999999918
20
-70.7519999999999953
11
102.9089999999999918
21
-70.152000000000001
0
LINE
8
BLACK
6
CONTINUOUS
10
102.9089999999999918
20
-70.152000000000001
11
102.920417999999998
21
-70.0945969999999932
0
LINE
8
BLACK
6
CONTINUOUS
10
102.920417999999998
20
-70.0945969999999932
11
102.9529339999999991
21
-70.0459340000000026
0
LINE
8
BLACK
6
CONTINUOUS
10
102.9529339999999991
20
-70.0459340000000026
11
103.0015969999999896
21
-70.0134180000000015
0
LINE
8
BLACK
6
CONTINUOUS
10
103.0015969999999896
20
-70.0134180000000015
11
103.0589999999999975
21
-70.0019999999999953
0
LINE
8
BLACK
6
CONTINUOUS
10
103.0589999999999975
20
-70.0019999999999953
11
103.3589999999999947
21
-70.0019999999999953
0
LINE
8
BLACK
6
CONTINUOUS
10
103.3589999999999947
20
-70.0019999999999953
11
103.4164029999999883
21
-70.0134180000000015
0
LINE
8
BLACK
6
CONTINUOUS
10
104.6964029999999894
20
-70.0134180000000015
11
104.7450659999999942
21
-70.0459340000000026
0
LINE
8
BLACK
6
CONTINUOUS
10
104.7450659999999942
20
-70.0459340000000026
11
104.7775819999999953
21
-70.0945969999999932
0
LINE
8
BLACK
6
CONTINUOUS
10
104.7775819999999953
20
-70.0945969999999932
11
104.7890000000000015
21
-70.152000000000001
0
LINE
8
BLACK
6
CONTINUOUS
10
104.7890000000000015
20
-70.152000000000001
11
104.7890000000000015
21
-70.7519999999999953
0
LINE
8
BLACK
6
CONTINUOUS
10
104.7890000000000015
20
-70.7519999999999953
11
104.7775819999999953
21
-70.8094030000000032
0
LINE
8
BLACK
6
CONTINUOUS
10
104.7775819999999953
20
-70.8094030000000032
11
104.7450659999999942
21
-70.8580659999999938
0
LINE
8
BLACK
6
CONTINUOUS
10
104.7450659999999942
20
-70.8580659999999938
11
104.6964029999999894
21
-70.8905819999999949
0
LINE
8
BLACK
6
CONTINUOUS
10
104.6964029999999894
20
-70.8905819999999949
11
104.6389999999999958
21
-70.902000000000001
0
LINE
8
BLACK
6
CONTINUOUS
10
104.6389999999999958
20
-70.902000000000001
11
104.3389999999999986
21
-70.902000000000001
0
LINE
8
BLACK
6
CONTINUOUS
10
104.3389999999999986
20
-70.902000000000001
11
104.2815969999999908
21
-70.8905819999999949
0
LINE
8
BLACK
6
CONTINUOUS
10
104.2815969999999908
20
-70.8905819999999949
11
104.2329340000000002
21
-70.8580659999999938
0
LINE
8
BLACK
6
CONTINUOUS
10
104.2329340000000002
20
-70.8580659999999938
11
104.2004179999999991
21
-70.8094030000000032
0
LINE
8
BLACK
6
CONTINUOUS
10
104.2004179999999991
20
-70.8094030000000032
11
104.188999999999993
21
-70.7519999999999953
0
LINE
8
BLACK
6
CONTINUOUS
10
104.188999999999993
20
-70.7519999999999953
11
104.188999999999993
21
-70.152000000000001
0
LINE
8
BLACK
6
CONTINUOUS
10
104.188999999999993
20
-70.152000000000001
11
104.2004179999999991
21
-70.0945969999999932
0
LINE
8
BLACK
6
CONTINUOUS
10
104.2004179999999991
20
-70.0945969999999932
11
104.2329340000000002
21
-70.0459340000000026
0
LINE
8
BLACK
6
CONTINUOUS
10
104.2329340000000002
20
-70.0459340000000026
11
104.2815969999999908
21
-70.0134180000000015
0
LINE
8
BLACK
6
CONTINUOUS
10
104.2815969999999908
20
-70.0134180000000015
11
104.3389999999999986
21
-70.0019999999999953
0
LINE
8
BLACK
6
CONTINUOUS
10
104.3389999999999986
20
-70.0019999999999953
11
104.6389999999999958
21
-70.0019999999999953
0
LINE
8
BLACK
6
CONTINUOUS
10
104.6389999999999958
20
-70.0019999999999953
11
104.6964029999999894
21
-70.0134180000000015
0
LINE
8
BLACK
6
CONTINUOUS
10
95.1346860000000021
20
-70.1113699999999938
11
95.1874049999999983
21
-70.1465949999999907
0
LINE
8
BLACK
6
CONTINUOUS
10
95.1874049999999983
20
-70.1465949999999907
11
95.2226299999999952
21
-70.1993140000000011
0
LINE
8
BLACK
6
CONTINUOUS
10
95.2226299999999952
20
-70.1993140000000011
11
95.2349999999999994
21
-70.2614999999999981
0
LINE
8
BLACK
6
CONTINUOUS
10
95.2349999999999994
20
-70.2614999999999981
11
95.2349999999999994
21
-70.5865000000000009
0
LINE
8
BLACK
6
CONTINUOUS
10
95.2349999999999994
20
-70.5865000000000009
11
95.2226299999999952
21
-70.6486859999999979
0
LINE
8
BLACK
6
CONTINUOUS
10
95.2226299999999952
20
-70.6486859999999979
11
95.1874049999999983
21
-70.7014049999999941
0
LINE
8
BLACK
6
CONTINUOUS
10
95.1874049999999983
20
-70.7014049999999941
11
95.1346860000000021
21
-70.736629999999991
0
LINE
8
BLACK
6
CONTINUOUS
10
95.1346860000000021
20
-70.736629999999991
11
95.0724999999999909
21
-70.7489999999999952
0
LINE
8
BLACK
6
CONTINUOUS
10
95.0724999999999909
20
-70.7489999999999952
11
93.8374999999999915
21
-70.7489999999999952
0
LINE
8
BLACK
6
CONTINUOUS
10
93.8374999999999915
20
-70.7489999999999952
11
93.7753139999999945
21
-70.736629999999991
0
LINE
8
BLACK
6
CONTINUOUS
10
93.7753139999999945
20
-70.736629999999991
11
93.7225949999999983
21
-70.7014049999999941
0
LINE
8
BLACK
6
CONTINUOUS
10
93.7225949999999983
20
-70.7014049999999941
11
93.6873700000000014
21
-70.6486859999999979
0
LINE
8
BLACK
6
CONTINUOUS
10
93.6873700000000014
20
-70.6486859999999979
11
93.6749999999999972
21
-70.5865000000000009
0
LINE
8
BLACK
6
CONTINUOUS
10
93.6749999999999972
20
-70.5865000000000009
11
93.6749999999999972
21
-70.2614999999999981
0
LINE
8
BLACK
6
CONTINUOUS
10
93.6749999999999972
20
-70.2614999999999981
11
93.6873700000000014
21
-70.1993140000000011
0
LINE
8
BLACK
6
CONTINUOUS
10
93.6873700000000014
20
-70.1993140000000011
11
93.7225949999999983
21
-70.1465949999999907
0
LINE
8
BLACK
6
CONTINUOUS
10
93.7225949999999983
20
-70.1465949999999907
11
93.7753139999999945
21
-70.1113699999999938
0
LINE
8
BLACK
6
CONTINUOUS
10
93.7753139999999945
20
-70.1113699999999938
11
93.8374999999999915
21
-70.0990000000000038
0
LINE
8
BLACK
6
CONTINUOUS
10
93.8374999999999915
20
-70.0990000000000038
11
95.0724999999999909
21
-70.0990000000000038
0
LINE
8
BLACK
6
CONTINUOUS
10
95.0724999999999909
20
-70.0990000000000038
11
95.1346860000000021
21
-70.1113699999999938
0
LINE
8
BLACK
6
CONTINUOUS
10
97.8346859999999907
20
-70.1113699999999938
11
97.8874050000000011
21
-70.1465949999999907
0
LINE
8
BLACK
6
CONTINUOUS
10
97.8874050000000011
20
-70.1465949999999907
11
97.9226299999999981
21
-70.1993140000000011
0
LINE
8
BLACK
6
CONTINUOUS
10
97.9226299999999981
20
-70.1993140000000011
11
97.9350000000000023
21
-70.2614999999999981
0
LINE
8
BLACK
6
CONTINUOUS
10
97.9350000000000023
20
-70.2614999999999981
11
97.9350000000000023
21
-70.5865000000000009
0
LINE
8
BLACK
6
CONTINUOUS
10
97.9350000000000023
20
-70.5865000000000009
11
97.9226299999999981
21
-70.6486859999999979
0
LINE
8
BLACK
6
CONTINUOUS
10
97.9226299999999981
20
-70.6486859999999979
11
97.8874050000000011
21
-70.7014049999999941
0
LINE
8
BLACK
6
CONTINUOUS
10
97.8874050000000011
20
-70.7014049999999941
11
97.8346859999999907
21
-70.736629999999991
0
LINE
8
BLACK
6
CONTINUOUS
10
97.8346859999999907
20
-70.736629999999991
11
97.7724999999999937
21
-70.7489999999999952
0
LINE
8
BLACK
6
CONTINUOUS
10
97.7724999999999937
20
-70.7489999999999952
11
96.5374999999999943
21
-70.7489999999999952
0
LINE
8
BLACK
6
CONTINUOUS
10
96.5374999999999943
20
-70.7489999999999952
11
96.4753139999999973
21
-70.736629999999991
0
LINE
8
BLACK
6
CONTINUOUS
10
96.4753139999999973
20
-70.736629999999991
11
96.4225950000000012
21
-70.7014049999999941
0
LINE
8
BLACK
6
CONTINUOUS
10
96.4225950000000012
20
-70.7014049999999941
11
96.38736999999999
21
-70.6486859999999979
0
LINE
8
BLACK
6
CONTINUOUS
10
96.38736999999999
20
-70.6486859999999979
11
96.375
21
-70.5865000000000009
0
LINE
8
BLACK
6
CONTINUOUS
10
96.375
20
-70.5865000000000009
11
96.375
21
-70.2614999999999981
0
LINE
8
BLACK
6
CONTINUOUS
10
96.375
20
-70.2614999999999981
11
96.38736999999999
21
-70.1993140000000011
0
LINE
8
BLACK
6
CONTINUOUS
10
96.38736999999999
20
-70.1993140000000011
11
96.4225950000000012
21
-70.1465949999999907
0
LINE
8
BLACK
6
CONTINUOUS
10
96.4225950000000012
20
-70.1465949999999907
11
96.4753139999999973
21
-70.1113699999999938
0
LINE
8
BLACK
6
CONTINUOUS
10
96.4753139999999973
20
-70.1113699999999938
11
96.5374999999999943
21
-70.0990000000000038
0
LINE
8
BLACK
6
CONTINUOUS
10
96.5374999999999943
20
-70.0990000000000038
11
97.7724999999999937
21
-70.0990000000000038
0
LINE
8
BLACK
6
CONTINUOUS
10
97.7724999999999937
20
-70.0990000000000038
11
97.8346859999999907
21
-70.1113699999999938
0
LINE
8
BLACK
6
CONTINUOUS
10
95.1346860000000021
20
-69.1613699999999909
11
95.1874049999999983
21
-69.1965950000000021
0
LINE
8
BLACK
6
CONTINUOUS
10
95.1874049999999983
20
-69.1965950000000021
11
95.2226299999999952
21
-69.2493139999999983
0
LINE
8
BLACK
6
CONTINUOUS
10
95.2226299999999952
20
-69.2493139999999983
11
95.2349999999999994
21
-69.3114999999999952
0
LINE
8
BLACK
6
CONTINUOUS
10
95.2349999999999994
20
-69.3114999999999952
11
95.2349999999999994
21
-69.6364999999999981
0
LINE
8
BLACK
6
CONTINUOUS
10
95.2349999999999994
20
-69.6364999999999981
11
95.2226299999999952
21
-69.698685999999995
0
LINE
8
BLACK
6
CONTINUOUS
10
95.2226299999999952
20
-69.698685999999995
11
95.1874049999999983
21
-69.7514049999999912
0
LINE
8
BLACK
6
CONTINUOUS
10
95.1874049999999983
20
-69.7514049999999912
11
95.1346860000000021
21
-69.7866300000000024
0
LINE
8
BLACK
6
CONTINUOUS
10
95.1346860000000021
20
-69.7866300000000024
11
95.0724999999999909
21
-69.7989999999999924
0
LINE
8
BLACK
6
CONTINUOUS
10
95.0724999999999909
20
-69.7989999999999924
11
93.8374999999999915
21
-69.7989999999999924
0
LINE
8
BLACK
6
CONTINUOUS
10
93.8374999999999915
20
-69.7989999999999924
11
93.7753139999999945
21
-69.7866300000000024
0
LINE
8
BLACK
6
CONTINUOUS
10
93.7753139999999945
20
-69.7866300000000024
11
93.7225949999999983
21
-69.7514049999999912
0
LINE
8
BLACK
6
CONTINUOUS
10
93.7225949999999983
20
-69.7514049999999912
11
93.6873700000000014
21
-69.698685999999995
0
LINE
8
BLACK
6
CONTINUOUS
10
93.6873700000000014
20
-69.698685999999995
11
93.6749999999999972
21
-69.6364999999999981
0
LINE
8
BLACK
6
CONTINUOUS
10
93.6749999999999972
20
-69.6364999999999981
11
93.6749999999999972
21
-69.3114999999999952
0
LINE
8
BLACK
6
CONTINUOUS
10
93.6749999999999972
20
-69.3114999999999952
11
93.6873700000000014
21
-69.2493139999999983
0
LINE
8
BLACK
6
CONTINUOUS
10
93.6873700000000014
20
-69.2493139999999983
11
93.7225949999999983
21
-69.1965950000000021
0
LINE
8
BLACK
6
CONTINUOUS
10
93.7225949999999983
20
-69.1965950000000021
11
93.7753139999999945
21
-69.1613699999999909
0
LINE
8
BLACK
6
CONTINUOUS
10
93.7753139999999945
20
-69.1613699999999909
11
93.8374999999999915
21
-69.1490000000000009
0
LINE
8
BLACK
6
CONTINUOUS
10
93.8374999999999915
20
-69.1490000000000009
11
95.0724999999999909
21
-69.1490000000000009
0
LINE
8
BLACK
6
CONTINUOUS
10
95.0724999999999909
20
-69.1490000000000009
11
95.1346860000000021
21
-69.1613699999999909
0
LINE
8
BLACK
6
CONTINUOUS
10
97.8346859999999907
20
-69.1613699999999909
11
97.8874050000000011
21
-69.1965950000000021
0
LINE
8
BLACK
6
CONTINUOUS
10
97.8874050000000011
20
-69.1965950000000021
11
97.9226299999999981
21
-69.2493139999999983
0
LINE
8
BLACK
6
CONTINUOUS
10
97.9226299999999981
20
-69.2493139999999983
11
97.9350000000000023
21
-69.3114999999999952
0
LINE
8
BLACK
6
CONTINUOUS
10
97.9350000000000023
20
-69.3114999999999952
11
97.9350000000000023
21
-69.6364999999999981
0
LINE
8
BLACK
6
CONTINUOUS
10
97.9350000000000023
20
-69.6364999999999981
11
97.9226299999999981
21
-69.698685999999995
0
LINE
8
BLACK
6
CONTINUOUS
10
97.9226299999999981
20
-69.698685999999995
11
97.8874050000000011
21
-69.7514049999999912
0
LINE
8
BLACK
6
CONTINUOUS
10
97.8874050000000011
20
-69.7514049999999912
11
97.8346859999999907
21
-69.7866300000000024
0
LINE
8
BLACK
6
CONTINUOUS
10
97.8346859999999907
20
-69.7866300000000024
11
97.7724999999999937
21
-69.7989999999999924
0
LINE
8
BLACK
6
CONTINUOUS
10
97.7724999999999937
20
-69.7989999999999924
11
96.5374999999999943
21
-69.7989999999999924
0
LINE
8
BLACK
6
CONTINUOUS
10
96.5374999999999943
20
-69.7989999999999924
11
96.4753139999999973
21
-69.7866300000000024
0
LINE
8
BLACK
6
CONTINUOUS
10
96.4753139999999973
20
-69.7866300000000024
11
96.4225950000000012
21
-69.7514049999999912
0
LINE
8
BLACK
6
CONTINUOUS
10
96.4225950000000012
20
-69.7514049999999912
11
96.38736999999999
21
-69.698685999999995
0
LINE
8
BLACK
6
CONTINUOUS
10
96.38736999999999
20
-69.698685999999995
11
96.375
21
-69.6364999999999981
0
LINE
8
BLACK
6
CONTINUOUS
10
96.375
20
-69.6364999999999981
11
96.375
21
-69.3114999999999952
0
LINE
8
BLACK
6
CONTINUOUS
10
96.375
20
-69.3114999999999952
11
96.38736999999999
21
-69.2493139999999983
0
LINE
8
BLACK
6
CONTINUOUS
10
96.38736999999999
20
-69.2493139999999983
11
96.4225950000000012
21
-69.1965950000000021
0
LINE
8
BLACK
6
CONTINUOUS
10
96.4225950000000012
20
-69.1965950000000021
11
96.4753139999999973
21
-69.1613699999999909
0
LINE
8
BLACK
6
CONTINUOUS
10
96.4753139999999973
20
-69.1613699999999909
11
96.5374999999999943
21
-69.1490000000000009
0
LINE
8
BLACK
6
CONTINUOUS
10
96.5374999999999943
20
-69.1490000000000009
11
97.7724999999999937
21
-69.1490000000000009
0
LINE
8
BLACK
6
CONTINUOUS
10
97.7724999999999937
20
-69.1490000000000009
11
97.8346859999999907
21
-69.1613699999999909
0
LINE
8
BLACK
6
CONTINUOUS
10
115.9204029999999932
20
-68.467417999999995
11
115.969065999999998
21
-68.4999339999999961
0
LINE
8
BLACK
6
CONTINUOUS
10
115.969065999999998
20
-68.4999339999999961
11
116.0015819999999991
21
-68.5485970000000009
0
LINE
8
BLACK
6
CONTINUOUS
10
116.0015819999999991
20
-68.5485970000000009
11
116.012999999999991
21
-68.6059999999999945
0
LINE
8
BLACK
6
CONTINUOUS
10
116.012999999999991
20
-68.6059999999999945
11
116.012999999999991
21
-68.9059999999999917
0
LINE
8
BLACK
6
CONTINUOUS
10
116.012999999999991
20
-68.9059999999999917
11
116.0015819999999991
21
-68.9634029999999996
0
LINE
8
BLACK
6
CONTINUOUS
10
116.0015819999999991
20
-68.9634029999999996
11
115.969065999999998
21
-69.0120659999999901
0
LINE
8
BLACK
6
CONTINUOUS
10
115.969065999999998
20
-69.0120659999999901
11
115.9204029999999932
21
-69.0445819999999912
0
LINE
8
BLACK
6
CONTINUOUS
10
115.9204029999999932
20
-69.0445819999999912
11
115.8629999999999995
21
-69.0559999999999974
0
LINE
8
BLACK
6
CONTINUOUS
10
115.8629999999999995
20
-69.0559999999999974
11
115.262999999999991
21
-69.0559999999999974
0
LINE
8
BLACK
6
CONTINUOUS
10
115.262999999999991
20
-69.0559999999999974
11
115.2055969999999974
21
-69.0445819999999912
0
LINE
8
BLACK
6
CONTINUOUS
10
115.2055969999999974
20
-69.0445819999999912
11
115.1569339999999926
21
-69.0120659999999901
0
LINE
8
BLACK
6
CONTINUOUS
10
115.1569339999999926
20
-69.0120659999999901
11
115.1244179999999915
21
-68.9634029999999996
0
LINE
8
BLACK
6
CONTINUOUS
10
115.1244179999999915
20
-68.9634029999999996
11
115.1129999999999995
21
-68.9059999999999917
0
LINE
8
BLACK
6
CONTINUOUS
10
115.1129999999999995
20
-68.9059999999999917
11
115.1129999999999995
21
-68.6059999999999945
0
LINE
8
BLACK
6
CONTINUOUS
10
115.1129999999999995
20
-68.6059999999999945
11
115.1244179999999915
21
-68.5485970000000009
0
LINE
8
BLACK
6
CONTINUOUS
10
115.1244179999999915
20
-68.5485970000000009
11
115.1569339999999926
21
-68.4999339999999961
0
LINE
8
BLACK
6
CONTINUOUS
10
115.1569339999999926
20
-68.4999339999999961
11
115.2055969999999974
21
-68.467417999999995
0
LINE
8
BLACK
6
CONTINUOUS
10
115.2055969999999974
20
-68.467417999999995
11
115.262999999999991
21
-68.4560000000000031
0
LINE
8
BLACK
6
CONTINUOUS
10
115.262999999999991
20
-68.4560000000000031
11
115.8629999999999995
21
-68.4560000000000031
0
LINE
8
BLACK
6
CONTINUOUS
10
115.8629999999999995
20
-68.4560000000000031
11
115.9204029999999932
21
-68.467417999999995
0
LINE
8
BLACK
6
CONTINUOUS
10
117.0704029999999989
20
-68.467417999999995
11
117.1190659999999895
21
-68.4999339999999961
0
LINE
8
BLACK
6
CONTINUOUS
10
117.1190659999999895
20
-68.4999339999999961
11
117.1515819999999906
21
-68.5485970000000009
0
LINE
8
BLACK
6
CONTINUOUS
10
117.1515819999999906
20
-68.5485970000000009
11
117.1629999999999967
21
-68.6059999999999945
0
LINE
8
BLACK
6
CONTINUOUS
10
117.1629999999999967
20
-68.6059999999999945
11
117.1629999999999967
21
-68.9059999999999917
0
LINE
8
BLACK
6
CONTINUOUS
10
117.1629999999999967
20
-68.9059999999999917
11
117.1515819999999906
21
-68.9634029999999996
0
LINE
8
BLACK
6
CONTINUOUS
10
117.1515819999999906
20
-68.9634029999999996
11
117.1190659999999895
21
-69.0120659999999901
0
LINE
8
BLACK
6
CONTINUOUS
10
117.1190659999999895
20
-69.0120659999999901
11
117.0704029999999989
21
-69.0445819999999912
0
LINE
8
BLACK
6
CONTINUOUS
10
117.0704029999999989
20
-69.0445819999999912
11
117.012999999999991
21
-69.0559999999999974
0
LINE
8
BLACK
6
CONTINUOUS
10
117.012999999999991
20
-69.0559999999999974
11
116.4129999999999967
21
-69.0559999999999974
0
LINE
8
BLACK
6
CONTINUOUS
10
116.4129999999999967
20
-69.0559999999999974
11
116.3555969999999888
21
-69.0445819999999912
0
LINE
8
BLACK
6
CONTINUOUS
10
116.3555969999999888
20
-69.0445819999999912
11
116.3069339999999983
21
-69.0120659999999901
0
LINE
8
BLACK
6
CONTINUOUS
10
116.3069339999999983
20
-69.0120659999999901
11
116.2744179999999972
21
-68.9634029999999996
0
LINE
8
BLACK
6
CONTINUOUS
10
116.2744179999999972
20
-68.9634029999999996
11
116.262999999999991
21
-68.9059999999999917
0
LINE
8
BLACK
6
CONTINUOUS
10
116.262999999999991
20
-68.9059999999999917
11
116.262999999999991
21
-68.6059999999999945
0
LINE
8
BLACK
6
CONTINUOUS
10
116.262999999999991
20
-68.6059999999999945
11
116.2744179999999972
21
-68.5485970000000009
0
LINE
8
BLACK
6
CONTINUOUS
10
116.2744179999999972
20
-68.5485970000000009
11
116.3069339999999983
21
-68.4999339999999961
0
LINE
8
BLACK
6
CONTINUOUS
10
116.3069339999999983
20
-68.4999339999999961
11
116.3555969999999888
21
-68.467417999999995
0
LINE
8
BLACK
6
CONTINUOUS
10
116.3555969999999888
20
-68.467417999999995
11
116.4129999999999967
21
-68.4560000000000031
0
LINE
8
BLACK
6
CONTINUOUS
10
116.4129999999999967
20
-68.4560000000000031
11
117.012999999999991
21
-68.4560000000000031
0
LINE
8
BLACK
6
CONTINUOUS
10
117.012999999999991
20
-68.4560000000000031
11
117.0704029999999989
21
-68.467417999999995
0
LINE
8
BLACK
6
CONTINUOUS
10
118.2204029999999904
20
-68.467417999999995
11
118.2690659999999951
21
-68.4999339999999961
0
LINE
8
BLACK
6
CONTINUOUS
10
118.2690659999999951
20
-68.4999339999999961
11
118.3015819999999962
21
-68.5485970000000009
0
LINE
8
BLACK
6
CONTINUOUS
10
118.3015819999999962
20
-68.5485970000000009
11
118.3129999999999882
21
-68.6059999999999945
0
LINE
8
BLACK
6
CONTINUOUS
10
118.3129999999999882
20
-68.6059999999999945
11
118.3129999999999882
21
-68.9059999999999917
0
LINE
8
BLACK
6
CONTINUOUS
10
118.3129999999999882
20
-68.9059999999999917
11
118.3015819999999962
21
-68.9634029999999996
0
LINE
8
BLACK
6
CONTINUOUS
10
118.3015819999999962
20
-68.9634029999999996
11
118.2690659999999951
21
-69.0120659999999901
0
LINE
8
BLACK
6
CONTINUOUS
10
118.2690659999999951
20
-69.0120659999999901
11
118.2204029999999904
21
-69.0445819999999912
0
LINE
8
BLACK
6
CONTINUOUS
10
118.2204029999999904
20
-69.0445819999999912
11
118.1629999999999967
21
-69.0559999999999974
0
LINE
8
BLACK
6
CONTINUOUS
10
118.1629999999999967
20
-69.0559999999999974
11
117.5629999999999882
21
-69.0559999999999974
0
LINE
8
BLACK
6
CONTINUOUS
10
117.5629999999999882
20
-69.0559999999999974
11
117.5055969999999945
21
-69.0445819999999912
0
LINE
8
BLACK
6
CONTINUOUS
10
117.5055969999999945
20
-69.0445819999999912
11
117.4569339999999897
21
-69.0120659999999901
0
LINE
8
BLACK
6
CONTINUOUS
10
117.4569339999999897
20
-69.0120659999999901
11
117.4244179999999886
21
-68.9634029999999996
0
LINE
8
BLACK
6
CONTINUOUS
10
117.4244179999999886
20
-68.9634029999999996
11
117.4129999999999967
21
-68.9059999999999917
0
LINE
8
BLACK
6
CONTINUOUS
10
117.4129999999999967
20
-68.9059999999999917
11
117.4129999999999967
21
-68.6059999999999945
0
LINE
8
BLACK
6
CONTINUOUS
10
117.4129999999999967
20
-68.6059999999999945
11
117.4244179999999886
21
-68.5485970000000009
0
LINE
8
BLACK
6
CONTINUOUS
10
117.4244179999999886
20
-68.5485970000000009
11
117.4569339999999897
21
-68.4999339999999961
0
LINE
8
BLACK
6
CONTINUOUS
10
117.4569339999999897
20
-68.4999339999999961
11
117.5055969999999945
21
-68.467417999999995
0
LINE
8
BLACK
6
CONTINUOUS
10
117.5055969999999945
20
-68.467417999999995
11
117.5629999999999882
21
-68.4560000000000031
0
LINE
8
BLACK
6
CONTINUOUS
10
117.5629999999999882
20
-68.4560000000000031
11
118.1629999999999967
21
-68.4560000000000031
0
LINE
8
BLACK
6
CONTINUOUS
10
118.1629999999999967
20
-68.4560000000000031
11
118.2204029999999904
21
-68.467417999999995
0
LINE
8
BLACK
6
CONTINUOUS
10
101.816402999999994
20
-68.3134179999999986
11
101.8650659999999988
21
-68.3459339999999997
0
LINE
8
BLACK
6
CONTINUOUS
10
101.8650659999999988
20
-68.3459339999999997
11
101.8975819999999999
21
-68.3945969999999903
0
LINE
8
BLACK
6
CONTINUOUS
10
101.8975819999999999
20
-68.3945969999999903
11
101.9089999999999918
21
-68.4519999999999982
0
LINE
8
BLACK
6
CONTINUOUS
10
101.9089999999999918
20
-68.4519999999999982
11
101.9089999999999918
21
-68.7519999999999953
0
LINE
8
BLACK
6
CONTINUOUS
10
101.9089999999999918
20
-68.7519999999999953
11
101.8975819999999999
21
-68.8094030000000032
0
LINE
8
BLACK
6
CONTINUOUS
10
101.8975819999999999
20
-68.8094030000000032
11
101.8650659999999988
21
-68.8580659999999938
0
LINE
8
BLACK
6
CONTINUOUS
10
101.8650659999999988
20
-68.8580659999999938
11
101.816402999999994
21
-68.8905819999999949
0
LINE
8
BLACK
6
CONTINUOUS
10
101.816402999999994
20
-68.8905819999999949
11
101.7590000000000003
21
-68.902000000000001
0
LINE
8
BLACK
6
CONTINUOUS
10
101.7590000000000003
20
-68.902000000000001
11
101.1589999999999918
21
-68.902000000000001
0
LINE
8
BLACK
6
CONTINUOUS
10
101.1589999999999918
20
-68.902000000000001
11
101.1015969999999982
21
-68.8905819999999949
0
LINE
8
BLACK
6
CONTINUOUS
10
101.1015969999999982
20
-68.8905819999999949
11
101.0529339999999934
21
-68.8580659999999938
0
LINE
8
BLACK
6
CONTINUOUS
10
101.0529339999999934
20
-68.8580659999999938
11
101.0204179999999923
21
-68.8094030000000032
0
LINE
8
BLACK
6
CONTINUOUS
10
101.0204179999999923
20
-68.8094030000000032
11
101.0090000000000003
21
-68.7519999999999953
0
LINE
8
BLACK
6
CONTINUOUS
10
101.0090000000000003
20
-68.7519999999999953
11
101.0090000000000003
21
-68.4519999999999982
0
LINE
8
BLACK
6
CONTINUOUS
10
101.0090000000000003
20
-68.4519999999999982
11
101.0204179999999923
21
-68.3945969999999903
0
LINE
8
BLACK
6
CONTINUOUS
10
101.0204179999999923
20
-68.3945969999999903
11
101.0529339999999934
21
-68.3459339999999997
0
LINE
8
BLACK
6
CONTINUOUS
10
101.0529339999999934
20
-68.3459339999999997
11
101.1015969999999982
21
-68.3134179999999986
0
LINE
8
BLACK
6
CONTINUOUS
10
101.1015969999999982
20
-68.3134179999999986
11
101.1589999999999918
21
-68.3019999999999925
0
LINE
8
BLACK
6
CONTINUOUS
10
101.1589999999999918
20
-68.3019999999999925
11
101.7590000000000003
21
-68.3019999999999925
0
LINE
8
BLACK
6
CONTINUOUS
10
101.7590000000000003
20
-68.3019999999999925
11
101.816402999999994
21
-68.3134179999999986
0
LINE
8
BLACK
6
CONTINUOUS
10
102.9664029999999997
20
-68.3134179999999986
11
103.0150659999999903
21
-68.3459339999999997
0
LINE
8
BLACK
6
CONTINUOUS
10
103.0150659999999903
20
-68.3459339999999997
11
103.0475819999999914
21
-68.3945969999999903
0
LINE
8
BLACK
6
CONTINUOUS
10
103.0475819999999914
20
-68.3945969999999903
11
103.0589999999999975
21
-68.4519999999999982
0
LINE
8
BLACK
6
CONTINUOUS
10
103.0589999999999975
20
-68.4519999999999982
11
103.0589999999999975
21
-68.7519999999999953
0
LINE
8
BLACK
6
CONTINUOUS
10
103.0589999999999975
20
-68.7519999999999953
11
103.0475819999999914
21
-68.8094030000000032
0
LINE
8
BLACK
6
CONTINUOUS
10
103.0475819999999914
20
-68.8094030000000032
11
103.0150659999999903
21
-68.8580659999999938
0
LINE
8
BLACK
6
CONTINUOUS
10
103.0150659999999903
20
-68.8580659999999938
11
102.9664029999999997
21
-68.8905819999999949
0
LINE
8
BLACK
6
CONTINUOUS
10
102.9664029999999997
20
-68.8905819999999949
11
102.9089999999999918
21
-68.902000000000001
0
LINE
8
BLACK
6
CONTINUOUS
10
102.9089999999999918
20
-68.902000000000001
11
102.3089999999999975
21
-68.902000000000001
0
LINE
8
BLACK
6
CONTINUOUS
10
102.3089999999999975
20
-68.902000000000001
11
102.2515969999999896
21
-68.8905819999999949
0
LINE
8
BLACK
6
CONTINUOUS
10
102.2515969999999896
20
-68.8905819999999949
11
102.2029339999999991
21
-68.8580659999999938
0
LINE
8
BLACK
6
CONTINUOUS
10
102.2029339999999991
20
-68.8580659999999938
11
102.170417999999998
21
-68.8094030000000032
0
LINE
8
BLACK
6
CONTINUOUS
10
102.170417999999998
20
-68.8094030000000032
11
102.1589999999999918
21
-68.7519999999999953
0
LINE
8
BLACK
6
CONTINUOUS
10
102.1589999999999918
20
-68.7519999999999953
11
102.1589999999999918
21
-68.4519999999999982
0
LINE
8
BLACK
6
CONTINUOUS
10
102.1589999999999918
20
-68.4519999999999982
11
102.170417999999998
21
-68.3945969999999903
0
LINE
8
BLACK
6
CONTINUOUS
10
102.170417999999998
20
-68.3945969999999903
11
102.2029339999999991
21
-68.3459339999999997
0
LINE
8
BLACK
6
CONTINUOUS
10
102.2029339999999991
20
-68.3459339999999997
11
102.2515969999999896
21
-68.3134179999999986
0
LINE
8
BLACK
6
CONTINUOUS
10
102.2515969999999896
20
-68.3134179999999986
11
102.3089999999999975
21
-68.3019999999999925
0
LINE
8
BLACK
6
CONTINUOUS
10
102.3089999999999975
20
-68.3019999999999925
11
102.9089999999999918
21
-68.3019999999999925
0
LINE
8
BLACK
6
CONTINUOUS
10
102.9089999999999918
20
-68.3019999999999925
11
102.9664029999999997
21
-68.3134179999999986
0
LINE
8
BLACK
6
CONTINUOUS
10
104.1164029999999912
20
-68.3134179999999986
11
104.1650659999999959
21
-68.3459339999999997
0
LINE
8
BLACK
6
CONTINUOUS
10
104.1650659999999959
20
-68.3459339999999997
11
104.197581999999997
21
-68.3945969999999903
0
LINE
8
BLACK
6
CONTINUOUS
10
104.197581999999997
20
-68.3945969999999903
11
104.208999999999989
21
-68.4519999999999982
0
LINE
8
BLACK
6
CONTINUOUS
10
104.208999999999989
20
-68.4519999999999982
11
104.208999999999989
21
-68.7519999999999953
0
LINE
8
BLACK
6
CONTINUOUS
10
104.208999999999989
20
-68.7519999999999953
11
104.197581999999997
21
-68.8094030000000032
0
LINE
8
BLACK
6
CONTINUOUS
10
104.197581999999997
20
-68.8094030000000032
11
104.1650659999999959
21
-68.8580659999999938
0
LINE
8
BLACK
6
CONTINUOUS
10
104.1650659999999959
20
-68.8580659999999938
11
104.1164029999999912
21
-68.8905819999999949
0
LINE
8
BLACK
6
CONTINUOUS
10
104.1164029999999912
20
-68.8905819999999949
11
104.0589999999999975
21
-68.902000000000001
0
LINE
8
BLACK
6
CONTINUOUS
10
104.0589999999999975
20
-68.902000000000001
11
103.458999999999989
21
-68.902000000000001
0
LINE
8
BLACK
6
CONTINUOUS
10
103.458999999999989
20
-68.902000000000001
11
103.4015969999999953
21
-68.8905819999999949
0
LINE
8
BLACK
6
CONTINUOUS
10
103.4015969999999953
20
-68.8905819999999949
11
103.3529339999999905
21
-68.8580659999999938
0
LINE
8
BLACK
6
CONTINUOUS
10
103.3529339999999905
20
-68.8580659999999938
11
103.3204179999999894
21
-68.8094030000000032
0
LINE
8
BLACK
6
CONTINUOUS
10
103.3204179999999894
20
-68.8094030000000032
11
103.3089999999999975
21
-68.7519999999999953
0
LINE
8
BLACK
6
CONTINUOUS
10
103.3089999999999975
20
-68.7519999999999953
11
103.3089999999999975
21
-68.4519999999999982
0
LINE
8
BLACK
6
CONTINUOUS
10
103.3089999999999975
20
-68.4519999999999982
11
103.3204179999999894
21
-68.3945969999999903
0
LINE
8
BLACK
6
CONTINUOUS
10
103.3204179999999894
20
-68.3945969999999903
11
103.3529339999999905
21
-68.3459339999999997
0
LINE
8
BLACK
6
CONTINUOUS
10
103.3529339999999905
20
-68.3459339999999997
11
103.4015969999999953
21
-68.3134179999999986
0
LINE
8
BLACK
6
CONTINUOUS
10
103.4015969999999953
20
-68.3134179999999986
11
103.458999999999989
21
-68.3019999999999925
0
LINE
8
BLACK
6
CONTINUOUS
10
103.458999999999989
20
-68.3019999999999925
11
104.0589999999999975
21
-68.3019999999999925
0
LINE
8
BLACK
6
CONTINUOUS
10
104.0589999999999975
20
-68.3019999999999925
11
104.1164029999999912
21
-68.3134179999999986
0
LINE
8
BLACK
6
CONTINUOUS
10
115.9204029999999932
20
-67.6174180000000007
11
115.969065999999998
21
-67.6499340000000018
0
LINE
8
BLACK
6
CONTINUOUS
10
115.969065999999998
20
-67.6499340000000018
11
116.0015819999999991
21
-67.6985969999999924
0
LINE
8
BLACK
6
CONTINUOUS
10
116.0015819999999991
20
-67.6985969999999924
11
116.012999999999991
21
-67.7560000000000002
0
LINE
8
BLACK
6
CONTINUOUS
10
116.012999999999991
20
-67.7560000000000002
11
116.012999999999991
21
-68.0559999999999974
0
LINE
8
BLACK
6
CONTINUOUS
10
116.012999999999991
20
-68.0559999999999974
11
116.0015819999999991
21
-68.113402999999991
0
LINE
8
BLACK
6
CONTINUOUS
10
116.0015819999999991
20
-68.113402999999991
11
115.969065999999998
21
-68.1620659999999958
0
LINE
8
BLACK
6
CONTINUOUS
10
115.969065999999998
20
-68.1620659999999958
11
115.9204029999999932
21
-68.1945819999999969
0
LINE
8
BLACK
6
CONTINUOUS
10
115.9204029999999932
20
-68.1945819999999969
11
115.8629999999999995
21
-68.2060000000000031
0
LINE
8
BLACK
6
CONTINUOUS
10
115.8629999999999995
20
-68.2060000000000031
11
115.262999999999991
21
-68.2060000000000031
0
LINE
8
BLACK
6
CONTINUOUS
10
115.262999999999991
20
-68.2060000000000031
11
115.2055969999999974
21
-68.1945819999999969
0
LINE
8
BLACK
6
CONTINUOUS
10
115.2055969999999974
20
-68.1945819999999969
11
115.1569339999999926
21
-68.1620659999999958
0
LINE
8
BLACK
6
CONTINUOUS
10
115.1569339999999926
20
-68.1620659999999958
11
115.1244179999999915
21
-68.113402999999991
0
LINE
8
BLACK
6
CONTINUOUS
10
115.1244179999999915
20
-68.113402999999991
11
115.1129999999999995
21
-68.0559999999999974
0
LINE
8
BLACK
6
CONTINUOUS
10
115.1129999999999995
20
-68.0559999999999974
11
115.1129999999999995
21
-67.7560000000000002
0
LINE
8
BLACK
6
CONTINUOUS
10
115.1129999999999995
20
-67.7560000000000002
11
115.1244179999999915
21
-67.6985969999999924
0
LINE
8
BLACK
6
CONTINUOUS
10
115.1244179999999915
20
-67.6985969999999924
11
115.1569339999999926
21
-67.6499340000000018
0
LINE
8
BLACK
6
CONTINUOUS
10
115.1569339999999926
20
-67.6499340000000018
11
115.2055969999999974
21
-67.6174180000000007
0
LINE
8
BLACK
6
CONTINUOUS
10
115.2055969999999974
20
-67.6174180000000007
11
115.262999999999991
21
-67.6059999999999945
0
LINE
8
BLACK
6
CONTINUOUS
10
115.262999999999991
20
-67.6059999999999945
11
115.8629999999999995
21
-67.6059999999999945
0
LINE
8
BLACK
6
CONTINUOUS
10
115.8629999999999995
20
-67.6059999999999945
11
115.9204029999999932
21
-67.6174180000000007
0
LINE
8
BLACK
6
CONTINUOUS
10
117.0704029999999989
20
-67.6174180000000007
11
117.1190659999999895
21
-67.6499340000000018
0
LINE
8
BLACK
6
CONTINUOUS
10
117.1190659999999895
20
-67.6499340000000018
11
117.1515819999999906
21
-67.6985969999999924
0
LINE
8
BLACK
6
CONTINUOUS
10
117.1515819999999906
20
-67.6985969999999924
11
117.1629999999999967
21
-67.7560000000000002
0
LINE
8
BLACK
6
CONTINUOUS
10
117.1629999999999967
20
-67.7560000000000002
11
117.1629999999999967
21
-68.0559999999999974
0
LINE
8
BLACK
6
CONTINUOUS
10
117.1629999999999967
20
-68.0559999999999974
11
117.1515819999999906
21
-68.113402999999991
0
LINE
8
BLACK
6
CONTINUOUS
10
117.1515819999999906
20
-68.113402999999991
11
117.1190659999999895
21
-68.1620659999999958
0
LINE
8
BLACK
6
CONTINUOUS
10
117.1190659999999895
20
-68.1620659999999958
11
117.0704029999999989
21
-68.1945819999999969
0
LINE
8
BLACK
6
CONTINUOUS
10
117.0704029999999989
20
-68.1945819999999969
11
117.012999999999991
21
-68.2060000000000031
0
LINE
8
BLACK
6
CONTINUOUS
10
117.012999999999991
20
-68.2060000000000031
11
116.4129999999999967
21
-68.2060000000000031
0
LINE
8
BLACK
6
CONTINUOUS
10
116.4129999999999967
20
-68.2060000000000031
11
116.3555969999999888
21
-68.1945819999999969
0
LINE
8
BLACK
6
CONTINUOUS
10
116.3555969999999888
20
-68.1945819999999969
11
116.3069339999999983
21
-68.1620659999999958
0
LINE
8
BLACK
6
CONTINUOUS
10
116.3069339999999983
20
-68.1620659999999958
11
116.2744179999999972
21
-68.113402999999991
0
LINE
8
BLACK
6
CONTINUOUS
10
116.2744179999999972
20
-68.113402999999991
11
116.262999999999991
21
-68.0559999999999974
0
LINE
8
BLACK
6
CONTINUOUS
10
116.262999999999991
20
-68.0559999999999974
11
116.262999999999991
21
-67.7560000000000002
0
LINE
8
BLACK
6
CONTINUOUS
10
116.262999999999991
20
-67.7560000000000002
11
116.2744179999999972
21
-67.6985969999999924
0
LINE
8
BLACK
6
CONTINUOUS
10
116.2744179999999972
20
-67.6985969999999924
11
116.3069339999999983
21
-67.6499340000000018
0
LINE
8
BLACK
6
CONTINUOUS
10
116.3069339999999983
20
-67.6499340000000018
11
116.3555969999999888
21
-67.6174180000000007
0
LINE
8
BLACK
6
CONTINUOUS
10
116.3555969999999888
20
-67.6174180000000007
11
116.4129999999999967
21
-67.6059999999999945
0
LINE
8
BLACK
6
CONTINUOUS
10
116.4129999999999967
20
-67.6059999999999945
11
117.012999999999991
21
-67.6059999999999945
0
LINE
8
BLACK
6
CONTINUOUS
10
117.012999999999991
20
-67.6059999999999945
11
117.0704029999999989
21
-67.6174180000000007
0
LINE
8
BLACK
6
CONTINUOUS
10
118.2204029999999904
20
-67.6174180000000007
11
118.2690659999999951
21
-67.6499340000000018
0
LINE
8
BLACK
6
CONTINUOUS
10
118.2690659999999951
20
-67.6499340000000018
11
118.3015819999999962
21
-67.6985969999999924
0
LINE
8
BLACK
6
CONTINUOUS
10
118.3015819999999962
20
-67.6985969999999924
11
118.3129999999999882
21
-67.7560000000000002
0
LINE
8
BLACK
6
CONTINUOUS
10
118.3129999999999882
20
-67.7560000000000002
11
118.3129999999999882
21
-68.0559999999999974
0
LINE
8
BLACK
6
CONTINUOUS
10
118.3129999999999882
20
-68.0559999999999974
11
118.3015819999999962
21
-68.113402999999991
0
LINE
8
BLACK
6
CONTINUOUS
10
118.3015819999999962
20
-68.113402999999991
11
118.2690659999999951
21
-68.1620659999999958
0
LINE
8
BLACK
6
CONTINUOUS
10
118.2690659999999951
20
-68.1620659999999958
11
118.2204029999999904
21
-68.1945819999999969
0
LINE
8
BLACK
6
CONTINUOUS
10
118.2204029999999904
20
-68.1945819999999969
11
118.1629999999999967
21
-68.2060000000000031
0
LINE
8
BLACK
6
CONTINUOUS
10
118.1629999999999967
20
-68.2060000000000031
11
117.5629999999999882
21
-68.2060000000000031
0
LINE
8
BLACK
6
CONTINUOUS
10
117.5629999999999882
20
-68.2060000000000031
11
117.5055969999999945
21
-68.1945819999999969
0
LINE
8
BLACK
6
CONTINUOUS
10
117.5055969999999945
20
-68.1945819999999969
11
117.4569339999999897
21
-68.1620659999999958
0
LINE
8
BLACK
6
CONTINUOUS
10
117.4569339999999897
20
-68.1620659999999958
11
117.4244179999999886
21
-68.113402999999991
0
LINE
8
BLACK
6
CONTINUOUS
10
117.4244179999999886
20
-68.113402999999991
11
117.4129999999999967
21
-68.0559999999999974
0
LINE
8
BLACK
6
CONTINUOUS
10
117.4129999999999967
20
-68.0559999999999974
11
117.4129999999999967
21
-67.7560000000000002
0
LINE
8
BLACK
6
CONTINUOUS
10
117.4129999999999967
20
-67.7560000000000002
11
117.4244179999999886
21
-67.6985969999999924
0
LINE
8
BLACK
6
CONTINUOUS
10
117.4244179999999886
20
-67.6985969999999924
11
117.4569339999999897
21
-67.6499340000000018
0
LINE
8
BLACK
6
CONTINUOUS
10
117.4569339999999897
20
-67.6499340000000018
11
117.5055969999999945
21
-67.6174180000000007
0
LINE
8
BLACK
6
CONTINUOUS
10
117.5055969999999945
20
-67.6174180000000007
11
117.5629999999999882
21
-67.6059999999999945
0
LINE
8
BLACK
6
CONTINUOUS
10
117.5629999999999882
20
-67.6059999999999945
11
118.1629999999999967
21
-67.6059999999999945
0
LINE
8
BLACK
6
CONTINUOUS
10
118.1629999999999967
20
-67.6059999999999945
11
118.2204029999999904
21
-67.6174180000000007
0
LINE
8
BLACK
6
CONTINUOUS
10
101.816402999999994
20
-67.4634179999999901
11
101.8650659999999988
21
-67.4959339999999912
0
LINE
8
BLACK
6
CONTINUOUS
10
101.8650659999999988
20
-67.4959339999999912
11
101.8975819999999999
21
-67.544596999999996
0
LINE
8
BLACK
6
CONTINUOUS
10
101.8975819999999999
20
-67.544596999999996
11
101.9089999999999918
21
-67.6020000000000039
0
LINE
8
BLACK
6
CONTINUOUS
10
101.9089999999999918
20
-67.6020000000000039
11
101.9089999999999918
21
-67.902000000000001
0
LINE
8
BLACK
6
CONTINUOUS
10
101.9089999999999918
20
-67.902000000000001
11
101.8975819999999999
21
-67.9594029999999947
0
LINE
8
BLACK
6
CONTINUOUS
10
101.8975819999999999
20
-67.9594029999999947
11
101.8650659999999988
21
-68.0080659999999995
0
LINE
8
BLACK
6
CONTINUOUS
10
101.8650659999999988
20
-68.0080659999999995
11
101.816402999999994
21
-68.0405820000000006
0
LINE
8
BLACK
6
CONTINUOUS
10
101.816402999999994
20
-68.0405820000000006
11
101.7590000000000003
21
-68.0519999999999925
0
LINE
8
BLACK
6
CONTINUOUS
10
101.7590000000000003
20
-68.0519999999999925
11
101.1589999999999918
21
-68.0519999999999925
0
LINE
8
BLACK
6
CONTINUOUS
10
101.1589999999999918
20
-68.0519999999999925
11
101.1015969999999982
21
-68.0405820000000006
0
LINE
8
BLACK
6
CONTINUOUS
10
101.1015969999999982
20
-68.0405820000000006
11
101.0529339999999934
21
-68.0080659999999995
0
LINE
8
BLACK
6
CONTINUOUS
10
101.0529339999999934
20
-68.0080659999999995
11
101.0204179999999923
21
-67.9594029999999947
0
LINE
8
BLACK
6
CONTINUOUS
10
101.0204179999999923
20
-67.9594029999999947
11
101.0090000000000003
21
-67.902000000000001
0
LINE
8
BLACK
6
CONTINUOUS
10
101.0090000000000003
20
-67.902000000000001
11
101.0090000000000003
21
-67.6020000000000039
0
LINE
8
BLACK
6
CONTINUOUS
10
101.0090000000000003
20
-67.6020000000000039
11
101.0204179999999923
21
-67.544596999999996
0
LINE
8
BLACK
6
CONTINUOUS
10
101.0204179999999923
20
-67.544596999999996
11
101.0529339999999934
21
-67.4959339999999912
0
LINE
8
BLACK
6
CONTINUOUS
10
101.0529339999999934
20
-67.4959339999999912
11
101.1015969999999982
21
-67.4634179999999901
0
LINE
8
BLACK
6
CONTINUOUS
10
101.1015969999999982
20
-67.4634179999999901
11
101.1589999999999918
21
-67.4519999999999982
0
LINE
8
BLACK
6
CONTINUOUS
10
101.1589999999999918
20
-67.4519999999999982
11
101.7590000000000003
21
-67.4519999999999982
0
LINE
8
BLACK
6
CONTINUOUS
10
101.7590000000000003
20
-67.4519999999999982
11
101.816402999999994
21
-67.4634179999999901
0
LINE
8
BLACK
6
CONTINUOUS
10
102.9664029999999997
20
-67.4634179999999901
11
103.0150659999999903
21
-67.4959339999999912
0
LINE
8
BLACK
6
CONTINUOUS
10
103.0150659999999903
20
-67.4959339999999912
11
103.0475819999999914
21
-67.544596999999996
0
LINE
8
BLACK
6
CONTINUOUS
10
103.0475819999999914
20
-67.544596999999996
11
103.0589999999999975
21
-67.6020000000000039
0
LINE
8
BLACK
6
CONTINUOUS
10
103.0589999999999975
20
-67.6020000000000039
11
103.0589999999999975
21
-67.902000000000001
0
LINE
8
BLACK
6
CONTINUOUS
10
103.0589999999999975
20
-67.902000000000001
11
103.0475819999999914
21
-67.9594029999999947
0
LINE
8
BLACK
6
CONTINUOUS
10
103.0475819999999914
20
-67.9594029999999947
11
103.0150659999999903
21
-68.0080659999999995
0
LINE
8
BLACK
6
CONTINUOUS
10
103.0150659999999903
20
-68.0080659999999995
11
102.9664029999999997
21
-68.0405820000000006
0
LINE
8
BLACK
6
CONTINUOUS
10
102.9664029999999997
20
-68.0405820000000006
11
102.9089999999999918
21
-68.0519999999999925
0
LINE
8
BLACK
6
CONTINUOUS
10
102.9089999999999918
20
-68.0519999999999925
11
102.3089999999999975
21
-68.0519999999999925
0
LINE
8
BLACK
6
CONTINUOUS
10
102.3089999999999975
20
-68.0519999999999925
11
102.2515969999999896
21
-68.0405820000000006
0
LINE
8
BLACK
6
CONTINUOUS
10
102.2515969999999896
20
-68.0405820000000006
11
102.2029339999999991
21
-68.0080659999999995
0
LINE
8
BLACK
6
CONTINUOUS
10
102.2029339999999991
20
-68.0080659999999995
11
102.170417999999998
21
-67.9594029999999947
0
LINE
8
BLACK
6
CONTINUOUS
10
102.170417999999998
20
-67.9594029999999947
11
102.1589999999999918
21
-67.902000000000001
0
LINE
8
BLACK
6
CONTINUOUS
10
102.1589999999999918
20
-67.902000000000001
11
102.1589999999999918
21
-67.6020000000000039
0
LINE
8
BLACK
6
CONTINUOUS
10
102.1589999999999918
20
-67.6020000000000039
11
102.170417999999998
21
-67.544596999999996
0
LINE
8
BLACK
6
CONTINUOUS
10
102.170417999999998
20
-67.544596999999996
11
102.2029339999999991
21
-67.4959339999999912
0
LINE
8
BLACK
6
CONTINUOUS
10
102.2029339999999991
20
-67.4959339999999912
11
102.2515969999999896
21
-67.4634179999999901
0
LINE
8
BLACK
6
CONTINUOUS
10
102.2515969999999896
20
-67.4634179999999901
11
102.3089999999999975
21
-67.4519999999999982
0
LINE
8
BLACK
6
CONTINUOUS
10
102.3089999999999975
20
-67.4519999999999982
11
102.9089999999999918
21
-67.4519999999999982
0
LINE
8
BLACK
6
CONTINUOUS
10
102.9089999999999918
20
-67.4519999999999982
11
102.9664029999999997
21
-67.4634179999999901
0
LINE
8
BLACK
6
CONTINUOUS
10
104.1164029999999912
20
-67.4634179999999901
11
104.1650659999999959
21
-67.4959339999999912
0
LINE
8
BLACK
6
CONTINUOUS
10
104.1650659999999959
20
-67.4959339999999912
11
104.197581999999997
21
-67.544596999999996
0
LINE
8
BLACK
6
CONTINUOUS
10
104.197581999999997
20
-67.544596999999996
11
104.208999999999989
21
-67.6020000000000039
0
LINE
8
BLACK
6
CONTINUOUS
10
104.208999999999989
20
-67.6020000000000039
11
104.208999999999989
21
-67.902000000000001
0
LINE
8
BLACK
6
CONTINUOUS
10
104.208999999999989
20
-67.902000000000001
11
104.197581999999997
21
-67.9594029999999947
0
LINE
8
BLACK
6
CONTINUOUS
10
104.197581999999997
20
-67.9594029999999947
11
104.1650659999999959
21
-68.0080659999999995
0
LINE
8
BLACK
6
CONTINUOUS
10
104.1650659999999959
20
-68.0080659999999995
11
104.1164029999999912
21
-68.0405820000000006
0
LINE
8
BLACK
6
CONTINUOUS
10
104.1164029999999912
20
-68.0405820000000006
11
104.0589999999999975
21
-68.0519999999999925
0
LINE
8
BLACK
6
CONTINUOUS
10
104.0589999999999975
20
-68.0519999999999925
11
103.458999999999989
21
-68.0519999999999925
0
LINE
8
BLACK
6
CONTINUOUS
10
103.458999999999989
20
-68.0519999999999925
11
103.4015969999999953
21
-68.0405820000000006
0
LINE
8
BLACK
6
CONTINUOUS
10
103.4015969999999953
20
-68.0405820000000006
11
103.3529339999999905
21
-68.0080659999999995
0
LINE
8
BLACK
6
CONTINUOUS
10
103.3529339999999905
20
-68.0080659999999995
11
103.3204179999999894
21
-67.9594029999999947
0
LINE
8
BLACK
6
CONTINUOUS
10
103.3204179999999894
20
-67.9594029999999947
11
103.3089999999999975
21
-67.902000000000001
0
LINE
8
BLACK
6
CONTINUOUS
10
103.3089999999999975
20
-67.902000000000001
11
103.3089999999999975
21
-67.6020000000000039
0
LINE
8
BLACK
6
CONTINUOUS
10
103.3089999999999975
20
-67.6020000000000039
11
103.3204179999999894
21
-67.544596999999996
0
LINE
8
BLACK
6
CONTINUOUS
10
103.3204179999999894
20
-67.544596999999996
11
103.3529339999999905
21
-67.4959339999999912
0
LINE
8
BLACK
6
CONTINUOUS
10
103.3529339999999905
20
-67.4959339999999912
11
103.4015969999999953
21
-67.4634179999999901
0
LINE
8
BLACK
6
CONTINUOUS
10
103.4015969999999953
20
-67.4634179999999901
11
103.458999999999989
21
-67.4519999999999982
0
LINE
8
BLACK
6
CONTINUOUS
10
103.458999999999989
20
-67.4519999999999982
11
104.0589999999999975
21
-67.4519999999999982
0
LINE
8
BLACK
6
CONTINUOUS
10
104.0589999999999975
20
-67.4519999999999982
11
104.1164029999999912
21
-67.4634179999999901
0
LINE
8
BLACK
6
CONTINUOUS
10
115.9204029999999932
20
-66.7674179999999922
11
115.969065999999998
21
-66.7999339999999933
0
LINE
8
BLACK
6
CONTINUOUS
10
115.969065999999998
20
-66.7999339999999933
11
116.0015819999999991
21
-66.848596999999998
0
LINE
8
BLACK
6
CONTINUOUS
10
116.0015819999999991
20
-66.848596999999998
11
116.012999999999991
21
-66.9059999999999917
0
LINE
8
BLACK
6
CONTINUOUS
10
116.012999999999991
20
-66.9059999999999917
11
116.012999999999991
21
-67.2060000000000031
0
LINE
8
BLACK
6
CONTINUOUS
10
116.012999999999991
20
-67.2060000000000031
11
116.0015819999999991
21
-67.2634029999999967
0
LINE
8
BLACK
6
CONTINUOUS
10
116.0015819999999991
20
-67.2634029999999967
11
115.969065999999998
21
-67.3120660000000015
0
LINE
8
BLACK
6
CONTINUOUS
10
115.969065999999998
20
-67.3120660000000015
11
115.9204029999999932
21
-67.3445820000000026
0
LINE
8
BLACK
6
CONTINUOUS
10
115.9204029999999932
20
-67.3445820000000026
11
115.8629999999999995
21
-67.3559999999999945
0
LINE
8
BLACK
6
CONTINUOUS
10
115.8629999999999995
20
-67.3559999999999945
11
115.262999999999991
21
-67.3559999999999945
0
LINE
8
BLACK
6
CONTINUOUS
10
115.262999999999991
20
-67.3559999999999945
11
115.2055969999999974
21
-67.3445820000000026
0
LINE
8
BLACK
6
CONTINUOUS
10
115.2055969999999974
20
-67.3445820000000026
11
115.1569339999999926
21
-67.3120660000000015
0
LINE
8
BLACK
6
CONTINUOUS
10
115.1569339999999926
20
-67.3120660000000015
11
115.1244179999999915
21
-67.2634029999999967
0
LINE
8
BLACK
6
CONTINUOUS
10
115.1244179999999915
20
-67.2634029999999967
11
115.1129999999999995
21
-67.2060000000000031
0
LINE
8
BLACK
6
CONTINUOUS
10
115.1129999999999995
20
-67.2060000000000031
11
115.1129999999999995
21
-66.9059999999999917
0
LINE
8
BLACK
6
CONTINUOUS
10
115.1129999999999995
20
-66.9059999999999917
11
115.1244179999999915
21
-66.848596999999998
0
LINE
8
BLACK
6
CONTINUOUS
10
115.1244179999999915
20
-66.848596999999998
11
115.1569339999999926
21
-66.7999339999999933
0
LINE
8
BLACK
6
CONTINUOUS
10
115.1569339999999926
20
-66.7999339999999933
11
115.2055969999999974
21
-66.7674179999999922
0
LINE
8
BLACK
6
CONTINUOUS
10
115.2055969999999974
20
-66.7674179999999922
11
115.262999999999991
21
-66.7560000000000002
0
LINE
8
BLACK
6
CONTINUOUS
10
115.262999999999991
20
-66.7560000000000002
11
115.8629999999999995
21
-66.7560000000000002
0
LINE
8
BLACK
6
CONTINUOUS
10
115.8629999999999995
20
-66.7560000000000002
11
115.9204029999999932
21
-66.7674179999999922
0
LINE
8
BLACK
6
CONTINUOUS
10
117.0704029999999989
20
-66.7674179999999922
11
117.1190659999999895
21
-66.7999339999999933
0
LINE
8
BLACK
6
CONTINUOUS
10
117.1190659999999895
20
-66.7999339999999933
11
117.1515819999999906
21
-66.848596999999998
0
LINE
8
BLACK
6
CONTINUOUS
10
117.1515819999999906
20
-66.848596999999998
11
117.1629999999999967
21
-66.9059999999999917
0
LINE
8
BLACK
6
CONTINUOUS
10
117.1629999999999967
20
-66.9059999999999917
11
117.1629999999999967
21
-67.2060000000000031
0
LINE
8
BLACK
6
CONTINUOUS
10
117.1629999999999967
20
-67.2060000000000031
11
117.1515819999999906
21
-67.2634029999999967
0
LINE
8
BLACK
6
CONTINUOUS
10
117.1515819999999906
20
-67.2634029999999967
11
117.1190659999999895
21
-67.3120660000000015
0
LINE
8
BLACK
6
CONTINUOUS
10
117.1190659999999895
20
-67.3120660000000015
11
117.0704029999999989
21
-67.3445820000000026
0
LINE
8
BLACK
6
CONTINUOUS
10
117.0704029999999989
20
-67.3445820000000026
11
117.012999999999991
21
-67.3559999999999945
0
LINE
8
BLACK
6
CONTINUOUS
10
117.012999999999991
20
-67.3559999999999945
11
116.4129999999999967
21
-67.3559999999999945
0
LINE
8
BLACK
6
CONTINUOUS
10
116.4129999999999967
20
-67.3559999999999945
11
116.3555969999999888
21
-67.3445820000000026
0
LINE
8
BLACK
6
CONTINUOUS
10
116.3555969999999888
20
-67.3445820000000026
11
116.3069339999999983
21
-67.3120660000000015
0
LINE
8
BLACK
6
CONTINUOUS
10
116.3069339999999983
20
-67.3120660000000015
11
116.2744179999999972
21
-67.2634029999999967
0
LINE
8
BLACK
6
CONTINUOUS
10
116.2744179999999972
20
-67.2634029999999967
11
116.262999999999991
21
-67.2060000000000031
0
LINE
8
BLACK
6
CONTINUOUS
10
116.262999999999991
20
-67.2060000000000031
11
116.262999999999991
21
-66.9059999999999917
0
LINE
8
BLACK
6
CONTINUOUS
10
116.262999999999991
20
-66.9059999999999917
11
116.2744179999999972
21
-66.848596999999998
0
LINE
8
BLACK
6
CONTINUOUS
10
116.2744179999999972
20
-66.848596999999998
11
116.3069339999999983
21
-66.7999339999999933
0
LINE
8
BLACK
6
CONTINUOUS
10
116.3069339999999983
20
-66.7999339999999933
11
116.3555969999999888
21
-66.7674179999999922
0
LINE
8
BLACK
6
CONTINUOUS
10
116.3555969999999888
20
-66.7674179999999922
11
116.4129999999999967
21
-66.7560000000000002
0
LINE
8
BLACK
6
CONTINUOUS
10
116.4129999999999967
20
-66.7560000000000002
11
117.012999999999991
21
-66.7560000000000002
0
LINE
8
BLACK
6
CONTINUOUS
10
117.012999999999991
20
-66.7560000000000002
11
117.0704029999999989
21
-66.7674179999999922
0
LINE
8
BLACK
6
CONTINUOUS
10
118.2204029999999904
20
-66.7674179999999922
11
118.2690659999999951
21
-66.7999339999999933
0
LINE
8
BLACK
6
CONTINUOUS
10
118.2690659999999951
20
-66.7999339999999933
11
118.3015819999999962
21
-66.848596999999998
0
LINE
8
BLACK
6
CONTINUOUS
10
118.3015819999999962
20
-66.848596999999998
11
118.3129999999999882
21
-66.9059999999999917
0
LINE
8
BLACK
6
CONTINUOUS
10
118.3129999999999882
20
-66.9059999999999917
11
118.3129999999999882
21
-67.2060000000000031
0
LINE
8
BLACK
6
CONTINUOUS
10
118.3129999999999882
20
-67.2060000000000031
11
118.3015819999999962
21
-67.2634029999999967
0
LINE
8
BLACK
6
CONTINUOUS
10
118.3015819999999962
20
-67.2634029999999967
11
118.2690659999999951
21
-67.3120660000000015
0
LINE
8
BLACK
6
CONTINUOUS
10
118.2690659999999951
20
-67.3120660000000015
11
118.2204029999999904
21
-67.3445820000000026
0
LINE
8
BLACK
6
CONTINUOUS
10
118.2204029999999904
20
-67.3445820000000026
11
118.1629999999999967
21
-67.3559999999999945
0
LINE
8
BLACK
6
CONTINUOUS
10
118.1629999999999967
20
-67.3559999999999945
11
117.5629999999999882
21
-67.3559999999999945
0
LINE
8
BLACK
6
CONTINUOUS
10
117.5629999999999882
20
-67.3559999999999945
11
117.5055969999999945
21
-67.3445820000000026
0
LINE
8
BLACK
6
CONTINUOUS
10
117.5055969999999945
20
-67.3445820000000026
11
117.4569339999999897
21
-67.3120660000000015
0
LINE
8
BLACK
6
CONTINUOUS
10
117.4569339999999897
20
-67.3120660000000015
11
117.4244179999999886
21
-67.2634029999999967
0
LINE
8
BLACK
6
CONTINUOUS
10
117.4244179999999886
20
-67.2634029999999967
11
117.4129999999999967
21
-67.2060000000000031
0
LINE
8
BLACK
6
CONTINUOUS
10
117.4129999999999967
20
-67.2060000000000031
11
117.4129999999999967
21
-66.9059999999999917
0
LINE
8
BLACK
6
CONTINUOUS
10
117.4129999999999967
20
-66.9059999999999917
11
117.4244179999999886
21
-66.848596999999998
0
LINE
8
BLACK
6
CONTINUOUS
10
117.4244179999999886
20
-66.848596999999998
11
117.4569339999999897
21
-66.7999339999999933
0
LINE
8
BLACK
6
CONTINUOUS
10
117.4569339999999897
20
-66.7999339999999933
11
117.5055969999999945
21
-66.7674179999999922
0
LINE
8
BLACK
6
CONTINUOUS
10
117.5055969999999945
20
-66.7674179999999922
11
117.5629999999999882
21
-66.7560000000000002
0
LINE
8
BLACK
6
CONTINUOUS
10
117.5629999999999882
20
-66.7560000000000002
11
118.1629999999999967
21
-66.7560000000000002
0
LINE
8
BLACK
6
CONTINUOUS
10
118.1629999999999967
20
-66.7560000000000002
11
118.2204029999999904
21
-66.7674179999999922
0
LINE
8
BLACK
6
CONTINUOUS
10
101.816402999999994
20
-66.6134179999999958
11
101.8650659999999988
21
-66.6459339999999969
0
LINE
8
BLACK
6
CONTINUOUS
10
101.8650659999999988
20
-66.6459339999999969
11
101.8975819999999999
21
-66.6945970000000017
0
LINE
8
BLACK
6
CONTINUOUS
10
101.8975819999999999
20
-66.6945970000000017
11
101.9089999999999918
21
-66.7519999999999953
0
LINE
8
BLACK
6
CONTINUOUS
10
101.9089999999999918
20
-66.7519999999999953
11
101.9089999999999918
21
-67.0519999999999925
0
LINE
8
BLACK
6
CONTINUOUS
10
101.9089999999999918
20
-67.0519999999999925
11
101.8975819999999999
21
-67.1094030000000004
0
LINE
8
BLACK
6
CONTINUOUS
10
101.8975819999999999
20
-67.1094030000000004
11
101.8650659999999988
21
-67.1580659999999909
0
LINE
8
BLACK
6
CONTINUOUS
10
101.8650659999999988
20
-67.1580659999999909
11
101.816402999999994
21
-67.190581999999992
0
LINE
8
BLACK
6
CONTINUOUS
10
101.816402999999994
20
-67.190581999999992
11
101.7590000000000003
21
-67.2019999999999982
0
LINE
8
BLACK
6
CONTINUOUS
10
101.7590000000000003
20
-67.2019999999999982
11
101.1589999999999918
21
-67.2019999999999982
0
LINE
8
BLACK
6
CONTINUOUS
10
101.1589999999999918
20
-67.2019999999999982
11
101.1015969999999982
21
-67.190581999999992
0
LINE
8
BLACK
6
CONTINUOUS
10
101.1015969999999982
20
-67.190581999999992
11
101.0529339999999934
21
-67.1580659999999909
0
LINE
8
BLACK
6
CONTINUOUS
10
101.0529339999999934
20
-67.1580659999999909
11
101.0204179999999923
21
-67.1094030000000004
0
LINE
8
BLACK
6
CONTINUOUS
10
101.0204179999999923
20
-67.1094030000000004
11
101.0090000000000003
21
-67.0519999999999925
0
LINE
8
BLACK
6
CONTINUOUS
10
101.0090000000000003
20
-67.0519999999999925
11
101.0090000000000003
21
-66.7519999999999953
0
LINE
8
BLACK
6
CONTINUOUS
10
101.0090000000000003
20
-66.7519999999999953
11
101.0204179999999923
21
-66.6945970000000017
0
LINE
8
BLACK
6
CONTINUOUS
10
101.0204179999999923
20
-66.6945970000000017
11
101.0529339999999934
21
-66.6459339999999969
0
LINE
8
BLACK
6
CONTINUOUS
10
101.0529339999999934
20
-66.6459339999999969
11
101.1015969999999982
21
-66.6134179999999958
0
LINE
8
BLACK
6
CONTINUOUS
10
101.1015969999999982
20
-66.6134179999999958
11
101.1589999999999918
21
-66.6020000000000039
0
LINE
8
BLACK
6
CONTINUOUS
10
101.1589999999999918
20
-66.6020000000000039
11
101.7590000000000003
21
-66.6020000000000039
0
LINE
8
BLACK
6
CONTINUOUS
10
101.7590000000000003
20
-66.6020000000000039
11
101.816402999999994
21
-66.6134179999999958
0
LINE
8
BLACK
6
CONTINUOUS
10
102.9664029999999997
20
-66.6134179999999958
11
103.0150659999999903
21
-66.6459339999999969
0
LINE
8
BLACK
6
CONTINUOUS
10
103.0150659999999903
20
-66.6459339999999969
11
103.0475819999999914
21
-66.6945970000000017
0
LINE
8
BLACK
6
CONTINUOUS
10
103.0475819999999914
20
-66.6945970000000017
11
103.0589999999999975
21
-66.7519999999999953
0
LINE
8
BLACK
6
CONTINUOUS
10
103.0589999999999975
20
-66.7519999999999953
11
103.0589999999999975
21
-67.0519999999999925
0
LINE
8
BLACK
6
CONTINUOUS
10
103.0589999999999975
20
-67.0519999999999925
11
103.0475819999999914
21
-67.1094030000000004
0
LINE
8
BLACK
6
CONTINUOUS
10
103.0475819999999914
20
-67.1094030000000004
11
103.0150659999999903
21
-67.1580659999999909
0
LINE
8
BLACK
6
CONTINUOUS
10
103.0150659999999903
20
-67.1580659999999909
11
102.9664029999999997
21
-67.190581999999992
0
LINE
8
BLACK
6
CONTINUOUS
10
102.9664029999999997
20
-67.190581999999992
11
102.9089999999999918
21
-67.2019999999999982
0
LINE
8
BLACK
6
CONTINUOUS
10
102.9089999999999918
20
-67.2019999999999982
11
102.3089999999999975
21
-67.2019999999999982
0
LINE
8
BLACK
6
CONTINUOUS
10
102.3089999999999975
20
-67.2019999999999982
11
102.2515969999999896
21
-67.190581999999992
0
LINE
8
BLACK
6
CONTINUOUS
10
102.2515969999999896
20
-67.190581999999992
11
102.2029339999999991
21
-67.1580659999999909
0
LINE
8
BLACK
6
CONTINUOUS
10
102.2029339999999991
20
-67.1580659999999909
11
102.170417999999998
21
-67.1094030000000004
0
LINE
8
BLACK
6
CONTINUOUS
10
102.170417999999998
20
-67.1094030000000004
11
102.1589999999999918
21
-67.0519999999999925
0
LINE
8
BLACK
6
CONTINUOUS
10
102.1589999999999918
20
-67.0519999999999925
11
102.1589999999999918
21
-66.7519999999999953
0
LINE
8
BLACK
6
CONTINUOUS
10
102.1589999999999918
20
-66.7519999999999953
11
102.170417999999998
21
-66.6945970000000017
0
LINE
8
BLACK
6
CONTINUOUS
10
102.170417999999998
20
-66.6945970000000017
11
102.2029339999999991
21
-66.6459339999999969
0
LINE
8
BLACK
6
CONTINUOUS
10
102.2029339999999991
20
-66.6459339999999969
11
102.2515969999999896
21
-66.6134179999999958
0
LINE
8
BLACK
6
CONTINUOUS
10
102.2515969999999896
20
-66.6134179999999958
11
102.3089999999999975
21
-66.6020000000000039
0
LINE
8
BLACK
6
CONTINUOUS
10
102.3089999999999975
20
-66.6020000000000039
11
102.9089999999999918
21
-66.6020000000000039
0
LINE
8
BLACK
6
CONTINUOUS
10
102.9089999999999918
20
-66.6020000000000039
11
102.9664029999999997
21
-66.6134179999999958
0
LINE
8
BLACK
6
CONTINUOUS
10
104.1164029999999912
20
-66.6134179999999958
11
104.1650659999999959
21
-66.6459339999999969
0
LINE
8
BLACK
6
CONTINUOUS
10
104.1650659999999959
20
-66.6459339999999969
11
104.197581999999997
21
-66.6945970000000017
0
LINE
8
BLACK
6
CONTINUOUS
10
104.197581999999997
20
-66.6945970000000017
11
104.208999999999989
21
-66.7519999999999953
0
LINE
8
BLACK
6
CONTINUOUS
10
104.208999999999989
20
-66.7519999999999953
11
104.208999999999989
21
-67.0519999999999925
0
LINE
8
BLACK
6
CONTINUOUS
10
104.208999999999989
20
-67.0519999999999925
11
104.197581999999997
21
-67.1094030000000004
0
LINE
8
BLACK
6
CONTINUOUS
10
104.197581999999997
20
-67.1094030000000004
11
104.1650659999999959
21
-67.1580659999999909
0
LINE
8
BLACK
6
CONTINUOUS
10
104.1650659999999959
20
-67.1580659999999909
11
104.1164029999999912
21
-67.190581999999992
0
LINE
8
BLACK
6
CONTINUOUS
10
104.1164029999999912
20
-67.190581999999992
11
104.0589999999999975
21
-67.2019999999999982
0
LINE
8
BLACK
6
CONTINUOUS
10
104.0589999999999975
20
-67.2019999999999982
11
103.458999999999989
21
-67.2019999999999982
0
LINE
8
BLACK
6
CONTINUOUS
10
103.458999999999989
20
-67.2019999999999982
11
103.4015969999999953
21
-67.190581999999992
0
LINE
8
BLACK
6
CONTINUOUS
10
103.4015969999999953
20
-67.190581999999992
11
103.3529339999999905
21
-67.1580659999999909
0
LINE
8
BLACK
6
CONTINUOUS
10
103.3529339999999905
20
-67.1580659999999909
11
103.3204179999999894
21
-67.1094030000000004
0
LINE
8
BLACK
6
CONTINUOUS
10
103.3204179999999894
20
-67.1094030000000004
11
103.3089999999999975
21
-67.0519999999999925
0
LINE
8
BLACK
6
CONTINUOUS
10
103.3089999999999975
20
-67.0519999999999925
11
103.3089999999999975
21
-66.7519999999999953
0
LINE
8
BLACK
6
CONTINUOUS
10
103.3089999999999975
20
-66.7519999999999953
11
103.3204179999999894
21
-66.6945970000000017
0
LINE
8
BLACK
6
CONTINUOUS
10
103.3204179999999894
20
-66.6945970000000017
11
103.3529339999999905
21
-66.6459339999999969
0
LINE
8
BLACK
6
CONTINUOUS
10
103.3529339999999905
20
-66.6459339999999969
11
103.4015969999999953
21
-66.6134179999999958
0
LINE
8
BLACK
6
CONTINUOUS
10
103.4015969999999953
20
-66.6134179999999958
11
103.458999999999989
21
-66.6020000000000039
0
LINE
8
BLACK
6
CONTINUOUS
10
103.458999999999989
20
-66.6020000000000039
11
104.0589999999999975
21
-66.6020000000000039
0
LINE
8
BLACK
6
CONTINUOUS
10
104.0589999999999975
20
-66.6020000000000039
11
104.1164029999999912
21
-66.6134179999999958
0
LINE
8
BLACK
6
CONTINUOUS
10
94.750670999999997
20
-65.3520299999999992
11
94.8317770000000024
21
-65.4062229999999971
0
LINE
8
BLACK
6
CONTINUOUS
10
94.8317770000000024
20
-65.4062229999999971
11
94.8859700000000004
21
-65.4873290000000026
0
LINE
8
BLACK
6
CONTINUOUS
10
94.8859700000000004
20
-65.4873290000000026
11
94.9050000000000011
21
-65.5829999999999984
0
LINE
8
BLACK
6
CONTINUOUS
10
94.9050000000000011
20
-65.5829999999999984
11
94.9050000000000011
21
-66.8829999999999956
0
LINE
8
BLACK
6
CONTINUOUS
10
94.9050000000000011
20
-66.8829999999999956
11
94.8859700000000004
21
-66.9786709999999914
0
LINE
8
BLACK
6
CONTINUOUS
10
94.8859700000000004
20
-66.9786709999999914
11
94.8317770000000024
21
-67.0597769999999969
0
LINE
8
BLACK
6
CONTINUOUS
10
94.8317770000000024
20
-67.0597769999999969
11
94.750670999999997
21
-67.1139699999999948
0
LINE
8
BLACK
6
CONTINUOUS
10
94.750670999999997
20
-67.1139699999999948
11
94.6550000000000011
21
-67.1329999999999956
0
LINE
8
BLACK
6
CONTINUOUS
10
94.6550000000000011
20
-67.1329999999999956
11
93.8299999999999983
21
-67.1329999999999956
0
LINE
8
BLACK
6
CONTINUOUS
10
93.8299999999999983
20
-67.1329999999999956
11
93.7343290000000025
21
-67.1139699999999948
0
LINE
8
BLACK
6
CONTINUOUS
10
93.7343290000000025
20
-67.1139699999999948
11
93.653222999999997
21
-67.0597769999999969
0
LINE
8
BLACK
6
CONTINUOUS
10
93.653222999999997
20
-67.0597769999999969
11
93.5990299999999991
21
-66.9786709999999914
0
LINE
8
BLACK
6
CONTINUOUS
10
93.5990299999999991
20
-66.9786709999999914
11
93.5799999999999983
21
-66.8829999999999956
0
LINE
8
BLACK
6
CONTINUOUS
10
93.5799999999999983
20
-66.8829999999999956
11
93.5799999999999983
21
-65.5829999999999984
0
LINE
8
BLACK
6
CONTINUOUS
10
93.5799999999999983
20
-65.5829999999999984
11
93.5990299999999991
21
-65.4873290000000026
0
LINE
8
BLACK
6
CONTINUOUS
10
93.5990299999999991
20
-65.4873290000000026
11
93.653222999999997
21
-65.4062229999999971
0
LINE
8
BLACK
6
CONTINUOUS
10
93.653222999999997
20
-65.4062229999999971
11
93.7343290000000025
21
-65.3520299999999992
0
LINE
8
BLACK
6
CONTINUOUS
10
93.7343290000000025
20
-65.3520299999999992
11
93.8299999999999983
21
-65.3329999999999984
0
LINE
8
BLACK
6
CONTINUOUS
10
93.8299999999999983
20
-65.3329999999999984
11
94.6550000000000011
21
-65.3329999999999984
0
LINE
8
BLACK
6
CONTINUOUS
10
94.6550000000000011
20
-65.3329999999999984
11
94.750670999999997
21
-65.3520299999999992
0
LINE
8
BLACK
6
CONTINUOUS
10
97.875670999999997
20
-65.3520299999999992
11
97.9567770000000024
21
-65.4062229999999971
0
LINE
8
BLACK
6
CONTINUOUS
10
97.9567770000000024
20
-65.4062229999999971
11
98.0109700000000004
21
-65.4873290000000026
0
LINE
8
BLACK
6
CONTINUOUS
10
98.0109700000000004
20
-65.4873290000000026
11
98.0300000000000011
21
-65.5829999999999984
0
LINE
8
BLACK
6
CONTINUOUS
10
98.0300000000000011
20
-65.5829999999999984
11
98.0300000000000011
21
-66.8829999999999956
0
LINE
8
BLACK
6
CONTINUOUS
10
98.0300000000000011
20
-66.8829999999999956
11
98.0109700000000004
21
-66.9786709999999914
0
LINE
8
BLACK
6
CONTINUOUS
10
98.0109700000000004
20
-66.9786709999999914
11
97.9567770000000024
21
-67.0597769999999969
0
LINE
8
BLACK
6
CONTINUOUS
10
97.9567770000000024
20
-67.0597769999999969
11
97.875670999999997
21
-67.1139699999999948
0
LINE
8
BLACK
6
CONTINUOUS
10
97.875670999999997
20
-67.1139699999999948
11
97.7800000000000011
21
-67.1329999999999956
0
LINE
8
BLACK
6
CONTINUOUS
10
97.7800000000000011
20
-67.1329999999999956
11
96.9549999999999983
21
-67.1329999999999956
0
LINE
8
BLACK
6
CONTINUOUS
10
96.9549999999999983
20
-67.1329999999999956
11
96.8593290000000025
21
-67.1139699999999948
0
LINE
8
BLACK
6
CONTINUOUS
10
96.8593290000000025
20
-67.1139699999999948
11
96.778222999999997
21
-67.0597769999999969
0
LINE
8
BLACK
6
CONTINUOUS
10
96.778222999999997
20
-67.0597769999999969
11
96.7240299999999991
21
-66.9786709999999914
0
LINE
8
BLACK
6
CONTINUOUS
10
96.7240299999999991
20
-66.9786709999999914
11
96.7049999999999983
21
-66.8829999999999956
0
LINE
8
BLACK
6
CONTINUOUS
10
96.7049999999999983
20
-66.8829999999999956
11
96.7049999999999983
21
-65.5829999999999984
0
LINE
8
BLACK
6
CONTINUOUS
10
96.7049999999999983
20
-65.5829999999999984
11
96.7240299999999991
21
-65.4873290000000026
0
LINE
8
BLACK
6
CONTINUOUS
10
96.7240299999999991
20
-65.4873290000000026
11
96.778222999999997
21
-65.4062229999999971
0
LINE
8
BLACK
6
CONTINUOUS
10
96.778222999999997
20
-65.4062229999999971
11
96.8593290000000025
21
-65.3520299999999992
0
LINE
8
BLACK
6
CONTINUOUS
10
96.8593290000000025
20
-65.3520299999999992
11
96.9549999999999983
21
-65.3329999999999984
0
LINE
8
BLACK
6
CONTINUOUS
10
96.9549999999999983
20
-65.3329999999999984
11
97.7800000000000011
21
-65.3329999999999984
0
LINE
8
BLACK
6
CONTINUOUS
10
97.7800000000000011
20
-65.3329999999999984
11
97.875670999999997
21
-65.3520299999999992
0
LINE
8
BLACK
6
CONTINUOUS
10
73.3678999999999917
20
-66.8400999999999925
11
64.808099999999996
21
-66.8400999999999925
0
LINE
8
BLACK
6
CONTINUOUS
10
64.808099999999996
20
-66.8400999999999925
11
64.808099999999996
21
-58.5850999999999971
0
LINE
8
BLACK
6
CONTINUOUS
10
64.808099999999996
20
-58.5850999999999971
11
73.3678999999999917
21
-58.5850999999999971
0
LINE
8
BLACK
6
CONTINUOUS
10
73.3678999999999917
20
-58.5850999999999971
11
73.3678999999999917
21
-66.8400999999999925
0
LINE
8
BLACK
6
CONTINUOUS
10
87.9728999999999957
20
-66.8400999999999925
11
79.4131
21
-66.8400999999999925
0
LINE
8
BLACK
6
CONTINUOUS
10
79.4131
20
-66.8400999999999925
11
79.4131
21
-58.5850999999999971
0
LINE
8
BLACK
6
CONTINUOUS
10
79.4131
20
-58.5850999999999971
11
87.9728999999999957
21
-58.5850999999999971
0
LINE
8
BLACK
6
CONTINUOUS
10
87.9728999999999957
20
-58.5850999999999971
11
87.9728999999999957
21
-66.8400999999999925
0
LINE
8
BLACK
6
CONTINUOUS
10
134.0433999999999912
20
-66.8400999999999925
11
125.4835999999999956
21
-66.8400999999999925
0
LINE
8
BLACK
6
CONTINUOUS
10
125.4835999999999956
20
-66.8400999999999925
11
125.4835999999999956
21
-58.5850999999999971
0
LINE
8
BLACK
6
CONTINUOUS
10
125.4835999999999956
20
-58.5850999999999971
11
134.0433999999999912
21
-58.5850999999999971
0
LINE
8
BLACK
6
CONTINUOUS
10
134.0433999999999912
20
-58.5850999999999971
11
134.0433999999999912
21
-66.8400999999999925
0
LINE
8
BLACK
6
CONTINUOUS
10
148.648399999999981
20
-66.8400999999999925
11
140.0885999999999854
21
-66.8400999999999925
0
LINE
8
BLACK
6
CONTINUOUS
10
140.0885999999999854
20
-66.8400999999999925
11
140.0885999999999854
21
-58.5850999999999971
0
LINE
8
BLACK
6
CONTINUOUS
10
140.0885999999999854
20
-58.5850999999999971
11
148.648399999999981
21
-58.5850999999999971
0
LINE
8
BLACK
6
CONTINUOUS
10
148.648399999999981
20
-58.5850999999999971
11
148.648399999999981
21
-66.8400999999999925
0
LINE
8
BLACK
6
CONTINUOUS
10
115.0104029999999966
20
-64.3724179999999961
11
115.0590660000000014
21
-64.4049339999999972
0
LINE
8
BLACK
6
CONTINUOUS
10
115.0590660000000014
20
-64.4049339999999972
11
115.0915819999999883
21
-64.453597000000002
0
LINE
8
BLACK
6
CONTINUOUS
10
115.0915819999999883
20
-64.453597000000002
11
115.1029999999999944
21
-64.5109999999999957
0
LINE
8
BLACK
6
CONTINUOUS
10
115.1029999999999944
20
-64.5109999999999957
11
115.1029999999999944
21
-65.2609999999999957
0
LINE
8
BLACK
6
CONTINUOUS
10
115.1029999999999944
20
-65.2609999999999957
11
115.0915819999999883
21
-65.3184030000000035
0
LINE
8
BLACK
6
CONTINUOUS
10
115.0915819999999883
20
-65.3184030000000035
11
115.0590660000000014
21
-65.3670659999999941
0
LINE
8
BLACK
6
CONTINUOUS
10
115.0590660000000014
20
-65.3670659999999941
11
115.0104029999999966
21
-65.3995819999999952
0
LINE
8
BLACK
6
CONTINUOUS
10
115.0104029999999966
20
-65.3995819999999952
11
114.9529999999999887
21
-65.4110000000000014
0
LINE
8
BLACK
6
CONTINUOUS
10
114.9529999999999887
20
-65.4110000000000014
11
114.6529999999999916
21
-65.4110000000000014
0
LINE
8
BLACK
6
CONTINUOUS
10
114.6529999999999916
20
-65.4110000000000014
11
114.5955969999999979
21
-65.3995819999999952
0
LINE
8
BLACK
6
CONTINUOUS
10
114.5955969999999979
20
-65.3995819999999952
11
114.5469339999999931
21
-65.3670659999999941
0
LINE
8
BLACK
6
CONTINUOUS
10
114.5469339999999931
20
-65.3670659999999941
11
114.514417999999992
21
-65.3184030000000035
0
LINE
8
BLACK
6
CONTINUOUS
10
114.514417999999992
20
-65.3184030000000035
11
114.5030000000000001
21
-65.2609999999999957
0
LINE
8
BLACK
6
CONTINUOUS
10
114.5030000000000001
20
-65.2609999999999957
11
114.5030000000000001
21
-64.5109999999999957
0
LINE
8
BLACK
6
CONTINUOUS
10
114.5030000000000001
20
-64.5109999999999957
11
114.514417999999992
21
-64.453597000000002
0
LINE
8
BLACK
6
CONTINUOUS
10
114.514417999999992
20
-64.453597000000002
11
114.5469339999999931
21
-64.4049339999999972
0
LINE
8
BLACK
6
CONTINUOUS
10
114.5469339999999931
20
-64.4049339999999972
11
114.5955969999999979
21
-64.3724179999999961
0
LINE
8
BLACK
6
CONTINUOUS
10
114.5955969999999979
20
-64.3724179999999961
11
114.6529999999999916
21
-64.36099999999999
0
LINE
8
BLACK
6
CONTINUOUS
10
114.6529999999999916
20
-64.36099999999999
11
114.9529999999999887
21
-64.36099999999999
0
LINE
8
BLACK
6
CONTINUOUS
10
114.9529999999999887
20
-64.36099999999999
11
115.0104029999999966
21
-64.3724179999999961
0
LINE
8
BLACK
6
CONTINUOUS
10
116.2804029999999926
20
-64.3724179999999961
11
116.3290659999999974
21
-64.4049339999999972
0
LINE
8
BLACK
6
CONTINUOUS
10
116.3290659999999974
20
-64.4049339999999972
11
116.3615819999999985
21
-64.453597000000002
0
LINE
8
BLACK
6
CONTINUOUS
10
116.3615819999999985
20
-64.453597000000002
11
116.3729999999999905
21
-64.5109999999999957
0
LINE
8
BLACK
6
CONTINUOUS
10
116.3729999999999905
20
-64.5109999999999957
11
116.3729999999999905
21
-65.2609999999999957
0
LINE
8
BLACK
6
CONTINUOUS
10
116.3729999999999905
20
-65.2609999999999957
11
116.3615819999999985
21
-65.3184030000000035
0
LINE
8
BLACK
6
CONTINUOUS
10
116.3615819999999985
20
-65.3184030000000035
11
116.3290659999999974
21
-65.3670659999999941
0
LINE
8
BLACK
6
CONTINUOUS
10
116.3290659999999974
20
-65.3670659999999941
11
116.2804029999999926
21
-65.3995819999999952
0
LINE
8
BLACK
6
CONTINUOUS
10
116.2804029999999926
20
-65.3995819999999952
11
116.222999999999999
21
-65.4110000000000014
0
LINE
8
BLACK
6
CONTINUOUS
10
116.222999999999999
20
-65.4110000000000014
11
115.9230000000000018
21
-65.4110000000000014
0
LINE
8
BLACK
6
CONTINUOUS
10
115.9230000000000018
20
-65.4110000000000014
11
115.865596999999994
21
-65.3995819999999952
0
LINE
8
BLACK
6
CONTINUOUS
10
115.865596999999994
20
-65.3995819999999952
11
115.8169339999999892
21
-65.3670659999999941
0
LINE
8
BLACK
6
CONTINUOUS
10
115.8169339999999892
20
-65.3670659999999941
11
115.7844179999999881
21
-65.3184030000000035
0
LINE
8
BLACK
6
CONTINUOUS
10
115.7844179999999881
20
-65.3184030000000035
11
115.7729999999999961
21
-65.2609999999999957
0
LINE
8
BLACK
6
CONTINUOUS
10
115.7729999999999961
20
-65.2609999999999957
11
115.7729999999999961
21
-64.5109999999999957
0
LINE
8
BLACK
6
CONTINUOUS
10
115.7729999999999961
20
-64.5109999999999957
11
115.7844179999999881
21
-64.453597000000002
0
LINE
8
BLACK
6
CONTINUOUS
10
115.7844179999999881
20
-64.453597000000002
11
115.8169339999999892
21
-64.4049339999999972
0
LINE
8
BLACK
6
CONTINUOUS
10
115.8169339999999892
20
-64.4049339999999972
11
115.865596999999994
21
-64.3724179999999961
0
LINE
8
BLACK
6
CONTINUOUS
10
115.865596999999994
20
-64.3724179999999961
11
115.9230000000000018
21
-64.36099999999999
0
LINE
8
BLACK
6
CONTINUOUS
10
115.9230000000000018
20
-64.36099999999999
11
116.222999999999999
21
-64.36099999999999
0
LINE
8
BLACK
6
CONTINUOUS
10
116.222999999999999
20
-64.36099999999999
11
116.2804029999999926
21
-64.3724179999999961
0
LINE
8
BLACK
6
CONTINUOUS
10
117.5604029999999938
20
-64.3724179999999961
11
117.6090659999999986
21
-64.4049339999999972
0
LINE
8
BLACK
6
CONTINUOUS
10
117.6090659999999986
20
-64.4049339999999972
11
117.6415819999999997
21
-64.453597000000002
0
LINE
8
BLACK
6
CONTINUOUS
10
117.6415819999999997
20
-64.453597000000002
11
117.6529999999999916
21
-64.5109999999999957
0
LINE
8
BLACK
6
CONTINUOUS
10
117.6529999999999916
20
-64.5109999999999957
11
117.6529999999999916
21
-65.2609999999999957
0
LINE
8
BLACK
6
CONTINUOUS
10
117.6529999999999916
20
-65.2609999999999957
11
117.6415819999999997
21
-65.3184030000000035
0
LINE
8
BLACK
6
CONTINUOUS
10
117.6415819999999997
20
-65.3184030000000035
11
117.6090659999999986
21
-65.3670659999999941
0
LINE
8
BLACK
6
CONTINUOUS
10
117.6090659999999986
20
-65.3670659999999941
11
117.5604029999999938
21
-65.3995819999999952
0
LINE
8
BLACK
6
CONTINUOUS
10
117.5604029999999938
20
-65.3995819999999952
11
117.5030000000000001
21
-65.4110000000000014
0
LINE
8
BLACK
6
CONTINUOUS
10
117.5030000000000001
20
-65.4110000000000014
11
117.2029999999999887
21
-65.4110000000000014
0
LINE
8
BLACK
6
CONTINUOUS
10
117.2029999999999887
20
-65.4110000000000014
11
117.1455969999999951
21
-65.3995819999999952
0
LINE
8
BLACK
6
CONTINUOUS
10
117.1455969999999951
20
-65.3995819999999952
11
117.0969339999999903
21
-65.3670659999999941
0
LINE
8
BLACK
6
CONTINUOUS
10
117.0969339999999903
20
-65.3670659999999941
11
117.0644179999999892
21
-65.3184030000000035
0
LINE
8
BLACK
6
CONTINUOUS
10
117.0644179999999892
20
-65.3184030000000035
11
117.0529999999999973
21
-65.2609999999999957
0
LINE
8
BLACK
6
CONTINUOUS
10
117.0529999999999973
20
-65.2609999999999957
11
117.0529999999999973
21
-64.5109999999999957
0
LINE
8
BLACK
6
CONTINUOUS
10
117.0529999999999973
20
-64.5109999999999957
11
117.0644179999999892
21
-64.453597000000002
0
LINE
8
BLACK
6
CONTINUOUS
10
117.0644179999999892
20
-64.453597000000002
11
117.0969339999999903
21
-64.4049339999999972
0
LINE
8
BLACK
6
CONTINUOUS
10
117.0969339999999903
20
-64.4049339999999972
11
117.1455969999999951
21
-64.3724179999999961
0
LINE
8
BLACK
6
CONTINUOUS
10
117.1455969999999951
20
-64.3724179999999961
11
117.2029999999999887
21
-64.36099999999999
0
LINE
8
BLACK
6
CONTINUOUS
10
117.2029999999999887
20
-64.36099999999999
11
117.5030000000000001
21
-64.36099999999999
0
LINE
8
BLACK
6
CONTINUOUS
10
117.5030000000000001
20
-64.36099999999999
11
117.5604029999999938
21
-64.3724179999999961
0
LINE
8
BLACK
6
CONTINUOUS
10
118.8304029999999898
20
-64.3724179999999961
11
118.8790659999999946
21
-64.4049339999999972
0
LINE
8
BLACK
6
CONTINUOUS
10
118.8790659999999946
20
-64.4049339999999972
11
118.9115819999999957
21
-64.453597000000002
0
LINE
8
BLACK
6
CONTINUOUS
10
118.9115819999999957
20
-64.453597000000002
11
118.9229999999999876
21
-64.5109999999999957
0
LINE
8
BLACK
6
CONTINUOUS
10
118.9229999999999876
20
-64.5109999999999957
11
118.9229999999999876
21
-65.2609999999999957
0
LINE
8
BLACK
6
CONTINUOUS
10
118.9229999999999876
20
-65.2609999999999957
11
118.9115819999999957
21
-65.3184030000000035
0
LINE
8
BLACK
6
CONTINUOUS
10
118.9115819999999957
20
-65.3184030000000035
11
118.8790659999999946
21
-65.3670659999999941
0
LINE
8
BLACK
6
CONTINUOUS
10
118.8790659999999946
20
-65.3670659999999941
11
118.8304029999999898
21
-65.3995819999999952
0
LINE
8
BLACK
6
CONTINUOUS
10
118.8304029999999898
20
-65.3995819999999952
11
118.7729999999999961
21
-65.4110000000000014
0
LINE
8
BLACK
6
CONTINUOUS
10
118.7729999999999961
20
-65.4110000000000014
11
118.472999999999999
21
-65.4110000000000014
0
LINE
8
BLACK
6
CONTINUOUS
10
118.472999999999999
20
-65.4110000000000014
11
118.4155969999999911
21
-65.3995819999999952
0
LINE
8
BLACK
6
CONTINUOUS
10
118.4155969999999911
20
-65.3995819999999952
11
118.3669340000000005
21
-65.3670659999999941
0
LINE
8
BLACK
6
CONTINUOUS
10
118.3669340000000005
20
-65.3670659999999941
11
118.3344179999999994
21
-65.3184030000000035
0
LINE
8
BLACK
6
CONTINUOUS
10
118.3344179999999994
20
-65.3184030000000035
11
118.3229999999999933
21
-65.2609999999999957
0
LINE
8
BLACK
6
CONTINUOUS
10
118.3229999999999933
20
-65.2609999999999957
11
118.3229999999999933
21
-64.5109999999999957
0
LINE
8
BLACK
6
CONTINUOUS
10
118.3229999999999933
20
-64.5109999999999957
11
118.3344179999999994
21
-64.453597000000002
0
LINE
8
BLACK
6
CONTINUOUS
10
118.3344179999999994
20
-64.453597000000002
11
118.3669340000000005
21
-64.4049339999999972
0
LINE
8
BLACK
6
CONTINUOUS
10
118.3669340000000005
20
-64.4049339999999972
11
118.4155969999999911
21
-64.3724179999999961
0
LINE
8
BLACK
6
CONTINUOUS
10
118.4155969999999911
20
-64.3724179999999961
11
118.472999999999999
21
-64.36099999999999
0
LINE
8
BLACK
6
CONTINUOUS
10
118.472999999999999
20
-64.36099999999999
11
118.7729999999999961
21
-64.36099999999999
0
LINE
8
BLACK
6
CONTINUOUS
10
118.7729999999999961
20
-64.36099999999999
11
118.8304029999999898
21
-64.3724179999999961
0
LINE
8
BLACK
6
CONTINUOUS
10
100.9064029999999974
20
-64.2184179999999998
11
100.9550660000000022
21
-64.2509340000000009
0
LINE
8
BLACK
6
CONTINUOUS
10
100.9550660000000022
20
-64.2509340000000009
11
100.9875819999999891
21
-64.2995969999999915
0
LINE
8
BLACK
6
CONTINUOUS
10
100.9875819999999891
20
-64.2995969999999915
11
100.9989999999999952
21
-64.3569999999999993
0
LINE
8
BLACK
6
CONTINUOUS
10
100.9989999999999952
20
-64.3569999999999993
11
100.9989999999999952
21
-65.1069999999999993
0
LINE
8
BLACK
6
CONTINUOUS
10
100.9989999999999952
20
-65.1069999999999993
11
100.9875819999999891
21
-65.164402999999993
0
LINE
8
BLACK
6
CONTINUOUS
10
100.9875819999999891
20
-65.164402999999993
11
100.9550660000000022
21
-65.2130659999999978
0
LINE
8
BLACK
6
CONTINUOUS
10
100.9550660000000022
20
-65.2130659999999978
11
100.9064029999999974
21
-65.2455819999999989
0
LINE
8
BLACK
6
CONTINUOUS
10
100.9064029999999974
20
-65.2455819999999989
11
100.8489999999999895
21
-65.2569999999999908
0
LINE
8
BLACK
6
CONTINUOUS
10
100.8489999999999895
20
-65.2569999999999908
11
100.5489999999999924
21
-65.2569999999999908
0
LINE
8
BLACK
6
CONTINUOUS
10
100.5489999999999924
20
-65.2569999999999908
11
100.4915969999999987
21
-65.2455819999999989
0
LINE
8
BLACK
6
CONTINUOUS
10
100.4915969999999987
20
-65.2455819999999989
11
100.4429339999999939
21
-65.2130659999999978
0
LINE
8
BLACK
6
CONTINUOUS
10
100.4429339999999939
20
-65.2130659999999978
11
100.4104179999999928
21
-65.164402999999993
0
LINE
8
BLACK
6
CONTINUOUS
10
100.4104179999999928
20
-65.164402999999993
11
100.3990000000000009
21
-65.1069999999999993
0
LINE
8
BLACK
6
CONTINUOUS
10
100.3990000000000009
20
-65.1069999999999993
11
100.3990000000000009
21
-64.3569999999999993
0
LINE
8
BLACK
6
CONTINUOUS
10
100.3990000000000009
20
-64.3569999999999993
11
100.4104179999999928
21
-64.2995969999999915
0
LINE
8
BLACK
6
CONTINUOUS
10
100.4104179999999928
20
-64.2995969999999915
11
100.4429339999999939
21
-64.2509340000000009
0
LINE
8
BLACK
6
CONTINUOUS
10
100.4429339999999939
20
-64.2509340000000009
11
100.4915969999999987
21
-64.2184179999999998
0
LINE
8
BLACK
6
CONTINUOUS
10
100.4915969999999987
20
-64.2184179999999998
11
100.5489999999999924
21
-64.2069999999999936
0
LINE
8
BLACK
6
CONTINUOUS
10
100.5489999999999924
20
-64.2069999999999936
11
100.8489999999999895
21
-64.2069999999999936
0
LINE
8
BLACK
6
CONTINUOUS
10
100.8489999999999895
20
-64.2069999999999936
11
100.9064029999999974
21
-64.2184179999999998
0
LINE
8
BLACK
6
CONTINUOUS
10
102.1764029999999934
20
-64.2184179999999998
11
102.2250659999999982
21
-64.2509340000000009
0
LINE
8
BLACK
6
CONTINUOUS
10
102.2250659999999982
20
-64.2509340000000009
11
102.2575819999999993
21
-64.2995969999999915
0
LINE
8
BLACK
6
CONTINUOUS
10
102.2575819999999993
20
-64.2995969999999915
11
102.2689999999999912
21
-64.3569999999999993
0
LINE
8
BLACK
6
CONTINUOUS
10
102.2689999999999912
20
-64.3569999999999993
11
102.2689999999999912
21
-65.1069999999999993
0
LINE
8
BLACK
6
CONTINUOUS
10
102.2689999999999912
20
-65.1069999999999993
11
102.2575819999999993
21
-65.164402999999993
0
LINE
8
BLACK
6
CONTINUOUS
10
102.2575819999999993
20
-65.164402999999993
11
102.2250659999999982
21
-65.2130659999999978
0
LINE
8
BLACK
6
CONTINUOUS
10
102.2250659999999982
20
-65.2130659999999978
11
102.1764029999999934
21
-65.2455819999999989
0
LINE
8
BLACK
6
CONTINUOUS
10
102.1764029999999934
20
-65.2455819999999989
11
102.1189999999999998
21
-65.2569999999999908
0
LINE
8
BLACK
6
CONTINUOUS
10
102.1189999999999998
20
-65.2569999999999908
11
101.8189999999999884
21
-65.2569999999999908
0
LINE
8
BLACK
6
CONTINUOUS
10
101.8189999999999884
20
-65.2569999999999908
11
101.7615969999999948
21
-65.2455819999999989
0
LINE
8
BLACK
6
CONTINUOUS
10
101.7615969999999948
20
-65.2455819999999989
11
101.71293399999999
21
-65.2130659999999978
0
LINE
8
BLACK
6
CONTINUOUS
10
101.71293399999999
20
-65.2130659999999978
11
101.6804179999999889
21
-65.164402999999993
0
LINE
8
BLACK
6
CONTINUOUS
10
101.6804179999999889
20
-65.164402999999993
11
101.6689999999999969
21
-65.1069999999999993
0
LINE
8
BLACK
6
CONTINUOUS
10
101.6689999999999969
20
-65.1069999999999993
11
101.6689999999999969
21
-64.3569999999999993
0
LINE
8
BLACK
6
CONTINUOUS
10
101.6689999999999969
20
-64.3569999999999993
11
101.6804179999999889
21
-64.2995969999999915
0
LINE
8
BLACK
6
CONTINUOUS
10
101.6804179999999889
20
-64.2995969999999915
11
101.71293399999999
21
-64.2509340000000009
0
LINE
8
BLACK
6
CONTINUOUS
10
101.71293399999999
20
-64.2509340000000009
11
101.7615969999999948
21
-64.2184179999999998
0
LINE
8
BLACK
6
CONTINUOUS
10
101.7615969999999948
20
-64.2184179999999998
11
101.8189999999999884
21
-64.2069999999999936
0
LINE
8
BLACK
6
CONTINUOUS
10
101.8189999999999884
20
-64.2069999999999936
11
102.1189999999999998
21
-64.2069999999999936
0
LINE
8
BLACK
6
CONTINUOUS
10
102.1189999999999998
20
-64.2069999999999936
11
102.1764029999999934
21
-64.2184179999999998
0
LINE
8
BLACK
6
CONTINUOUS
10
103.4564029999999946
20
-64.2184179999999998
11
103.5050659999999993
21
-64.2509340000000009
0
LINE
8
BLACK
6
CONTINUOUS
10
103.5050659999999993
20
-64.2509340000000009
11
103.5375820000000004
21
-64.2995969999999915
0
LINE
8
BLACK
6
CONTINUOUS
10
103.5375820000000004
20
-64.2995969999999915
11
103.5489999999999924
21
-64.3569999999999993
0
LINE
8
BLACK
6
CONTINUOUS
10
103.5489999999999924
20
-64.3569999999999993
11
103.5489999999999924
21
-65.1069999999999993
0
LINE
8
BLACK
6
CONTINUOUS
10
103.5489999999999924
20
-65.1069999999999993
11
103.5375820000000004
21
-65.164402999999993
0
LINE
8
BLACK
6
CONTINUOUS
10
103.5375820000000004
20
-65.164402999999993
11
103.5050659999999993
21
-65.2130659999999978
0
LINE
8
BLACK
6
CONTINUOUS
10
103.5050659999999993
20
-65.2130659999999978
11
103.4564029999999946
21
-65.2455819999999989
0
LINE
8
BLACK
6
CONTINUOUS
10
103.4564029999999946
20
-65.2455819999999989
11
103.3990000000000009
21
-65.2569999999999908
0
LINE
8
BLACK
6
CONTINUOUS
10
103.3990000000000009
20
-65.2569999999999908
11
103.0989999999999895
21
-65.2569999999999908
0
LINE
8
BLACK
6
CONTINUOUS
10
103.0989999999999895
20
-65.2569999999999908
11
103.0415969999999959
21
-65.2455819999999989
0
LINE
8
BLACK
6
CONTINUOUS
10
103.0415969999999959
20
-65.2455819999999989
11
102.9929339999999911
21
-65.2130659999999978
0
LINE
8
BLACK
6
CONTINUOUS
10
102.9929339999999911
20
-65.2130659999999978
11
102.96041799999999
21
-65.164402999999993
0
LINE
8
BLACK
6
CONTINUOUS
10
102.96041799999999
20
-65.164402999999993
11
102.9489999999999981
21
-65.1069999999999993
0
LINE
8
BLACK
6
CONTINUOUS
10
102.9489999999999981
20
-65.1069999999999993
11
102.9489999999999981
21
-64.3569999999999993
0
LINE
8
BLACK
6
CONTINUOUS
10
102.9489999999999981
20
-64.3569999999999993
11
102.96041799999999
21
-64.2995969999999915
0
LINE
8
BLACK
6
CONTINUOUS
10
102.96041799999999
20
-64.2995969999999915
11
102.9929339999999911
21
-64.2509340000000009
0
LINE
8
BLACK
6
CONTINUOUS
10
102.9929339999999911
20
-64.2509340000000009
11
103.0415969999999959
21
-64.2184179999999998
0
LINE
8
BLACK
6
CONTINUOUS
10
103.0415969999999959
20
-64.2184179999999998
11
103.0989999999999895
21
-64.2069999999999936
0
LINE
8
BLACK
6
CONTINUOUS
10
103.0989999999999895
20
-64.2069999999999936
11
103.3990000000000009
21
-64.2069999999999936
0
LINE
8
BLACK
6
CONTINUOUS
10
103.3990000000000009
20
-64.2069999999999936
11
103.4564029999999946
21
-64.2184179999999998
0
LINE
8
BLACK
6
CONTINUOUS
10
104.7264029999999906
20
-64.2184179999999998
11
104.7750659999999954
21
-64.2509340000000009
0
LINE
8
BLACK
6
CONTINUOUS
10
104.7750659999999954
20
-64.2509340000000009
11
104.8075819999999965
21
-64.2995969999999915
0
LINE
8
BLACK
6
CONTINUOUS
10
104.8075819999999965
20
-64.2995969999999915
11
104.8189999999999884
21
-64.3569999999999993
0
LINE
8
BLACK
6
CONTINUOUS
10
104.8189999999999884
20
-64.3569999999999993
11
104.8189999999999884
21
-65.1069999999999993
0
LINE
8
BLACK
6
CONTINUOUS
10
104.8189999999999884
20
-65.1069999999999993
11
104.8075819999999965
21
-65.164402999999993
0
LINE
8
BLACK
6
CONTINUOUS
10
104.8075819999999965
20
-65.164402999999993
11
104.7750659999999954
21
-65.2130659999999978
0
LINE
8
BLACK
6
CONTINUOUS
10
104.7750659999999954
20
-65.2130659999999978
11
104.7264029999999906
21
-65.2455819999999989
0
LINE
8
BLACK
6
CONTINUOUS
10
104.7264029999999906
20
-65.2455819999999989
11
104.6689999999999969
21
-65.2569999999999908
0
LINE
8
BLACK
6
CONTINUOUS
10
104.6689999999999969
20
-65.2569999999999908
11
104.3689999999999998
21
-65.2569999999999908
0
LINE
8
BLACK
6
CONTINUOUS
10
104.3689999999999998
20
-65.2569999999999908
11
104.3115969999999919
21
-65.2455819999999989
0
LINE
8
BLACK
6
CONTINUOUS
10
104.3115969999999919
20
-65.2455819999999989
11
104.2629340000000013
21
-65.2130659999999978
0
LINE
8
BLACK
6
CONTINUOUS
10
104.2629340000000013
20
-65.2130659999999978
11
104.2304180000000002
21
-65.164402999999993
0
LINE
8
BLACK
6
CONTINUOUS
10
104.2304180000000002
20
-65.164402999999993
11
104.2189999999999941
21
-65.1069999999999993
0
LINE
8
BLACK
6
CONTINUOUS
10
104.2189999999999941
20
-65.1069999999999993
11
104.2189999999999941
21
-64.3569999999999993
0
LINE
8
BLACK
6
CONTINUOUS
10
104.2189999999999941
20
-64.3569999999999993
11
104.2304180000000002
21
-64.2995969999999915
0
LINE
8
BLACK
6
CONTINUOUS
10
104.2304180000000002
20
-64.2995969999999915
11
104.2629340000000013
21
-64.2509340000000009
0
LINE
8
BLACK
6
CONTINUOUS
10
104.2629340000000013
20
-64.2509340000000009
11
104.3115969999999919
21
-64.2184179999999998
0
LINE
8
BLACK
6
CONTINUOUS
10
104.3115969999999919
20
-64.2184179999999998
11
104.3689999999999998
21
-64.2069999999999936
0
LINE
8
BLACK
6
CONTINUOUS
10
104.3689999999999998
20
-64.2069999999999936
11
104.6689999999999969
21
-64.2069999999999936
0
LINE
8
BLACK
6
CONTINUOUS
10
104.6689999999999969
20
-64.2069999999999936
11
104.7264029999999906
21
-64.2184179999999998
0
LINE
8
BLACK
6
CONTINUOUS
10
94.750670999999997
20
-61.9230299999999971
11
94.8317770000000024
21
-61.9772229999999951
0
LINE
8
BLACK
6
CONTINUOUS
10
94.8317770000000024
20
-61.9772229999999951
11
94.8859700000000004
21
-62.0583290000000005
0
LINE
8
BLACK
6
CONTINUOUS
10
94.8859700000000004
20
-62.0583290000000005
11
94.9050000000000011
21
-62.1539999999999964
0
LINE
8
BLACK
6
CONTINUOUS
10
94.9050000000000011
20
-62.1539999999999964
11
94.9050000000000011
21
-63.4540000000000006
0
LINE
8
BLACK
6
CONTINUOUS
10
94.9050000000000011
20
-63.4540000000000006
11
94.8859700000000004
21
-63.5496709999999965
0
LINE
8
BLACK
6
CONTINUOUS
10
94.8859700000000004
20
-63.5496709999999965
11
94.8317770000000024
21
-63.6307769999999948
0
LINE
8
BLACK
6
CONTINUOUS
10
94.8317770000000024
20
-63.6307769999999948
11
94.750670999999997
21
-63.6849699999999999
0
LINE
8
BLACK
6
CONTINUOUS
10
94.750670999999997
20
-63.6849699999999999
11
94.6550000000000011
21
-63.7040000000000006
0
LINE
8
BLACK
6
CONTINUOUS
10
94.6550000000000011
20
-63.7040000000000006
11
93.8299999999999983
21
-63.7040000000000006
0
LINE
8
BLACK
6
CONTINUOUS
10
93.8299999999999983
20
-63.7040000000000006
11
93.7343290000000025
21
-63.6849699999999999
0
LINE
8
BLACK
6
CONTINUOUS
10
93.7343290000000025
20
-63.6849699999999999
11
93.653222999999997
21
-63.6307769999999948
0
LINE
8
BLACK
6
CONTINUOUS
10
93.653222999999997
20
-63.6307769999999948
11
93.5990299999999991
21
-63.5496709999999965
0
LINE
8
BLACK
6
CONTINUOUS
10
93.5990299999999991
20
-63.5496709999999965
11
93.5799999999999983
21
-63.4540000000000006
0
LINE
8
BLACK
6
CONTINUOUS
10
93.5799999999999983
20
-63.4540000000000006
11
93.5799999999999983
21
-62.1539999999999964
0
LINE
8
BLACK
6
CONTINUOUS
10
93.5799999999999983
20
-62.1539999999999964
11
93.5990299999999991
21
-62.0583290000000005
0
LINE
8
BLACK
6
CONTINUOUS
10
93.5990299999999991
20
-62.0583290000000005
11
93.653222999999997
21
-61.9772229999999951
0
LINE
8
BLACK
6
CONTINUOUS
10
93.653222999999997
20
-61.9772229999999951
11
93.7343290000000025
21
-61.9230299999999971
0
LINE
8
BLACK
6
CONTINUOUS
10
93.7343290000000025
20
-61.9230299999999971
11
93.8299999999999983
21
-61.9039999999999964
0
LINE
8
BLACK
6
CONTINUOUS
10
93.8299999999999983
20
-61.9039999999999964
11
94.6550000000000011
21
-61.9039999999999964
0
LINE
8
BLACK
6
CONTINUOUS
10
94.6550000000000011
20
-61.9039999999999964
11
94.750670999999997
21
-61.9230299999999971
0
LINE
8
BLACK
6
CONTINUOUS
10
97.875670999999997
20
-61.9230299999999971
11
97.9567770000000024
21
-61.9772229999999951
0
LINE
8
BLACK
6
CONTINUOUS
10
97.9567770000000024
20
-61.9772229999999951
11
98.0109700000000004
21
-62.0583290000000005
0
LINE
8
BLACK
6
CONTINUOUS
10
98.0109700000000004
20
-62.0583290000000005
11
98.0300000000000011
21
-62.1539999999999964
0
LINE
8
BLACK
6
CONTINUOUS
10
98.0300000000000011
20
-62.1539999999999964
11
98.0300000000000011
21
-63.4540000000000006
0
LINE
8
BLACK
6
CONTINUOUS
10
98.0300000000000011
20
-63.4540000000000006
11
98.0109700000000004
21
-63.5496709999999965
0
LINE
8
BLACK
6
CONTINUOUS
10
98.0109700000000004
20
-63.5496709999999965
11
97.9567770000000024
21
-63.6307769999999948
0
LINE
8
BLACK
6
CONTINUOUS
10
97.9567770000000024
20
-63.6307769999999948
11
97.875670999999997
21
-63.6849699999999999
0
LINE
8
BLACK
6
CONTINUOUS
10
97.875670999999997
20
-63.6849699999999999
11
97.7800000000000011
21
-63.7040000000000006
0
LINE
8
BLACK
6
CONTINUOUS
10
97.7800000000000011
20
-63.7040000000000006
11
96.9549999999999983
21
-63.7040000000000006
0
LINE
8
BLACK
6
CONTINUOUS
10
96.9549999999999983
20
-63.7040000000000006
11
96.8593290000000025
21
-63.6849699999999999
0
LINE
8
BLACK
6
CONTINUOUS
10
96.8593290000000025
20
-63.6849699999999999
11
96.778222999999997
21
-63.6307769999999948
0
LINE
8
BLACK
6
CONTINUOUS
10
96.778222999999997
20
-63.6307769999999948
11
96.7240299999999991
21
-63.5496709999999965
0
LINE
8
BLACK
6
CONTINUOUS
10
96.7240299999999991
20
-63.5496709999999965
11
96.7049999999999983
21
-63.4540000000000006
0
LINE
8
BLACK
6
CONTINUOUS
10
96.7049999999999983
20
-63.4540000000000006
11
96.7049999999999983
21
-62.1539999999999964
0
LINE
8
BLACK
6
CONTINUOUS
10
96.7049999999999983
20
-62.1539999999999964
11
96.7240299999999991
21
-62.0583290000000005
0
LINE
8
BLACK
6
CONTINUOUS
10
96.7240299999999991
20
-62.0583290000000005
11
96.778222999999997
21
-61.9772229999999951
0
LINE
8
BLACK
6
CONTINUOUS
10
96.778222999999997
20
-61.9772229999999951
11
96.8593290000000025
21
-61.9230299999999971
0
LINE
8
BLACK
6
CONTINUOUS
10
96.8593290000000025
20
-61.9230299999999971
11
96.9549999999999983
21
-61.9039999999999964
0
LINE
8
BLACK
6
CONTINUOUS
10
96.9549999999999983
20
-61.9039999999999964
11
97.7800000000000011
21
-61.9039999999999964
0
LINE
8
BLACK
6
CONTINUOUS
10
97.7800000000000011
20
-61.9039999999999964
11
97.875670999999997
21
-61.9230299999999971
  0
ENDSEC
  0
EOF
